<svg width="38" height="38" viewBox="0 0 38 38" fill="none" xmlns="http://www.w3.org/2000/svg">
<rect width="38" height="38" fill="white" fill-opacity="0.01" style="mix-blend-mode:multiply"/>
<path d="M2.375 19C2.375 22.2881 3.35004 25.5024 5.17682 28.2364C7.0036 30.9703 9.60007 33.1012 12.6379 34.3595C15.6757 35.6178 19.0184 35.947 22.2434 35.3056C25.4683 34.6641 28.4306 33.0807 30.7556 30.7556C33.0807 28.4306 34.6641 25.4683 35.3056 22.2434C35.947 19.0184 35.6178 15.6757 34.3595 12.6379C33.1012 9.60007 30.9703 7.0036 28.2364 5.17682C25.5024 3.35004 22.2881 2.375 19 2.375C14.5908 2.375 10.3621 4.12656 7.24435 7.24435C4.12656 10.3621 2.375 14.5908 2.375 19ZM29.8656 28.2031L9.79688 8.13438C12.5289 5.86031 16.0122 4.68941 19.5631 4.85149C23.114 5.01356 26.4761 6.49691 28.9896 9.01039C31.5031 11.5239 32.9864 14.886 33.1485 18.4369C33.3106 21.9878 32.1397 25.4711 29.8656 28.2031ZM9.785 29.8775C6.90926 27.4354 5.11932 23.9526 4.80766 20.1927C4.49601 16.4329 5.68809 12.7029 8.1225 9.82063L28.1794 29.8775C25.6075 32.0506 22.3492 33.2429 18.9822 33.2429C15.6151 33.2429 12.3569 32.0506 9.785 29.8775Z" fill="white"/>
</svg>
