<?xml version="1.0" encoding="utf-8"?>
<!-- Generator: Adobe Illustrator 21.1.0, SVG Export Plug-In . SVG Version: 6.00 Build 0)  -->
<svg version="1.1" id="Layer_1" xmlns="http://www.w3.org/2000/svg" xmlns:xlink="http://www.w3.org/1999/xlink" x="0px" y="0px"
	 viewBox="0 0 200 200" style="enable-background:new 0 0 200 200;" xml:space="preserve">
<style type="text/css">
	.st0{fill:none;}
	.st1{fill:#5A3EC8;}
	.st2{fill:#FFFFFF;}
</style>
<title>DB</title>
<g>
	<path class="st0" d="M25.6,30.4c13.5,3.2,31.4,4.9,50.5,4.9s37-1.8,50.5-4.9c15.1-3.6,19.1-7.6,19.1-9.5c0-1.8-4-5.9-19.1-9.5
		c-13.5-3.2-31.4-4.9-50.5-4.9s-37,1.8-50.5,4.9C10.5,15.1,6.5,19.1,6.5,21C6.5,22.8,10.5,26.9,25.6,30.4z"/>
	<path class="st1" d="M76.1,40.8c37.3,0,75-6.8,75-19.8c0-13-37.7-19.8-75-19.8S1.1,8,1.1,21C1.1,34,38.8,40.8,76.1,40.8z
		 M25.6,11.5C39.1,8.3,57,6.6,76.1,6.6s37,1.8,50.5,4.9c15.1,3.6,19.1,7.6,19.1,9.5c0,1.8-4,5.9-19.1,9.5
		c-13.5,3.2-31.4,4.9-50.5,4.9s-37-1.8-50.5-4.9C10.5,26.9,6.5,22.8,6.5,21C6.5,19.1,10.5,15.1,25.6,11.5z"/>
	<path class="st1" d="M3.8,38.1c-1.5,0-2.7,1.2-2.7,2.7v14.4c0,13,37.7,19.8,75,19.8s75-6.8,75-19.8V40.9c0-1.5-1.2-2.7-2.7-2.7
		s-2.7,1.2-2.7,2.7v14.4c0,1.8-4,5.9-19.1,9.5c-13.5,3.2-31.4,4.9-50.5,4.9s-37-1.8-50.5-4.9C10.6,61.1,6.5,57,6.5,55.2V40.9
		C6.5,39.4,5.3,38.1,3.8,38.1z"/>
	<path class="st2" d="M190.7,136.3c0-31.2-25.4-56.6-56.6-56.6c-31.2,0-56.6,25.4-56.6,56.6c0,31.2,25.4,56.6,56.6,56.6
		C165.3,192.9,190.7,167.5,190.7,136.3z M164,166.1c0,0.6-0.4,1-1,1h-18.4c-0.6,0-1-0.4-1-1v-18.4c0-0.6,0.4-1,1-1h7.7v-8.2
		c0-0.3-0.2-0.5-0.5-0.5h-35.4c-0.3,0-0.5,0.2-0.5,0.5v8.2h7.7c0.6,0,1,0.4,1,1v18.4c0,0.6-0.4,1-1,1h-18.4c-0.6,0-1-0.4-1-1v-18.4
		c0-0.6,0.4-1,1-1h7.7v-8.2c0-1.9,1.6-3.5,3.5-3.5h16.2v-10.2h-7.7c-0.6,0-1-0.4-1-1v-18.4c0-0.6,0.4-1,1-1h18.4c0.6,0,1,0.4,1,1
		v18.4c0,0.6-0.4,1-1,1h-7.7V135h16.2c1.9,0,3.5,1.6,3.5,3.5v8.2h7.7c0.6,0,1,0.4,1,1V166.1z"/>
	<path class="st1" d="M134.1,74.6c-23.7,0-44.3,13.4-54.6,33c-1.1,0-2.2,0-3.4,0c-19.1,0-37-1.8-50.5-4.9
		c-15.1-3.6-19.1-7.6-19.1-9.5V78.9c0-1.5-1.2-2.7-2.7-2.7s-2.7,1.2-2.7,2.7v14.4c0,13,37.7,19.8,75,19.8l0.9-0.2
		c-3,7.2-4.6,15.2-4.6,23.5c0,3.2,0.2,6.3,0.7,9.4c-18-0.2-34.7-1.9-47.5-4.9c-15.1-3.6-19.1-7.6-19.1-9.5V117
		c0-1.5-1.2-2.7-2.7-2.7s-2.7,1.2-2.7,2.7v14.3c0,12.8,36.4,19.6,73.1,19.8c6.7,26.9,31,46.9,59.9,46.9c34.1,0,61.8-27.7,61.8-61.8
		S168.2,74.6,134.1,74.6z M77.6,136.3c0-31.2,25.4-56.6,56.6-56.6c31.2,0,56.6,25.4,56.6,56.6c0,31.2-25.4,56.6-56.6,56.6
		C102.9,192.9,77.6,167.5,77.6,136.3z"/>
	<path class="st1" d="M163,146.7h-7.7v-8.2c0-1.9-1.6-3.5-3.5-3.5h-16.2v-10.2h7.7c0.6,0,1-0.4,1-1v-18.4c0-0.6-0.4-1-1-1h-18.4
		c-0.6,0-1,0.4-1,1v18.4c0,0.6,0.4,1,1,1h7.7V135h-16.2c-1.9,0-3.5,1.6-3.5,3.5v8.2h-7.7c-0.6,0-1,0.4-1,1v18.4c0,0.6,0.4,1,1,1
		h18.4c0.6,0,1-0.4,1-1v-18.4c0-0.6-0.4-1-1-1h-7.7v-8.2c0-0.3,0.2-0.5,0.5-0.5h35.4c0.3,0,0.5,0.2,0.5,0.5v8.2h-7.7
		c-0.6,0-1,0.4-1,1v18.4c0,0.6,0.4,1,1,1H163c0.6,0,1-0.4,1-1v-18.4C164,147.2,163.6,146.7,163,146.7z"/>
</g>
</svg>
