<?xml version="1.0" encoding="UTF-8"?>
<svg width="20px" height="23px" viewBox="0 0 20 23" version="1.1" xmlns="http://www.w3.org/2000/svg" xmlns:xlink="http://www.w3.org/1999/xlink">
    <title>Group 7</title>
    <g id="Page-1" stroke="none" stroke-width="1" fill="none" fill-rule="evenodd">
        <g id="Group-7" fill="#0F62FE">
            <path d="M18.3333333,23 L16.6666667,23 L16.6666667,20.5357143 C16.6641667,18.2685714 14.8,16.4310357 12.5,16.4285714 L7.5,16.4285714 C5.2,16.4310357 3.33583333,18.2685714 3.33333333,20.5357143 L3.33333333,23 L1.66666667,23 L1.66666667,20.5357143 C1.67083333,17.3617143 4.28,14.7898214 7.5,14.7857143 L12.5,14.7857143 C15.72,14.7898214 18.3291667,17.3617143 18.3333333,20.5357143 L18.3333333,23 Z" id="Fill-1"></path>
            <path d="M0.833333333,3.28571429 C0.373333333,3.28571429 0,3.65371429 0,4.10714286 L0,11.5 L1.66666667,11.5 L1.66666667,4.10714286 C1.66666667,3.65371429 1.29333333,3.28571429 0.833333333,3.28571429" id="Fill-3"></path>
            <path d="M10,11.5 C7.69916667,11.5 5.83333333,9.66082143 5.83333333,7.39285714 L5.83333333,5.75 L14.1666667,5.75 L14.1666667,7.39285714 C14.1666667,9.66082143 12.3008333,11.5 10,11.5 L10,11.5 Z M5.83333333,4.10714286 L14.1666667,4.10714286 L14.1666667,1.64285714 L5.83333333,1.64285714 L5.83333333,4.10714286 Z M0,0 L0,1.64285714 L4.16666667,1.64285714 L4.16666667,7.39285714 C4.16666667,10.5685 6.77833333,13.1428571 10,13.1428571 C13.2216667,13.1428571 15.8333333,10.5685 15.8333333,7.39285714 L15.8333333,1.64285714 L20,1.64285714 L20,0 L0,0 Z" id="Fill-5"></path>
        </g>
    </g>
</svg>