<?xml version="1.0" encoding="UTF-8"?>
<svg width="20px" height="14px" viewBox="0 0 20 14" version="1.1" xmlns="http://www.w3.org/2000/svg" xmlns:xlink="http://www.w3.org/1999/xlink">
    <title>Fill 1</title>
    <g id="Page-1" stroke="none" stroke-width="1" fill="none" fill-rule="evenodd">
        <path d="M12.8591248,12.6000506 C12.4372154,12.5993506 12.01602,12.5517523 11.604819,12.4600556 C14.6795457,10.0570424 15.1856941,5.66470098 12.7349078,2.64990984 C12.4015209,2.23972465 12.022445,1.86803807 11.604819,1.54114987 C14.6802596,0.861474417 17.7364251,2.75490605 18.4296129,5.77109714 C19.1228006,8.78728822 17.1917266,11.78318 14.1155722,12.4628555 C13.7036573,12.5538522 13.281748,12.6000506 12.8591248,12.6000506 M7.14800021,12.6000835 C3.99403168,12.6105502 1.42830897,10.1123404 1.4168531,7.01985205 C1.40617836,3.92666374 3.95476769,1.41095458 7.10873623,1.40042495 C7.54420948,1.39905501 7.97825494,1.44665329 8.40230594,1.54184985 C5.32757926,3.94486308 4.82143085,8.33720448 7.27221717,11.3519956 C7.60560407,11.7621808 7.98467996,12.1338674 8.40230594,12.4600556 C7.99110497,12.5524523 7.56990954,12.5993506 7.14800021,12.6000835 M12.8591248,0.000505505436 C11.8760975,0.000505505436 10.9037785,0.201398251 10.0035625,0.589884224 C6.39270399,-0.961259766 2.1828913,0.652181974 0.601623689,4.19335411 C-0.980357813,7.73382626 0.66515995,11.8615772 4.27601845,13.4120212 C6.10143664,14.1959929 8.1781443,14.1959929 10.0035625,13.4120212 C13.6158488,14.9589654 17.8235198,13.3420238 19.4012179,9.80015165 C20.97963,6.25827954 19.3298289,2.13262852 15.7175426,0.585684375 C14.8166127,0.199298327 13.842866,0.000505505436 12.8591248,0.000505505436" id="Fill-1" fill="#0F62FE"></path>
    </g>
</svg>