<svg width="32" height="32" viewBox="0 0 32 32" fill="none" xmlns="http://www.w3.org/2000/svg">
<rect width="32" height="32" fill="white" fill-opacity="0.01" style="mix-blend-mode:multiply"/>
<path d="M8 4V8H4V4H8ZM2 2V10H10V2H2Z" fill="#161616"/>
<path d="M18 7V11H14V7H18ZM12 5V13H20V5H12Z" fill="#161616"/>
<path d="M8 16V20H4V16H8ZM2 14V22H10V14H2Z" fill="#161616"/>
<path d="M22 10V16H16V22H10V30H30V10H22ZM18 18H22V22H18V18ZM16 28H12V24H16V28ZM22 28H18V24H22V28ZM28 28H24V24H28V28ZM28 22H24V18H28V22ZM24 16V12H28V16H24Z" fill="#161616"/>
</svg>
