<?xml version="1.0" encoding="UTF-8"?>
<svg width="20px" height="20px" viewBox="0 0 20 20" version="1.1" xmlns="http://www.w3.org/2000/svg" xmlns:xlink="http://www.w3.org/1999/xlink">
    <title>Group 5</title>
    <g id="Page-1" stroke="none" stroke-width="1" fill="none" fill-rule="evenodd">
        <g id="Group-5" fill="#0F62FE">
            <path d="M1.42857143,18.5714286 L11.4285714,18.5714286 L11.4285714,8.57142857 L1.42857143,8.57142857 L1.42857143,18.5714286 Z M11.4285714,20 L1.42857143,20 C0.639285714,20 0,19.3607143 0,18.5714286 L0,8.57142857 C0,7.78214286 0.639285714,7.14285714 1.42857143,7.14285714 L11.4285714,7.14285714 C12.2178571,7.14285714 12.8571429,7.78214286 12.8571429,8.57142857 L12.8571429,18.5714286 C12.8571429,19.3607143 12.2178571,20 11.4285714,20 L11.4285714,20 Z" id="Fill-1"></path>
            <path d="M16.4285714,15 L15,15 L15,5 L5,5 L5,3.57142857 L15,3.57142857 C15.7892857,3.57142857 16.4285714,4.21071429 16.4285714,5 L16.4285714,15 Z" id="Fill-3"></path>
            <path d="M20,10 L18.5714286,10 L18.5714286,1.42857143 L10,1.42857143 L10,0 L18.5714286,0 C19.3607143,0 20,0.639285714 20,1.42857143 L20,10 Z" id="Fill-4"></path>
        </g>
    </g>
</svg>