<?xml version="1.0" encoding="UTF-8"?>
<svg width="20px" height="21px" viewBox="0 0 20 21" version="1.1" xmlns="http://www.w3.org/2000/svg" xmlns:xlink="http://www.w3.org/1999/xlink">
    <title>Group 5</title>
    <g id="Page-1" stroke="none" stroke-width="1" fill="none" fill-rule="evenodd">
        <g id="Group-5" fill="#0F62FE">
            <path d="M13.8528139,15 L13.8528139,19.5 L1.53920154,19.5 L1.53920154,1.5 L9.23520924,1.5 L9.23520924,0 L1.53920154,0 C0.688792689,0 0,0.67125 0,1.5 L0,19.5 C0,20.32875 0.688792689,21 1.53920154,21 L13.8528139,21 C14.7032227,21 15.3920154,20.32875 15.3920154,19.5 L15.3920154,15 L13.8528139,15 Z" id="Fill-1"></path>
            <path d="M16.5925926,5.3625 L14.5069745,3.33 L16.2539683,1.6275 L18.3395863,3.66 L16.5925926,5.3625 Z M8.23472823,13.5 L6.15680616,13.5 L6.15680616,11.475 L13.4218374,4.3875 L15.5074555,6.42 L8.23472823,13.5 Z M19.6556037,2.82 L17.1159211,0.345 C16.6372294,-0.1125 15.8707071,-0.1125 15.3920154,0.345 L4.61760462,10.845 L4.61760462,15 L8.87349687,15 L19.6479076,4.5 C20.1173641,4.0335 20.1173641,3.2865 19.6479076,2.82 L19.6556037,2.82 Z" id="Fill-3"></path>
        </g>
    </g>
</svg>