<svg width="32" height="32" viewBox="0 0 32 32" fill="none" xmlns="http://www.w3.org/2000/svg">
<rect width="32" height="32" fill="white" fill-opacity="0.01" style="mix-blend-mode:multiply"/>
<path d="M25 23V26H7V16.83L10.59 20.41L12 19L6 13L0 19L1.41 20.41L5 16.83V26C5 26.5304 5.21071 27.0391 5.58579 27.4142C5.96086 27.7893 6.46957 28 7 28H25C25.5304 28 26.0391 27.7893 26.4142 27.4142C26.7893 27.0391 27 26.5304 27 26V23H25Z" fill="#161616"/>
<path d="M27 7V16.17L30.59 12.59L32 14L26 20L20 14L21.41 12.59L25 16.17V7H13V5H25C25.5304 5 26.0391 5.21071 26.4142 5.58579C26.7893 5.96086 27 6.46957 27 7Z" fill="#161616"/>
<path d="M8 10H4C3.46957 10 2.96086 9.78929 2.58579 9.41421C2.21071 9.03914 2 8.53043 2 8V4C2 3.46957 2.21071 2.96086 2.58579 2.58579C2.96086 2.21071 3.46957 2 4 2H8C8.53043 2 9.03914 2.21071 9.41421 2.58579C9.78929 2.96086 10 3.46957 10 4V8C10 8.53043 9.78929 9.03914 9.41421 9.41421C9.03914 9.78929 8.53043 10 8 10ZM4 4V8H8V4H4Z" fill="#161616"/>
</svg>
