<svg xmlns="http://www.w3.org/2000/svg" viewBox="0 0 200 200"><defs><style>.cls-1{fill:none;stroke-width:5.43px;}.cls-1,.cls-2{stroke:#5a3ec8;}.cls-1,.cls-4{stroke-linecap:round;stroke-linejoin:round;}.cls-2{fill:#fff;stroke-miterlimit:10;stroke-width:5.19px;}.cls-3,.cls-4{fill:#5a3ec8;}.cls-4{stroke:#fff;stroke-width:5px;}</style></defs><title>explorer</title><g id="Layer_1" data-name="Layer 1"><ellipse id="_Path_" data-name="&lt;Path&gt;" class="cls-1" cx="76.09" cy="20.97" rx="72.28" ry="17.11"/><path id="_Path_2" data-name="&lt;Path&gt;" class="cls-1" d="M3.82,40.85s0,9.61,0,14.35c0,9.45,32.36,17.11,72.28,17.11s72.28-7.66,72.28-17.11V40.85"/><path id="_Path_3" data-name="&lt;Path&gt;" class="cls-1" d="M3.82,78.9s0,9.61,0,14.35c0,9.45,32.36,17.11,72.28,17.11s72.28-7.66,72.28-17.11V78.9"/><path id="_Path_4" data-name="&lt;Path&gt;" class="cls-1" d="M3.82,117s0,9.61,0,14.35c0,9.45,32.36,17.11,72.28,17.11s72.28-7.66,72.28-17.11V117"/><circle class="cls-2" cx="134.13" cy="136.34" r="59.16"/><path id="_Path_5" data-name="&lt;Path&gt;" class="cls-3" d="M174.6,140.61v-9.33a3.36,3.36,0,0,0-3.36-3.36h-4.92a3.36,3.36,0,0,1-3.11-2.08l-1.44-3.5a3.36,3.36,0,0,1,.73-3.65l3.47-3.47a3.36,3.36,0,0,0,0-4.75l-6.6-6.6a3.36,3.36,0,0,0-4.75,0l-3.48,3.48a3.36,3.36,0,0,1-3.67.72L144,106.62a3.36,3.36,0,0,1-2.06-3.1V98.61a3.36,3.36,0,0,0-3.36-3.36h-9.33a3.36,3.36,0,0,0-3.36,3.36v4.93a3.36,3.36,0,0,1-2.08,3.11l-3.5,1.44a3.36,3.36,0,0,1-3.65-.73l-3.47-3.47a3.36,3.36,0,0,0-4.75,0l-6.6,6.6a3.36,3.36,0,0,0,0,4.75l3.48,3.48a3.36,3.36,0,0,1,.72,3.67l-1.46,3.49a3.36,3.36,0,0,1-3.1,2.06H96.57a3.36,3.36,0,0,0-3.36,3.36v9.33A3.36,3.36,0,0,0,96.57,144h4.93a3.36,3.36,0,0,1,3.11,2.08l1.44,3.5a3.36,3.36,0,0,1-.73,3.65l-3.47,3.47a3.36,3.36,0,0,0,0,4.75l6.6,6.6a3.36,3.36,0,0,0,4.75,0l3.48-3.48a3.36,3.36,0,0,1,3.67-.72l3.49,1.46a3.36,3.36,0,0,1,2.06,3.1v4.91a3.36,3.36,0,0,0,3.36,3.36h9.33a3.36,3.36,0,0,0,3.36-3.36v-4.93a3.36,3.36,0,0,1,2.08-3.11l3.5-1.44a3.36,3.36,0,0,1,3.65.73l3.47,3.47a3.36,3.36,0,0,0,4.75,0l6.6-6.6a3.36,3.36,0,0,0,0-4.75l-3.48-3.48a3.36,3.36,0,0,1-.72-3.67l1.46-3.49a3.36,3.36,0,0,1,3.1-2.06h4.91A3.36,3.36,0,0,0,174.6,140.61Z"/><circle id="_Path_6" data-name="&lt;Path&gt;" class="cls-4" cx="133.9" cy="135.95" r="16.68"/></g></svg>