<svg width="28" height="27" viewBox="0 0 28 27" fill="none" xmlns="http://www.w3.org/2000/svg">
<path d="M18.9996 26.4139L13.9996 21.4129L15.4126 19.9999L18.9996 23.5859L26.5846 15.9999L27.9996 17.4149L18.9996 26.4139Z" fill="#161616"/>
<path d="M9.99963 13.5899L7.40963 10.9999L5.99963 12.4099L9.99963 16.4099L16.9996 9.40991L15.5896 7.99991L9.99963 13.5899Z" fill="#161616"/>
<path d="M9.81893 23.8021C7.48781 23.3694 5.33727 22.2553 3.63909 20.6008C1.9409 18.9463 0.771273 16.8254 0.278016 14.5064C-0.21524 12.1873 -0.00999069 9.77407 0.867828 7.57161C1.74565 5.36916 3.25664 3.47634 5.20986 2.13234C7.16307 0.788354 9.47086 0.0535122 11.8416 0.0206815C14.2123 -0.0121493 16.5395 0.658504 18.5292 1.94789C20.5189 3.23728 22.0817 5.08753 23.0202 7.26484C23.9587 9.44214 24.2307 11.8488 23.8018 14.1806L21.835 13.8192C22.1946 11.8743 21.9694 9.86634 21.1879 8.04937C20.4064 6.23239 19.1037 4.68796 17.4444 3.61134C15.7852 2.53473 13.844 1.97428 11.8662 2.00088C9.88849 2.02747 7.96305 2.63991 6.33336 3.76075C4.70368 4.88159 3.44294 6.4605 2.71056 8.29783C1.97818 10.1352 1.80705 12.1484 2.21882 14.083C2.63058 16.0176 3.60674 17.7866 5.02387 19.1664C6.441 20.5463 8.23545 21.4749 10.1803 21.8349L9.81893 23.8021Z" fill="#161616"/>
</svg>
