<svg width="29" height="28" viewBox="0 0 29 28" fill="none" xmlns="http://www.w3.org/2000/svg">
<path d="M24.9999 14C24.288 14.0036 23.5902 14.199 22.9799 14.5657L20.1213 11.7072L22.4143 9.41417C22.7894 9.0391 23.0001 8.5304 23.0001 7.99997C23.0001 7.46955 22.7894 6.96084 22.4143 6.58577L16.4143 0.585773C16.0392 0.210708 15.5305 0 15.0001 0C14.4697 0 13.961 0.210708 13.5859 0.585773L7.58591 6.58577C7.21085 6.96084 7.00014 7.46955 7.00014 7.99997C7.00014 8.5304 7.21085 9.0391 7.58591 9.41417L9.87891 11.7072L7.01991 14.5657C6.17278 14.0631 5.17132 13.8871 4.20359 14.0707C3.23585 14.2542 2.36842 14.7848 1.76418 15.5626C1.15993 16.3405 0.860448 17.3122 0.921958 18.2953C0.983468 19.2784 1.40174 20.2052 2.09823 20.9016C2.79473 21.5981 3.72153 22.0164 4.70459 22.0779C5.68766 22.1394 6.65937 21.8399 7.43725 21.2357C8.21513 20.6315 8.74567 19.764 8.92923 18.7963C9.1128 17.8286 8.93678 16.8271 8.43421 15.98L11.2927 13.1214L13.5857 15.4144C13.7097 15.535 13.8489 15.6389 13.9999 15.7233V20H10.9999V28H18.9999V20H15.9999V15.7233C16.1509 15.6388 16.2902 15.5349 16.4141 15.4142L18.7071 13.1212L21.5656 15.98C21.1229 16.7396 20.9435 17.6242 21.0554 18.4962C21.1674 19.3683 21.5643 20.1789 22.1845 20.8021C22.8047 21.4252 23.6135 21.826 24.485 21.9421C25.3565 22.0581 26.242 21.883 27.0036 21.4438C27.7653 21.0047 28.3606 20.3262 28.6968 19.5138C29.033 18.7014 29.0914 17.8007 28.8629 16.9517C28.6344 16.1028 28.1317 15.3531 27.4331 14.8193C26.7345 14.2854 25.8791 13.9974 24.9999 14ZM6.99991 18C6.99991 18.3955 6.88261 18.7822 6.66285 19.1111C6.44309 19.44 6.13073 19.6964 5.76528 19.8477C5.39983 19.9991 4.99769 20.0387 4.60973 19.9615C4.22177 19.8844 3.8654 19.6939 3.5857 19.4142C3.30599 19.1345 3.11551 18.7781 3.03834 18.3902C2.96117 18.0022 3.00078 17.6001 3.15215 17.2346C3.30353 16.8692 3.55987 16.5568 3.88877 16.337C4.21767 16.1173 4.60435 16 4.99991 16C5.53016 16.0006 6.03851 16.2115 6.41345 16.5864C6.78839 16.9614 6.9993 17.4697 6.99991 18ZM16.9999 22V26H12.9999V22H16.9999ZM14.9999 14L8.99991 7.99997L14.9999 1.99997L20.9999 7.99997L14.9999 14ZM24.9999 20C24.6043 20 24.2177 19.8827 23.8888 19.6629C23.5599 19.4431 23.3035 19.1308 23.1522 18.7653C23.0008 18.3999 22.9612 17.9978 23.0383 17.6098C23.1155 17.2218 23.306 16.8655 23.5857 16.5858C23.8654 16.3061 24.2218 16.1156 24.6097 16.0384C24.9977 15.9612 25.3998 16.0008 25.7653 16.1522C26.1307 16.3036 26.4431 16.5599 26.6628 16.8888C26.8826 17.2177 26.9999 17.6044 26.9999 18C26.9993 18.5302 26.7884 19.0386 26.4135 19.4135C26.0385 19.7885 25.5302 19.9994 24.9999 20Z" fill="#161616"/>
</svg>
