<svg width="24" height="24" viewBox="0 0 24 24" fill="none" xmlns="http://www.w3.org/2000/svg">
<path d="M10 20H0V22H10V20Z" fill="white"/>
<path d="M10 14H0V16H10V14Z" fill="white"/>
<path d="M22 10H2C1.46957 10 0.960859 9.78929 0.585786 9.41421C0.210714 9.03914 0 8.53043 0 8V2C0 1.46957 0.210714 0.960859 0.585786 0.585786C0.960859 0.210714 1.46957 0 2 0H22C22.5304 0 23.0391 0.210714 23.4142 0.585786C23.7893 0.960859 24 1.46957 24 2V8C24 8.53043 23.7893 9.03914 23.4142 9.41421C23.0391 9.78929 22.5304 10 22 10ZM2 2V8H22V2H2Z" fill="white"/>
<path d="M22 24H16C15.4696 24 14.9609 23.7893 14.5858 23.4142C14.2107 23.0391 14 22.5304 14 22V16C14 15.4696 14.2107 14.9609 14.5858 14.5858C14.9609 14.2107 15.4696 14 16 14H22C22.5304 14 23.0391 14.2107 23.4142 14.5858C23.7893 14.9609 24 15.4696 24 16V22C24 22.5304 23.7893 23.0391 23.4142 23.4142C23.0391 23.7893 22.5304 24 22 24ZM16 16V22H22V16H16Z" fill="white"/>
</svg>
