<svg width="26" height="26" viewBox="0 0 26 26" fill="none" xmlns="http://www.w3.org/2000/svg">
<path d="M24 0H16C14.8972 0 14 0.8975 14 2V24C14 25.1025 14.8972 26 16 26H24C25.1028 26 26 25.1025 26 24V2C26 0.8975 25.1028 0 24 0ZM24.0002 6.9194L17.8508 2H24L24.0002 6.9194ZM23.3991 9L15.9999 14.9194V3.0806L23.3991 9ZM24.0004 11.0801L24.0011 22.9204L16.6007 17L24.0004 11.0801ZM15.9999 19.0806L22.1491 24H15.9999V19.0806Z" fill="white"/>
<path d="M10 0H2C0.8972 0 0 0.8975 0 2V24C0 25.1025 0.8972 26 2 26H10C11.1028 26 12 25.1025 12 24V2C12 0.8975 11.1028 0 10 0ZM10.0002 6.9194L3.8508 2H10L10.0002 6.9194ZM9.3991 9L1.9999 14.9194V3.0806L9.3991 9ZM10.0004 11.0801L10.0011 22.9204L2.6007 17L10.0004 11.0801ZM2 19.0806L8.1492 24H2V19.0806Z" fill="white"/>
</svg>
