<svg width="28" height="28" viewBox="0 0 28 28" fill="none" xmlns="http://www.w3.org/2000/svg">
<path d="M17 14V12H24.171L21.878 9.707L23.292 8.293L28 13L23.292 17.707L21.878 16.293L24.171 14H17Z" fill="#161616"/>
<path d="M15 10H13V3.828L10.707 6.121L9.293 4.707L14 0L18.707 4.707L17.293 6.121L15 3.828V10Z" fill="#161616"/>
<path d="M15 18.1011V16C14.9988 14.9395 14.577 13.9228 13.8271 13.1729C13.0772 12.423 12.0605 12.0012 11 12H3.8281L6.1211 9.707L4.707 8.293L0 13L4.707 17.707L6.1211 16.293L3.8281 14H11C11.5302 14.0007 12.0386 14.2116 12.4135 14.5865C12.7884 14.9614 12.9993 15.4698 13 16V18.1011C11.786 18.3489 10.7072 19.0387 9.9728 20.0367C9.23843 21.0347 8.90078 22.2698 9.02532 23.5026C9.14986 24.7354 9.72771 25.8781 10.6468 26.709C11.566 27.54 12.7609 28.0001 14 28.0001C15.2391 28.0001 16.434 27.54 17.3532 26.709C18.2723 25.8781 18.8501 24.7354 18.9747 23.5026C19.0992 22.2698 18.7616 21.0347 18.0272 20.0367C17.2928 19.0387 16.214 18.3489 15 18.1011ZM14 26C13.4067 26 12.8266 25.8241 12.3333 25.4944C11.8399 25.1648 11.4554 24.6962 11.2284 24.1481C11.0013 23.5999 10.9419 22.9967 11.0576 22.4147C11.1734 21.8328 11.4591 21.2982 11.8787 20.8787C12.2982 20.4591 12.8328 20.1734 13.4147 20.0576C13.9967 19.9419 14.5999 20.0013 15.1481 20.2284C15.6962 20.4554 16.1648 20.8399 16.4944 21.3333C16.8241 21.8266 17 22.4067 17 23C16.9991 23.7954 16.6828 24.5579 16.1204 25.1204C15.5579 25.6828 14.7954 25.9991 14 26Z" fill="#161616"/>
</svg>
