<svg width="24" height="28" viewBox="0 0 24 28" fill="none" xmlns="http://www.w3.org/2000/svg">
<path d="M16 24.0003C17.1046 24.0003 18 23.1049 18 22.0003C18 20.8958 17.1046 20.0003 16 20.0003C14.8954 20.0003 14 20.8958 14 22.0003C14 23.1049 14.8954 24.0003 16 24.0003Z" fill="white"/>
<path d="M23.7769 21.4788C23.159 19.9048 22.0927 18.5468 20.7103 17.5729C19.3279 16.5991 17.6902 16.0523 16 16.0003C14.3098 16.0523 12.6721 16.5991 11.2897 17.5729C9.90729 18.5468 8.84105 19.9048 8.2231 21.4788L8 22.0003L8.2231 22.5218C8.84105 24.0958 9.90729 25.4539 11.2897 26.4278C12.6721 27.4016 14.3098 27.9484 16 28.0003C17.6902 27.9484 19.3279 27.4016 20.7103 26.4278C22.0927 25.4539 23.159 24.0958 23.7769 22.5218L24 22.0003L23.7769 21.4788ZM16 26.0003C15.2089 26.0003 14.4355 25.7657 13.7777 25.3262C13.1199 24.8867 12.6072 24.262 12.3045 23.5311C12.0017 22.8002 11.9225 21.9959 12.0769 21.22C12.2312 20.4441 12.6122 19.7313 13.1716 19.1719C13.731 18.6125 14.4437 18.2315 15.2196 18.0772C15.9956 17.9229 16.7998 18.0021 17.5307 18.3048C18.2616 18.6076 18.8864 19.1203 19.3259 19.7781C19.7654 20.4359 20 21.2092 20 22.0003C19.9988 23.0608 19.577 24.0776 18.8271 24.8275C18.0772 25.5773 17.0605 25.9992 16 26.0003Z" fill="white"/>
<path d="M6 26.0003H2V2.00034H10V8.00034C10.0015 8.53031 10.2127 9.03813 10.5875 9.41287C10.9622 9.78761 11.47 9.99881 12 10.0003H18V14.0003H20V8.00034C20.0036 7.86891 19.9786 7.73827 19.9268 7.61742C19.875 7.49657 19.7976 7.38839 19.7 7.30034L12.7 0.300344C12.612 0.202672 12.5038 0.125268 12.3829 0.0734729C12.2621 0.0216783 12.1314 -0.00327225 12 0.000343724H2C1.47004 0.00187397 0.962218 0.213079 0.587477 0.587821C0.212735 0.962562 0.00153024 1.47038 0 2.00034V26.0003C0.00153024 26.5303 0.212735 27.0381 0.587477 27.4129C0.962218 27.7876 1.47004 27.9988 2 28.0003H6V26.0003ZM12 2.40034L17.6 8.00034H12V2.40034Z" fill="white"/>
</svg>
