<svg width="28" height="26" viewBox="0 0 28 26" fill="none" xmlns="http://www.w3.org/2000/svg">
<path d="M26 13H16C15.4698 13.0007 14.9614 13.2116 14.5865 13.5865C14.2116 13.9614 14.0007 14.4698 14 15V21C14.0007 21.5302 14.2116 22.0386 14.5865 22.4135C14.9614 22.7884 15.4698 22.9993 16 23H20V21H16V15H26V21H23.4648L20.8711 24.8906L22.5352 26L24.5352 23H26C26.5302 22.9993 27.0386 22.7884 27.4135 22.4135C27.7884 22.0386 27.9993 21.5302 28 21V15C27.9993 14.4698 27.7884 13.9614 27.4135 13.5865C27.0386 13.2116 26.5302 13.0007 26 13Z" fill="white"/>
<path d="M6.66673 20.1086L7.52813 19.2471C7.64347 19.1318 7.7901 19.0529 7.94987 19.0201C8.10963 18.9873 8.27551 19.0021 8.42693 19.0627L9.47623 19.4827C9.6308 19.5445 9.76331 19.6513 9.85667 19.7891C9.95002 19.927 9.99996 20.0896 10 20.2561V22.1643C10.0003 22.2777 9.9774 22.39 9.93277 22.4942C9.88813 22.5985 9.82268 22.6925 9.74043 22.7706C9.65818 22.8487 9.56086 22.9092 9.45442 22.9484C9.34798 22.9875 9.23467 23.0045 9.12143 22.9984C1.76683 22.5406 0.281429 16.3121 0.00562951 13.9261C-0.00771096 13.8095 0.00379269 13.6913 0.0393839 13.5795C0.074975 13.4676 0.133847 13.3645 0.212128 13.2771C0.290408 13.1896 0.386323 13.1197 0.493563 13.0719C0.600803 13.0242 0.716939 12.9996 0.83433 13H2.70853C2.87506 13 3.03777 13.0499 3.17567 13.1433C3.31358 13.2367 3.42035 13.3692 3.48223 13.5238L3.90223 14.5731C3.96282 14.7245 3.97764 14.8904 3.94484 15.0502C3.91205 15.21 3.83308 15.3566 3.71773 15.4719L2.85633 16.3333C3.00615 17.2865 3.45665 18.167 4.14212 18.8461C4.82759 19.5253 5.71214 19.9676 6.66673 20.1086Z" fill="white"/>
<path d="M26 5H19V7H26V5Z" fill="white"/>
<path d="M28 1H19V3H28V1Z" fill="white"/>
<path d="M15 2L12 4.2V2C11.9994 1.46976 11.7884 0.961423 11.4135 0.586488C11.0386 0.211553 10.5302 0.000635143 10 0H2C1.46976 0.000635143 0.961423 0.211553 0.586488 0.586488C0.211553 0.961423 0.000635143 1.46976 0 2V8C0.000635143 8.53024 0.211553 9.03858 0.586488 9.41351C0.961423 9.78845 1.46976 9.99936 2 10H10C10.5302 9.99936 11.0386 9.78845 11.4135 9.41351C11.7884 9.03858 11.9994 8.53024 12 8V5.8L15 8V2ZM2 8V2H10V8H2Z" fill="white"/>
</svg>
