<svg width="28" height="24" viewBox="0 0 28 24" fill="none" xmlns="http://www.w3.org/2000/svg">
<path d="M28 18H0V20H28V18Z" fill="white"/>
<path d="M28 22H0V24H28V22Z" fill="white"/>
<path d="M22 6C21.6044 6 21.2178 6.1173 20.8889 6.33706C20.56 6.55682 20.3036 6.86918 20.1522 7.23463C20.0009 7.60009 19.9613 8.00222 20.0384 8.39018C20.1156 8.77814 20.3061 9.13451 20.5858 9.41421C20.8655 9.69392 21.2219 9.8844 21.6098 9.96157C21.9978 10.0387 22.3999 9.99913 22.7654 9.84776C23.1308 9.69638 23.4432 9.44004 23.6629 9.11114C23.8827 8.78224 24 8.39556 24 8C24 7.46957 23.7893 6.96086 23.4142 6.58579C23.0391 6.21071 22.5304 6 22 6Z" fill="white"/>
<path d="M14 12C13.2089 12 12.4355 11.7654 11.7777 11.3259C11.1199 10.8864 10.6072 10.2616 10.3045 9.53073C10.0017 8.79983 9.92252 7.99556 10.0769 7.21964C10.2312 6.44371 10.6122 5.73098 11.1716 5.17157C11.731 4.61216 12.4437 4.2312 13.2196 4.07686C13.9956 3.92252 14.7998 4.00173 15.5307 4.30448C16.2616 4.60723 16.8864 5.11992 17.3259 5.77772C17.7654 6.43552 18 7.20887 18 8C17.9988 9.0605 17.577 10.0772 16.8271 10.8271C16.0772 11.577 15.0605 11.9988 14 12ZM14 6C13.6044 6 13.2178 6.1173 12.8889 6.33706C12.56 6.55682 12.3036 6.86918 12.1522 7.23463C12.0009 7.60009 11.9613 8.00222 12.0384 8.39018C12.1156 8.77814 12.3061 9.13451 12.5858 9.41421C12.8655 9.69392 13.2219 9.8844 13.6098 9.96157C13.9978 10.0387 14.3999 9.99913 14.7654 9.84776C15.1308 9.69638 15.4432 9.44004 15.6629 9.11114C15.8827 8.78224 16 8.39556 16 8C15.9995 7.46973 15.7886 6.96133 15.4136 6.58637C15.0387 6.21141 14.5303 6.00053 14 6Z" fill="white"/>
<path d="M6 6C5.60444 6 5.21776 6.1173 4.88886 6.33706C4.55996 6.55682 4.30362 6.86918 4.15224 7.23463C4.00087 7.60009 3.96126 8.00222 4.03843 8.39018C4.1156 8.77814 4.30608 9.13451 4.58579 9.41421C4.86549 9.69392 5.22186 9.8844 5.60982 9.96157C5.99778 10.0387 6.39991 9.99913 6.76537 9.84776C7.13082 9.69638 7.44318 9.44004 7.66294 9.11114C7.8827 8.78224 8 8.39556 8 8C8 7.46957 7.78929 6.96086 7.41421 6.58579C7.03914 6.21071 6.53043 6 6 6Z" fill="white"/>
<path d="M26 16H2C1.46998 15.9987 0.962055 15.7875 0.587274 15.4127C0.212493 15.0379 0.00134641 14.53 0 14V2C0.00134641 1.46998 0.212493 0.962055 0.587274 0.587274C0.962055 0.212492 1.46998 0.00134641 2 0H26C26.53 0.00134641 27.0379 0.212492 27.4127 0.587274C27.7875 0.962055 27.9987 1.46998 28 2V14C27.9993 14.5302 27.7883 15.0385 27.4134 15.4134C27.0385 15.7883 26.5302 15.9993 26 16ZM26 2H2V14H26V2Z" fill="white"/>
</svg>
