<svg width="32" height="32" viewBox="0 0 32 32" fill="none" xmlns="http://www.w3.org/2000/svg">
<rect width="32" height="32" fill="white" style="mix-blend-mode:multiply"/>
<path d="M16 27C12.4 27 8.9 25.2 6.8 22H12V20H4V28H6V24.3C8.5 27.3 12.1 29 16 29V27Z" fill="#161616"/>
<path d="M31 23V21H28.9C28.8 20.4 28.5 19.8 28.2 19.2L29.7 17.7L28.3 16.3L26.8 17.8C26.3 17.5 25.7 17.2 25 17.1V15H23V17.1C22.4 17.2 21.8 17.5 21.2 17.8L19.7 16.3L18.3 17.7L19.8 19.2C19.5 19.7 19.2 20.3 19.1 21H17V23H19.1C19.2 23.6 19.5 24.2 19.8 24.8L18.3 26.3L19.7 27.7L21.2 26.2C21.7 26.5 22.3 26.8 23 26.9V29H25V26.9C25.6 26.8 26.2 26.5 26.8 26.2L28.3 27.7L29.7 26.3L28.2 24.8C28.5 24.3 28.8 23.7 28.9 23H31ZM24 25C22.3 25 21 23.7 21 22C21 20.3 22.3 19 24 19C25.7 19 27 20.3 27 22C27 23.7 25.7 25 24 25Z" fill="#161616"/>
<path d="M20 10H25.2C21.9 4.9 15.1 3.5 10 6.8C6.9 8.8 5 12.3 5 16H3C3 8.8 8.8 3 16 3C19.9 3 23.5 4.7 26 7.7V4H28V12H20V10Z" fill="#161616"/>
</svg>
