<svg width="28" height="28" viewBox="0 0 28 28" fill="none" xmlns="http://www.w3.org/2000/svg">
<path d="M6 16.6V15H4V16.6C3.9978 17.5724 4.1877 18.5357 4.55881 19.4345C4.92991 20.3333 5.47491 21.1499 6.1625 21.8375C6.85009 22.5251 7.66674 23.0701 8.56554 23.4412C9.46434 23.8123 10.4276 24.0022 11.4 24H13V22H11.4C10.69 22.003 9.98649 21.8653 9.32999 21.595C8.67349 21.3247 8.07702 20.927 7.57499 20.425C7.07296 19.923 6.67531 19.3265 6.40499 18.67C6.13467 18.0135 5.99702 17.31 6 16.6Z" fill="white"/>
<path d="M26 16H18C17.47 16.0016 16.9622 16.2128 16.5875 16.5875C16.2128 16.9622 16.0016 17.47 16 18V26C16.0016 26.53 16.2128 27.0378 16.5875 27.4125C16.9622 27.7872 17.47 27.9984 18 28H26C26.53 27.9984 27.0378 27.7872 27.4125 27.4125C27.7872 27.0378 27.9984 26.53 28 26V18C27.9984 17.47 27.7872 16.9622 27.4125 16.5875C27.0378 16.2128 26.53 16.0016 26 16ZM18 26V18H26V26H18Z" fill="white"/>
<path d="M22 11.4V13H24V11.4C24.0022 10.4276 23.8123 9.46434 23.4412 8.56554C23.0701 7.66674 22.5251 6.85009 21.8375 6.1625C21.1499 5.47491 20.3333 4.92991 19.4345 4.55881C18.5357 4.1877 17.5724 3.9978 16.6 4H15V6H16.6C17.31 5.99702 18.0135 6.13467 18.67 6.40499C19.3265 6.67531 19.923 7.07296 20.425 7.57499C20.927 8.07702 21.3247 8.67349 21.595 9.32999C21.8653 9.98649 22.003 10.69 22 11.4Z" fill="white"/>
<path d="M10 0H2C1.47005 0.00155649 0.962242 0.21277 0.587506 0.587506C0.21277 0.962242 0.00155649 1.47005 0 2V10C0.00155649 10.53 0.21277 11.0378 0.587506 11.4125C0.962242 11.7872 1.47005 11.9984 2 12H10C10.53 11.9984 11.0378 11.7872 11.4125 11.4125C11.7872 11.0378 11.9984 10.53 12 10V2C11.9984 1.47005 11.7872 0.962242 11.4125 0.587506C11.0378 0.21277 10.53 0.00155649 10 0ZM2 10V2H10V10H2Z" fill="white"/>
</svg>
