<svg width="20" height="28" viewBox="0 0 20 28" fill="none" xmlns="http://www.w3.org/2000/svg">
<path d="M15 22H5.00002V24H15V22Z" fill="white"/>
<path d="M13 26H7.00002V28H13V26Z" fill="white"/>
<path d="M10 0C7.34785 0 4.80431 1.05357 2.92895 2.92893C1.05358 4.8043 1.56267e-05 7.34784 1.56267e-05 10C-0.0676101 11.4533 0.21079 12.902 0.812311 14.2267C1.41383 15.5514 2.32129 16.7144 3.46002 17.62C4.46002 18.55 5.00002 19.08 5.00002 20H7.00002C7.00002 18.16 5.89002 17.13 4.81002 16.14C3.87537 15.4243 3.13049 14.4903 2.6406 13.4198C2.15071 12.3494 1.93076 11.1752 2.00002 10C2.00002 7.87827 2.84287 5.84344 4.34316 4.34315C5.84345 2.84285 7.87828 2 10 2C12.1217 2 14.1566 2.84285 15.6569 4.34315C17.1572 5.84344 18 7.87827 18 10C18.0681 11.176 17.8466 12.3508 17.355 13.4213C16.8633 14.4918 16.1165 15.4253 15.18 16.14C14.11 17.14 13 18.14 13 20H15C15 19.08 15.53 18.55 16.54 17.61C17.678 16.706 18.585 15.5447 19.1865 14.2217C19.788 12.8987 20.0668 11.4518 20 10C20 8.68678 19.7414 7.38642 19.2388 6.17317C18.7363 4.95991 17.9997 3.85752 17.0711 2.92893C16.1425 2.00035 15.0401 1.26375 13.8268 0.761205C12.6136 0.258658 11.3132 0 10 0Z" fill="white"/>
</svg>
