<svg width="28" height="20" viewBox="0 0 28 20" fill="none" xmlns="http://www.w3.org/2000/svg">
<path d="M16 9H12V5H10V9H6V11H10V15H12V11H16V9Z" fill="#161616"/>
<path d="M19 20H2C1.46975 19.9994 0.9614 19.7885 0.586459 19.4135C0.211518 19.0386 0.000608734 18.5302 0 18V2C0.000608734 1.46975 0.211518 0.9614 0.586459 0.586459C0.9614 0.211518 1.46975 0.000608734 2 0H19C19.5302 0.000608734 20.0386 0.211518 20.4135 0.586459C20.7885 0.9614 20.9994 1.46975 21 2V6.0566L26.4189 2.1866C26.5683 2.07967 26.7444 2.01601 26.9276 2.00262C27.1109 1.98922 27.2943 2.02661 27.4577 2.11068C27.6211 2.19474 27.7582 2.32222 27.8539 2.47912C27.9495 2.63601 28.0001 2.81624 28 3V17C28.0001 17.1838 27.9496 17.364 27.8539 17.5209C27.7583 17.6778 27.6212 17.8053 27.4578 17.8894C27.2944 17.9735 27.111 18.0109 26.9277 17.9975C26.7444 17.9841 26.5684 17.9204 26.4189 17.8135L21 13.9434V18C20.9994 18.5302 20.7885 19.0386 20.4135 19.4135C20.0386 19.7885 19.5302 19.9994 19 20ZM2 2V18.001L19 18V12C18.9999 11.8162 19.0504 11.636 19.1461 11.4791C19.2417 11.3222 19.3788 11.1947 19.5422 11.1106C19.7056 11.0265 19.889 10.9891 20.0723 11.0025C20.2556 11.0159 20.4316 11.0796 20.5811 11.1865L26 15.0566V4.9434L20.5811 8.8134C20.4317 8.92033 20.2556 8.98399 20.0724 8.99738C19.8891 9.01078 19.7057 8.97339 19.5423 8.88932C19.3789 8.80526 19.2418 8.67778 19.1461 8.52088C19.0505 8.36399 18.9999 8.18376 19 8V2H2Z" fill="#161616"/>
</svg>
