<svg width="51" height="51" viewBox="0 0 51 51" fill="none" xmlns="http://www.w3.org/2000/svg">
<path d="M45.0938 41.5313H34.4062C32.989 41.5313 31.6298 42.0943 30.6276 43.0964C29.6255 44.0985 29.0625 45.4578 29.0625 46.875V50.4375H32.625V46.875C32.625 46.4026 32.8127 45.9495 33.1467 45.6155C33.4808 45.2814 33.9338 45.0938 34.4062 45.0938H45.0938C45.5662 45.0938 46.0192 45.2814 46.3533 45.6155C46.6873 45.9495 46.875 46.4026 46.875 46.875V50.4375H50.4375V46.875C50.4375 45.4578 49.8745 44.0985 48.8724 43.0964C47.8702 42.0943 46.511 41.5313 45.0938 41.5313Z" fill="#4589FF"/>
<path d="M32.625 32.625C32.625 34.0342 33.0429 35.4117 33.8258 36.5834C34.6087 37.7551 35.7215 38.6684 37.0234 39.2076C38.3253 39.7469 39.7579 39.888 41.14 39.6131C42.5221 39.3382 43.7917 38.6596 44.7881 37.6631C45.7846 36.6667 46.4632 35.3971 46.7381 34.015C47.013 32.6329 46.8719 31.2003 46.3326 29.8984C45.7934 28.5965 44.8801 27.4837 43.7084 26.7008C42.5367 25.9179 41.1592 25.5 39.75 25.5C37.8603 25.5 36.0481 26.2507 34.7119 27.5869C33.3757 28.9231 32.625 30.7353 32.625 32.625ZM43.3125 32.625C43.3125 33.3296 43.1036 34.0184 42.7121 34.6042C42.3207 35.1901 41.7643 35.6467 41.1133 35.9163C40.4623 36.186 39.746 36.2565 39.055 36.1191C38.3639 35.9816 37.7292 35.6423 37.2309 35.1441C36.7327 34.6458 36.3934 34.0111 36.256 33.32C36.1185 32.629 36.189 31.9127 36.4587 31.2617C36.7283 30.6107 37.1849 30.0543 37.7708 29.6629C38.3566 29.2714 39.0454 29.0625 39.75 29.0625C40.6948 29.0625 41.601 29.4378 42.2691 30.1059C42.9372 30.774 43.3125 31.6802 43.3125 32.625Z" fill="#4589FF"/>
<path d="M7.6875 34.4063V32.625H4.125V34.4063C4.125 37.7132 5.43867 40.8846 7.77701 43.223C10.1154 45.5613 13.2868 46.875 16.5938 46.875H21.9375V43.3125H16.5938C14.2317 43.3125 11.9663 42.3742 10.2961 40.7039C8.62583 39.0337 7.6875 36.7683 7.6875 34.4063Z" fill="#4589FF"/>
<path d="M43.3125 14.8125H30.8438V18.375H43.3125V14.8125Z" fill="#4589FF"/>
<path d="M48.6562 7.6875H30.8438V11.25H48.6562V7.6875Z" fill="#4589FF"/>
<path d="M48.6562 0.562503H30.8438V4.125H48.6562V0.562503Z" fill="#4589FF"/>
<path d="M16.5938 16.5938H5.90625C4.489 16.5938 3.1298 17.1568 2.12765 18.1589C1.1255 19.161 0.5625 20.5203 0.5625 21.9375V25.5H4.125V21.9375C4.125 21.4651 4.31267 21.012 4.64672 20.678C4.98077 20.3439 5.43383 20.1563 5.90625 20.1563H16.5938C17.0662 20.1563 17.5192 20.3439 17.8533 20.678C18.1873 21.012 18.375 21.4651 18.375 21.9375V25.5H21.9375V21.9375C21.9375 20.5203 21.3745 19.161 20.3724 18.1589C19.3702 17.1568 18.011 16.5938 16.5938 16.5938Z" fill="#4589FF"/>
<path d="M11.25 14.8125C12.6592 14.8125 14.0367 14.3946 15.2084 13.6117C16.3801 12.8288 17.2934 11.716 17.8326 10.4141C18.3719 9.1122 18.513 7.6796 18.2381 6.29748C17.9632 4.91537 17.2846 3.64582 16.2881 2.64937C15.2917 1.65292 14.0221 0.974328 12.64 0.699408C11.2579 0.424488 9.8253 0.565587 8.52338 1.10486C7.22146 1.64414 6.10868 2.55736 5.32578 3.72906C4.54287 4.90077 4.125 6.27831 4.125 7.6875C4.125 9.57717 4.87567 11.3894 6.21186 12.7256C7.54806 14.0618 9.36033 14.8125 11.25 14.8125ZM11.25 4.125C11.9546 4.125 12.6434 4.33394 13.2292 4.72539C13.8151 5.11685 14.2717 5.67323 14.5413 6.32419C14.811 6.97515 14.8815 7.69146 14.744 8.38251C14.6066 9.07357 14.2673 9.70835 13.7691 10.2066C13.2708 10.7048 12.6361 11.0441 11.945 11.1816C11.254 11.319 10.5377 11.2485 9.88669 10.9788C9.23573 10.7092 8.67934 10.2526 8.28789 9.66672C7.89644 9.08087 7.6875 8.3921 7.6875 7.6875C7.6875 6.74267 8.06283 5.83653 8.73093 5.16843C9.39903 4.50034 10.3052 4.125 11.25 4.125Z" fill="#4589FF"/>
</svg>
