<svg width="28" height="24" viewBox="0 0 28 24" fill="none" xmlns="http://www.w3.org/2000/svg">
<path d="M18.17 15L15.58 17.59L17 19L21 15L17 11L15.58 12.41L18.17 15Z" fill="#161616"/>
<path d="M9.83 15L12.42 12.41L11 11L7 15L11 19L12.42 17.59L9.83 15Z" fill="#161616"/>
<path d="M7 5C7.55228 5 8 4.55228 8 4C8 3.44772 7.55228 3 7 3C6.44772 3 6 3.44772 6 4C6 4.55228 6.44772 5 7 5Z" fill="#161616"/>
<path d="M4 5C4.55228 5 5 4.55228 5 4C5 3.44772 4.55228 3 4 3C3.44772 3 3 3.44772 3 4C3 4.55228 3.44772 5 4 5Z" fill="#161616"/>
<path d="M26 0H2C0.8972 0 0 0.8975 0 2V22C0 23.1025 0.8972 24 2 24H26C27.1028 24 28 23.1025 28 22V2C28 0.8975 27.1028 0 26 0ZM26 2V6H2V2H26ZM2 22V8H26V22H2Z" fill="#161616"/>
</svg>
