<svg width="24" height="24" viewBox="0 0 24 24" fill="none" xmlns="http://www.w3.org/2000/svg">
<path d="M12 14H2C1.46957 14 0.960859 13.7893 0.585786 13.4142C0.210714 13.0391 0 12.5304 0 12V2C0 1.46957 0.210714 0.960859 0.585786 0.585786C0.960859 0.210714 1.46957 0 2 0H12C12.5304 0 13.0391 0.210714 13.4142 0.585786C13.7893 0.960859 14 1.46957 14 2V12C14 12.5304 13.7893 13.0391 13.4142 13.4142C13.0391 13.7893 12.5304 14 12 14ZM2 2V12H12V2H2Z" fill="#161616"/>
<path d="M22 8V12H18V8H22ZM22 6H18C17.4696 6 16.9609 6.21071 16.5858 6.58579C16.2107 6.96086 16 7.46957 16 8V12C16 12.5304 16.2107 13.0391 16.5858 13.4142C16.9609 13.7893 17.4696 14 18 14H22C22.5304 14 23.0391 13.7893 23.4142 13.4142C23.7893 13.0391 24 12.5304 24 12V8C24 7.46957 23.7893 6.96086 23.4142 6.58579C23.0391 6.21071 22.5304 6 22 6Z" fill="#161616"/>
<path d="M22 18V22H18V18H22ZM22 16H18C17.4696 16 16.9609 16.2107 16.5858 16.5858C16.2107 16.9609 16 17.4696 16 18V22C16 22.5304 16.2107 23.0391 16.5858 23.4142C16.9609 23.7893 17.4696 24 18 24H22C22.5304 24 23.0391 23.7893 23.4142 23.4142C23.7893 23.0391 24 22.5304 24 22V18C24 17.4696 23.7893 16.9609 23.4142 16.5858C23.0391 16.2107 22.5304 16 22 16Z" fill="#161616"/>
<path d="M12 18V22H8V18H12ZM12 16H8C7.46957 16 6.96086 16.2107 6.58579 16.5858C6.21071 16.9609 6 17.4696 6 18V22C6 22.5304 6.21071 23.0391 6.58579 23.4142C6.96086 23.7893 7.46957 24 8 24H12C12.5304 24 13.0391 23.7893 13.4142 23.4142C13.7893 23.0391 14 22.5304 14 22V18C14 17.4696 13.7893 16.9609 13.4142 16.5858C13.0391 16.2107 12.5304 16 12 16Z" fill="#161616"/>
</svg>
