<svg width="28" height="28" viewBox="0 0 28 28" fill="none" xmlns="http://www.w3.org/2000/svg">
<path d="M2 4H0V24H2V4Z" fill="#161616"/>
<path d="M6 2H4V26H6V2Z" fill="#161616"/>
<path d="M24 20H12V22H24V20Z" fill="#161616"/>
<path d="M24 14H12V16H24V14Z" fill="#161616"/>
<path d="M27.7 7.3L20.7 0.3C20.5 0.0999999 20.3 0 20 0H10C8.9 0 8 0.9 8 2V26C8 27.1 8.9 28 10 28H26C27.1 28 28 27.1 28 26V8C28 7.7 27.9 7.5 27.7 7.3ZM20 2.4L25.6 8H20V2.4ZM26 26H10V2H18V8C18 9.1 18.9 10 20 10H26V26Z" fill="#161616"/>
</svg>
