<svg width="24" height="28" viewBox="0 0 24 28" fill="none" xmlns="http://www.w3.org/2000/svg">
<path d="M22 28H20V25C19.9984 23.6744 19.4712 22.4035 18.5338 21.4662C17.5965 20.5288 16.3256 20.0016 15 20H9C7.6744 20.0016 6.40353 20.5288 5.46619 21.4662C4.52885 22.4035 4.00156 23.6744 4 25V28H2V25C2.00217 23.1442 2.74037 21.3649 4.05265 20.0526C5.36493 18.7404 7.14415 18.0022 9 18H15C16.8558 18.0022 18.6351 18.7404 19.9474 20.0526C21.2596 21.3649 21.9978 23.1442 22 25V28Z" fill="#161616"/>
<path d="M1 4C0.734784 4 0.48043 4.10536 0.292893 4.29289C0.105357 4.48043 0 4.73478 0 5V14H2V5C2 4.73478 1.89464 4.48043 1.70711 4.29289C1.51957 4.10536 1.26522 4 1 4Z" fill="#161616"/>
<path d="M0 0V2H5V9C5 10.8565 5.7375 12.637 7.05025 13.9497C8.36301 15.2625 10.1435 16 12 16C13.8565 16 15.637 15.2625 16.9497 13.9497C18.2625 12.637 19 10.8565 19 9V2H24V0H0ZM7 2H17V5H7V2ZM12 14C10.6739 14 9.40215 13.4732 8.46447 12.5355C7.52678 11.5979 7 10.3261 7 9V7H17V9C17 10.3261 16.4732 11.5979 15.5355 12.5355C14.5979 13.4732 13.3261 14 12 14Z" fill="#161616"/>
</svg>
