<svg width="38" height="38" viewBox="0 0 38 38" fill="none" xmlns="http://www.w3.org/2000/svg">
<rect width="38" height="38" fill="white" fill-opacity="0.01" style="mix-blend-mode:multiply"/>
<path d="M28.5 3.5625H9.5C8.87011 3.5625 8.26602 3.81272 7.82062 4.25812C7.37522 4.70352 7.125 5.30761 7.125 5.9375V32.0625C7.125 32.6924 7.37522 33.2965 7.82062 33.7419C8.26602 34.1873 8.87011 34.4375 9.5 34.4375H28.5C29.1299 34.4375 29.734 34.1873 30.1794 33.7419C30.6248 33.2965 30.875 32.6924 30.875 32.0625V5.9375C30.875 5.30761 30.6248 4.70352 30.1794 4.25812C29.734 3.81272 29.1299 3.5625 28.5 3.5625ZM28.5 5.9375V13.0625H9.5V5.9375H28.5ZM9.5 22.5625V15.4375H28.5V22.5625H9.5ZM9.5 32.0625V24.9375H28.5V32.0625H9.5Z" fill="#161616"/>
<path d="M13.0625 10.6875C13.7183 10.6875 14.25 10.1558 14.25 9.5C14.25 8.84416 13.7183 8.3125 13.0625 8.3125C12.4067 8.3125 11.875 8.84416 11.875 9.5C11.875 10.1558 12.4067 10.6875 13.0625 10.6875Z" fill="#161616"/>
<path d="M13.0625 20.1875C13.7183 20.1875 14.25 19.6558 14.25 19C14.25 18.3442 13.7183 17.8125 13.0625 17.8125C12.4067 17.8125 11.875 18.3442 11.875 19C11.875 19.6558 12.4067 20.1875 13.0625 20.1875Z" fill="#161616"/>
<path d="M13.0625 29.6875C13.7183 29.6875 14.25 29.1558 14.25 28.5C14.25 27.8442 13.7183 27.3125 13.0625 27.3125C12.4067 27.3125 11.875 27.8442 11.875 28.5C11.875 29.1558 12.4067 29.6875 13.0625 29.6875Z" fill="#161616"/>
</svg>
