<svg width="34" height="34" viewBox="0 0 34 34" fill="none" xmlns="http://www.w3.org/2000/svg">
<path d="M2.75 5.125H0.375V28.875H2.75V5.125Z" fill="#161616"/>
<path d="M7.5 2.75H5.125V31.25H7.5V2.75Z" fill="#161616"/>
<path d="M28.875 24.125H14.625V26.5H28.875V24.125Z" fill="#161616"/>
<path d="M28.875 17H14.625V19.375H28.875V17Z" fill="#161616"/>
<path d="M33.2688 9.04375L24.9563 0.73125C24.7188 0.49375 24.4813 0.375 24.125 0.375H12.25C10.9437 0.375 9.875 1.44375 9.875 2.75V31.25C9.875 32.5563 10.9437 33.625 12.25 33.625H31.25C32.5563 33.625 33.625 32.5563 33.625 31.25V9.875C33.625 9.51875 33.5063 9.28125 33.2688 9.04375ZM24.125 3.225L30.775 9.875H24.125V3.225ZM31.25 31.25H12.25V2.75H21.75V9.875C21.75 11.1813 22.8187 12.25 24.125 12.25H31.25V31.25Z" fill="#161616"/>
</svg>
