<svg width="28" height="26" viewBox="0 0 28 26" fill="none" xmlns="http://www.w3.org/2000/svg">
<path d="M14 4L15.912 7.703L20 8.297L17 11L18 15L14 12.75L10 15L11 11L8 8.297L12.2 7.703L14 4Z" fill="#161616"/>
<path d="M15.7358 26L14 25L18 18H24C24.2628 18.0004 24.523 17.949 24.7659 17.8487C25.0087 17.7483 25.2294 17.601 25.4152 17.4152C25.601 17.2294 25.7483 17.0087 25.8487 16.7659C25.949 16.523 26.0004 16.2628 26 16V4C26.0004 3.73723 25.949 3.47696 25.8487 3.2341C25.7483 2.99125 25.601 2.77059 25.4152 2.58479C25.2294 2.39898 25.0087 2.25168 24.7659 2.15133C24.523 2.05098 24.2628 1.99955 24 2H4C3.73723 1.99955 3.47696 2.05098 3.2341 2.15133C2.99125 2.25168 2.77059 2.39898 2.58479 2.58479C2.39898 2.77059 2.25168 2.99125 2.15133 3.2341C2.05098 3.47696 1.99955 3.73723 2 4V16C1.99955 16.2628 2.05098 16.523 2.15133 16.7659C2.25168 17.0087 2.39898 17.2294 2.58479 17.4152C2.77059 17.601 2.99125 17.7483 3.2341 17.8487C3.47696 17.949 3.73723 18.0004 4 18H13V20H4C3.47469 20.0001 2.9545 19.8967 2.46916 19.6957C1.98381 19.4947 1.54282 19.2001 1.17137 18.8286C0.799915 18.4572 0.505281 18.0162 0.304295 17.5308C0.103309 17.0455 -9.17739e-05 16.5253 1.80125e-07 16V4C-0.00015749 3.47467 0.103198 2.95445 0.304161 2.46908C0.505124 1.98371 0.799756 1.54269 1.17122 1.17122C1.54269 0.799756 1.98371 0.505124 2.46908 0.304161C2.95445 0.103198 3.47467 -0.00015749 4 1.80124e-07H24C24.5253 -0.00015749 25.0455 0.103198 25.5309 0.304161C26.0163 0.505124 26.4573 0.799756 26.8288 1.17122C27.2002 1.54269 27.4949 1.98371 27.6958 2.46908C27.8968 2.95445 28.0002 3.47467 28 4V16C28.0001 16.5253 27.8967 17.0455 27.6957 17.5308C27.4947 18.0162 27.2001 18.4572 26.8286 18.8286C26.4572 19.2001 26.0162 19.4947 25.5308 19.6957C25.0455 19.8967 24.5253 20.0001 24 20H19.1646L15.7358 26Z" fill="#161616"/>
</svg>
