<svg width="24" height="24" viewBox="0 0 24 24" fill="none" xmlns="http://www.w3.org/2000/svg">
<path d="M13 18V10H9V12H11V18H8V20H16V18H13Z" fill="#161616"/>
<path d="M12 4C11.7033 4 11.4133 4.08797 11.1666 4.2528C10.92 4.41762 10.7277 4.65189 10.6142 4.92597C10.5006 5.20006 10.4709 5.50166 10.5288 5.79264C10.5867 6.08361 10.7296 6.35088 10.9393 6.56066C11.1491 6.77044 11.4164 6.9133 11.7074 6.97118C11.9983 7.02906 12.2999 6.99935 12.574 6.88582C12.8481 6.77229 13.0824 6.58003 13.2472 6.33335C13.412 6.08668 13.5 5.79667 13.5 5.5C13.5 5.10218 13.342 4.72064 13.0607 4.43934C12.7794 4.15804 12.3978 4 12 4Z" fill="#161616"/>
<path d="M22 24H2C1.46975 23.9994 0.9614 23.7885 0.586459 23.4135C0.211518 23.0386 0.000608734 22.5302 0 22V2C0.000608734 1.46975 0.211518 0.9614 0.586459 0.586459C0.9614 0.211518 1.46975 0.000608734 2 0H22C22.5302 0.000608734 23.0386 0.211518 23.4135 0.586459C23.7885 0.9614 23.9994 1.46975 24 2V22C23.9994 22.5302 23.7885 23.0386 23.4135 23.4135C23.0386 23.7885 22.5302 23.9994 22 24ZM2 2V22H22V2H2Z" fill="#161616"/>
</svg>
