<svg width="28" height="29" viewBox="0 0 28 29" fill="none" xmlns="http://www.w3.org/2000/svg">
<path d="M16 29H18V27C18.0002 26.7348 18.1056 26.4806 18.2931 26.2931C18.4806 26.1056 18.7348 26.0002 19 26H25C25.2652 26.0002 25.5194 26.1056 25.7069 26.2931C25.8944 26.4806 25.9998 26.7348 26 27V29H28V27C27.9991 26.2046 27.6828 25.4421 27.1204 24.8796C26.5579 24.3172 25.7954 24.0009 25 24H19C18.2046 24.0009 17.4421 24.3172 16.8796 24.8796C16.3172 25.4421 16.0009 26.2046 16 27V29Z" fill="white"/>
<path d="M22 23C21.2089 23 20.4355 22.7654 19.7777 22.3259C19.1199 21.8864 18.6072 21.2616 18.3045 20.5307C18.0017 19.7998 17.9225 18.9956 18.0769 18.2196C18.2312 17.4437 18.6122 16.731 19.1716 16.1716C19.731 15.6122 20.4437 15.2312 21.2196 15.0769C21.9956 14.9225 22.7998 15.0017 23.5307 15.3045C24.2616 15.6072 24.8864 16.1199 25.3259 16.7777C25.7654 17.4355 26 18.2089 26 19C25.999 20.0606 25.5772 21.0774 24.8273 21.8273C24.0774 22.5772 23.0605 22.999 22 23ZM22 17C21.6044 17 21.2178 17.1173 20.8889 17.3371C20.56 17.5568 20.3036 17.8692 20.1522 18.2346C20.0009 18.6001 19.9613 19.0022 20.0384 19.3902C20.1156 19.7781 20.3061 20.1345 20.5858 20.4142C20.8655 20.6939 21.2219 20.8844 21.6098 20.9616C21.9978 21.0387 22.3999 20.9991 22.7654 20.8478C23.1308 20.6964 23.4432 20.44 23.6629 20.1111C23.8827 19.7822 24 19.3956 24 19C23.9993 18.4698 23.7883 17.9615 23.4134 17.5866C23.0385 17.2117 22.5302 17.0007 22 17Z" fill="white"/>
<path d="M0 29H2V27C2.00024 26.7349 2.10567 26.4806 2.29316 26.2932C2.48064 26.1057 2.73486 26.0002 3 26H9C9.26514 26.0002 9.51936 26.1057 9.70684 26.2932C9.89433 26.4806 9.99976 26.7349 10 27V29H12V27C11.9991 26.2046 11.6828 25.4421 11.1204 24.8796C10.5579 24.3172 9.79538 24.0009 9 24H3C2.20462 24.0009 1.44206 24.3172 0.879644 24.8796C0.317225 25.4421 0.000873479 26.2046 0 27V29Z" fill="white"/>
<path d="M6 23C5.20887 23 4.43552 22.7654 3.77772 22.3259C3.11992 21.8864 2.60723 21.2616 2.30448 20.5307C2.00173 19.7998 1.92252 18.9956 2.07686 18.2196C2.2312 17.4437 2.61216 16.731 3.17157 16.1716C3.73098 15.6122 4.44371 15.2312 5.21964 15.0769C5.99556 14.9225 6.79983 15.0017 7.53073 15.3045C8.26164 15.6072 8.88635 16.1199 9.32588 16.7777C9.7654 17.4355 10 18.2089 10 19C9.99889 20.0605 9.5771 21.0773 8.8272 21.8272C8.07729 22.5771 7.06052 22.9989 6 23ZM6 17C5.60444 17 5.21776 17.1173 4.88886 17.3371C4.55996 17.5568 4.30362 17.8692 4.15224 18.2346C4.00087 18.6001 3.96126 19.0022 4.03843 19.3902C4.1156 19.7781 4.30608 20.1345 4.58579 20.4142C4.86549 20.6939 5.22186 20.8844 5.60982 20.9616C5.99778 21.0387 6.39991 20.9991 6.76537 20.8478C7.13082 20.6964 7.44318 20.44 7.66294 20.1111C7.8827 19.7822 8 19.3956 8 19C7.99939 18.4698 7.78848 17.9614 7.41354 17.5865C7.0386 17.2115 6.53025 17.0006 6 17Z" fill="white"/>
<path d="M16 14H18V12C18.0002 11.7349 18.1057 11.4806 18.2932 11.2932C18.4806 11.1057 18.7349 11.0002 19 11H25C25.2651 11.0002 25.5194 11.1057 25.7068 11.2932C25.8943 11.4806 25.9998 11.7349 26 12V14H28V12C27.9991 11.2046 27.6828 10.4421 27.1204 9.87965C26.5579 9.31723 25.7954 9.00088 25 9H19C18.2046 9.00088 17.4421 9.31723 16.8796 9.87965C16.3172 10.4421 16.0009 11.2046 16 12V14Z" fill="white"/>
<path d="M22 8C21.2089 8 20.4355 7.76541 19.7777 7.32588C19.1199 6.88635 18.6072 6.26164 18.3045 5.53074C18.0017 4.79983 17.9225 3.99556 18.0769 3.21964C18.2312 2.44372 18.6122 1.73098 19.1716 1.17157C19.731 0.612165 20.4437 0.231202 21.2196 0.0768607C21.9956 -0.0774802 22.7998 0.00173312 23.5307 0.304484C24.2616 0.607234 24.8864 1.11992 25.3259 1.77772C25.7654 2.43552 26 3.20888 26 4C25.9989 5.06053 25.5771 6.0773 24.8272 6.8272C24.0773 7.57711 23.0605 7.99889 22 8ZM22 2C21.6044 2 21.2178 2.1173 20.8889 2.33706C20.56 2.55683 20.3036 2.86918 20.1522 3.23463C20.0009 3.60009 19.9613 4.00222 20.0384 4.39018C20.1156 4.77814 20.3061 5.13451 20.5858 5.41422C20.8655 5.69392 21.2219 5.8844 21.6098 5.96157C21.9978 6.03874 22.3999 5.99914 22.7654 5.84776C23.1308 5.69639 23.4432 5.44004 23.6629 5.11114C23.8827 4.78224 24 4.39556 24 4C23.9994 3.46976 23.7885 2.9614 23.4135 2.58646C23.0386 2.21152 22.5302 2.00061 22 2Z" fill="white"/>
<path d="M0 14H2V12C2.00034 11.7349 2.10581 11.4807 2.29327 11.2933C2.48073 11.1058 2.73489 11.0003 3 11H9C9.26511 11.0003 9.51927 11.1058 9.70673 11.2933C9.89419 11.4807 9.99966 11.7349 10 12V14H12V12C11.9991 11.2046 11.6828 10.4421 11.1204 9.87965C10.5579 9.31723 9.79538 9.00088 9 9H3C2.20462 9.00088 1.44206 9.31723 0.879644 9.87965C0.317225 10.4421 0.000873479 11.2046 0 12V14Z" fill="white"/>
<path d="M6 8C5.20887 8 4.43552 7.76541 3.77772 7.32588C3.11992 6.88635 2.60723 6.26164 2.30448 5.53074C2.00173 4.79983 1.92252 3.99556 2.07686 3.21964C2.2312 2.44372 2.61216 1.73098 3.17157 1.17157C3.73098 0.612165 4.44371 0.231202 5.21964 0.0768607C5.99556 -0.0774802 6.79983 0.00173312 7.53073 0.304484C8.26164 0.607234 8.88635 1.11992 9.32588 1.77772C9.7654 2.43552 10 3.20888 10 4C9.99881 5.0605 9.577 6.07723 8.82711 6.82711C8.07722 7.577 7.0605 7.99881 6 8ZM6 2C5.60444 2 5.21776 2.1173 4.88886 2.33706C4.55996 2.55683 4.30362 2.86918 4.15224 3.23463C4.00087 3.60009 3.96126 4.00222 4.03843 4.39018C4.1156 4.77814 4.30608 5.13451 4.58579 5.41422C4.86549 5.69392 5.22186 5.8844 5.60982 5.96157C5.99778 6.03874 6.39991 5.99914 6.76537 5.84776C7.13082 5.69639 7.44318 5.44004 7.66294 5.11114C7.8827 4.78224 8 4.39556 8 4C7.99947 3.46973 7.78859 2.96133 7.41363 2.58637C7.03867 2.21142 6.53027 2.00053 6 2Z" fill="white"/>
</svg>
