<svg width="28" height="28" viewBox="0 0 28 28" fill="none" xmlns="http://www.w3.org/2000/svg">
<path d="M24 20C23.2937 20.0035 22.602 20.2006 22 20.57L18.91 17.47C19.629 16.4558 20.0152 15.2432 20.0152 14C20.0152 12.7568 19.629 11.5442 18.91 10.53L22 7.43C22.602 7.7994 23.2937 7.99655 24 8C24.7911 8 25.5645 7.76541 26.2223 7.32588C26.8801 6.88635 27.3928 6.26164 27.6955 5.53074C27.9983 4.79983 28.0775 3.99556 27.9231 3.21964C27.7688 2.44372 27.3878 1.73098 26.8284 1.17157C26.269 0.612165 25.5563 0.231202 24.7804 0.0768607C24.0044 -0.0774802 23.2002 0.00173312 22.4693 0.304484C21.7384 0.607234 21.1136 1.11992 20.6741 1.77772C20.2346 2.43552 20 3.20888 20 4C20.0035 4.70626 20.2006 5.39804 20.57 6L17.47 9.09C16.4558 8.371 15.2432 7.98481 14 7.98481C12.7568 7.98481 11.5442 8.371 10.53 9.09L7.43 6C7.7994 5.39804 7.99655 4.70626 8 4C8 3.20888 7.76541 2.43552 7.32588 1.77772C6.88635 1.11992 6.26164 0.607234 5.53074 0.304484C4.79983 0.00173312 3.99556 -0.0774802 3.21964 0.0768607C2.44372 0.231202 1.73098 0.612165 1.17157 1.17157C0.612165 1.73098 0.231202 2.44372 0.0768607 3.21964C-0.0774802 3.99556 0.00173312 4.79983 0.304484 5.53074C0.607234 6.26164 1.11992 6.88635 1.77772 7.32588C2.43552 7.76541 3.20888 8 4 8C4.70626 7.99655 5.39804 7.7994 6 7.43L9.09 10.53C8.371 11.5442 7.98481 12.7568 7.98481 14C7.98481 15.2432 8.371 16.4558 9.09 17.47L6 20.57C5.39804 20.2006 4.70626 20.0035 4 20C3.20888 20 2.43552 20.2346 1.77772 20.6741C1.11992 21.1136 0.607234 21.7384 0.304484 22.4693C0.00173312 23.2002 -0.0774802 24.0044 0.0768607 24.7804C0.231202 25.5563 0.612165 26.269 1.17157 26.8284C1.73098 27.3878 2.44372 27.7688 3.21964 27.9231C3.99556 28.0775 4.79983 27.9983 5.53074 27.6955C6.26164 27.3928 6.88635 26.8801 7.32588 26.2223C7.76541 25.5645 8 24.7911 8 24C7.99655 23.2937 7.7994 22.602 7.43 22L10.53 18.91C11.5442 19.629 12.7568 20.0152 14 20.0152C15.2432 20.0152 16.4558 19.629 17.47 18.91L20.57 22C20.2006 22.602 20.0035 23.2937 20 24C20 24.7911 20.2346 25.5645 20.6741 26.2223C21.1136 26.8801 21.7384 27.3928 22.4693 27.6955C23.2002 27.9983 24.0044 28.0775 24.7804 27.9231C25.5563 27.7688 26.269 27.3878 26.8284 26.8284C27.3878 26.269 27.7688 25.5563 27.9231 24.7804C28.0775 24.0044 27.9983 23.2002 27.6955 22.4693C27.3928 21.7384 26.8801 21.1136 26.2223 20.6741C25.5645 20.2346 24.7911 20 24 20ZM24 2C24.3956 2 24.7822 2.1173 25.1111 2.33706C25.44 2.55683 25.6964 2.86918 25.8478 3.23463C25.9991 3.60009 26.0387 4.00222 25.9616 4.39018C25.8844 4.77814 25.6939 5.13451 25.4142 5.41422C25.1345 5.69392 24.7781 5.8844 24.3902 5.96157C24.0022 6.03874 23.6001 5.99914 23.2346 5.84776C22.8692 5.69639 22.5568 5.44004 22.3371 5.11114C22.1173 4.78224 22 4.39556 22 4C22 3.46957 22.2107 2.96086 22.5858 2.58579C22.9609 2.21072 23.4696 2 24 2V2ZM2 4C2 3.60444 2.1173 3.21776 2.33706 2.88886C2.55683 2.55996 2.86918 2.30362 3.23463 2.15224C3.60009 2.00087 4.00222 1.96126 4.39018 2.03843C4.77814 2.1156 5.13451 2.30608 5.41422 2.58579C5.69392 2.86549 5.8844 3.22186 5.96157 3.60982C6.03874 3.99778 5.99914 4.39992 5.84776 4.76537C5.69639 5.13082 5.44004 5.44318 5.11114 5.66294C4.78224 5.8827 4.39556 6 4 6C3.46957 6 2.96086 5.78929 2.58579 5.41422C2.21072 5.03914 2 4.53043 2 4V4ZM4 26C3.60444 26 3.21776 25.8827 2.88886 25.6629C2.55996 25.4432 2.30362 25.1308 2.15224 24.7654C2.00087 24.3999 1.96126 23.9978 2.03843 23.6098C2.1156 23.2219 2.30608 22.8655 2.58579 22.5858C2.86549 22.3061 3.22186 22.1156 3.60982 22.0384C3.99778 21.9613 4.39992 22.0009 4.76537 22.1522C5.13082 22.3036 5.44318 22.56 5.66294 22.8889C5.8827 23.2178 6 23.6044 6 24C6 24.5304 5.78929 25.0391 5.41422 25.4142C5.03914 25.7893 4.53043 26 4 26ZM14 18C13.2089 18 12.4355 17.7654 11.7777 17.3259C11.1199 16.8864 10.6072 16.2616 10.3045 15.5307C10.0017 14.7998 9.92252 13.9956 10.0769 13.2196C10.2312 12.4437 10.6122 11.731 11.1716 11.1716C11.731 10.6122 12.4437 10.2312 13.2196 10.0769C13.9956 9.92252 14.7998 10.0017 15.5307 10.3045C16.2616 10.6072 16.8864 11.1199 17.3259 11.7777C17.7654 12.4355 18 13.2089 18 14C18 15.0609 17.5786 16.0783 16.8284 16.8284C16.0783 17.5786 15.0609 18 14 18ZM24 26C23.6044 26 23.2178 25.8827 22.8889 25.6629C22.56 25.4432 22.3036 25.1308 22.1522 24.7654C22.0009 24.3999 21.9613 23.9978 22.0384 23.6098C22.1156 23.2219 22.3061 22.8655 22.5858 22.5858C22.8655 22.3061 23.2219 22.1156 23.6098 22.0384C23.9978 21.9613 24.3999 22.0009 24.7654 22.1522C25.1308 22.3036 25.4432 22.56 25.6629 22.8889C25.8827 23.2178 26 23.6044 26 24C26 24.5304 25.7893 25.0391 25.4142 25.4142C25.0391 25.7893 24.5304 26 24 26Z" fill="white"/>
</svg>
