<svg width="34" height="24" viewBox="0 0 34 24" fill="none" xmlns="http://www.w3.org/2000/svg">
<path d="M19.375 10.8125H14.625V6.0625H12.25V10.8125H7.5V13.1875H12.25V17.9375H14.625V13.1875H19.375V10.8125Z" fill="#161616"/>
<path d="M22.9375 23.875H2.75C2.12033 23.8743 1.51666 23.6238 1.07142 23.1786C0.626177 22.7333 0.375723 22.1297 0.375 21.5V2.5C0.375723 1.87033 0.626177 1.26666 1.07142 0.82142C1.51666 0.376177 2.12033 0.125723 2.75 0.125H22.9375C23.5672 0.125723 24.1708 0.376177 24.6161 0.82142C25.0613 1.26666 25.3118 1.87033 25.3125 2.5V7.31721L31.7474 2.72159C31.9249 2.59461 32.1339 2.51902 32.3516 2.50311C32.5692 2.4872 32.787 2.5316 32.9811 2.63143C33.1751 2.73125 33.3379 2.88264 33.4515 3.06895C33.5651 3.25526 33.6251 3.46929 33.625 3.6875V20.3125C33.6251 20.5307 33.5651 20.7448 33.4515 20.9311C33.3379 21.1174 33.1752 21.2688 32.9811 21.3687C32.7871 21.4685 32.5693 21.5129 32.3516 21.497C32.134 21.4811 31.9249 21.4055 31.7474 21.2785L25.3125 16.6828V21.5C25.3118 22.1297 25.0613 22.7333 24.6161 23.1786C24.1708 23.6238 23.5672 23.8743 22.9375 23.875ZM2.75 2.5V21.5012L22.9375 21.5V14.375C22.9374 14.1568 22.9974 13.9427 23.111 13.7564C23.2246 13.5701 23.3873 13.4187 23.5814 13.3188C23.7754 13.219 23.9932 13.1746 24.2109 13.1905C24.4285 13.2064 24.6376 13.282 24.8151 13.409L31.25 18.0047V5.99529L24.8151 10.5909C24.6376 10.7179 24.4286 10.7935 24.2109 10.8094C23.9933 10.8253 23.7755 10.7809 23.5814 10.6811C23.3874 10.5812 23.2246 10.4299 23.111 10.2435C22.9974 10.0572 22.9374 9.84321 22.9375 9.625V2.5H2.75Z" fill="#161616"/>
</svg>
