<svg width="32" height="12" viewBox="0 0 32 12" fill="none" xmlns="http://www.w3.org/2000/svg">
<path d="M30 12H25V10H30V7H27C25.8972 7 25 6.1028 25 5V2C25 0.8972 25.8972 0 27 0H32V2H27V5H30C31.1028 5 32 5.8972 32 7V10C32 11.1028 31.1028 12 30 12Z" fill="white"/>
<path d="M21 12H18C16.8972 12 16 11.1028 16 10V2C16 0.8972 16.8972 0 18 0H21C22.1028 0 23 0.8972 23 2V10C23 11.1028 22.1028 12 21 12ZM18 2V10H21V2H18Z" fill="white"/>
<path d="M11.9458 0L7.9458 12H10.0542L14.0542 0H11.9458Z" fill="white"/>
<path d="M6 12H0V9.6973L3.7981 4H0V2H6V4.3027L2.2019 10H6V12Z" fill="white"/>
</svg>
