<svg width="200" height="33" viewBox="0 0 200 33" fill="none" xmlns="http://www.w3.org/2000/svg">
<path d="M64.3915 8.46975L53.5658 32.2491H58.0641L60.3416 27.2171H71.9359L74.1779 32.2491H78.7473L67.8861 8.46975H64.3986H64.3915ZM62.0569 23.3594L66.1708 14.2064L70.2278 23.3594H62.0569ZM75.7722 8.46975H95.4021V12.363H87.7224V32.2491H83.452V12.363H75.7722V8.46975ZM107.651 8.46975H113.267V12.427H107.786C103.452 12.427 101.338 14.1993 101.338 17.8434V32.2491H97.0676V17.8434C97.0676 11.9715 101.025 8.46975 107.644 8.46975M133.694 8.46975H137.964V21.9786C137.964 28.3132 133.459 32.7402 127.011 32.7402C120.562 32.7402 116.057 28.3132 116.057 21.9786V8.46975H120.327V21.9786C120.327 25.4021 122.391 28.847 127.011 28.847C131.63 28.847 133.694 25.395 133.694 21.9786V8.46975ZM160.221 8.46975H164.783L154.27 32.2491H150.982L140.399 8.46975H145.068L152.662 26.2349L160.221 8.46975ZM167.665 8.46975H171.936V32.2491H167.665V8.46975ZM189.132 8.46975H185.644L174.818 32.2491H179.317L181.594 27.2171H193.189L195.431 32.2491H200L189.132 8.46975ZM183.31 23.3594L187.423 14.2064L191.48 23.3594H183.317H183.31ZM36.669 12.0925H30.1851V10.3559C30.1851 6.69039 32.8968 4.02847 36.6406 4.02847H45.2242V0H36.6406C30.6121 0 26.0427 4.46975 26.0427 10.3274V12.0925H21.2527V0.227758H2.47687V4.02847H17.1103V12.0925H10.6263C4.42705 12.0925 0 16.7189 0 22.4128C0 28.1068 4.42705 32.7402 10.6263 32.7402C16.8256 32.7402 21.2527 28.2847 21.2527 22.427V16.121H26.0427V22.427C26.0427 28.2847 30.6121 32.7402 36.669 32.7402C42.726 32.7402 47.2954 28.2847 47.2954 22.4128C47.2954 16.5409 42.8683 12.0854 36.669 12.0854M17.1103 22.4128C17.1103 26.0498 14.3986 28.7117 10.6263 28.7117C6.85409 28.7117 4.14235 26.0498 4.14235 22.4128C4.14235 18.7758 6.71174 16.1139 10.6263 16.1139H17.1103V22.4128ZM36.669 28.7117C32.8968 28.7117 30.1851 26.0498 30.1851 22.4128V16.1139H36.669C40.5765 16.1139 43.153 18.9395 43.153 22.4128C43.153 25.8861 40.5836 28.7117 36.669 28.7117Z" fill="white"/>
</svg>
