<svg width="24" height="26" viewBox="0 0 24 26" fill="none" xmlns="http://www.w3.org/2000/svg">
<path d="M22 2H18V0H16V2H8V0H6V2H2C1.46977 2.00066 0.961447 2.21159 0.586517 2.58652C0.211588 2.96145 0.000661548 3.46977 0 4V24C0.000661548 24.5302 0.211588 25.0386 0.586517 25.4135C0.961447 25.7884 1.46977 25.9993 2 26H22C22.5302 25.9993 23.0386 25.7884 23.4135 25.4135C23.7884 25.0386 23.9993 24.5302 24 24V4C23.9993 3.46977 23.7884 2.96145 23.4135 2.58652C23.0386 2.21159 22.5302 2.00066 22 2ZM2 4H6V6H8V4H16V6H18V4H22V8H2V4ZM2 10H7V16H2V10ZM15 24H9V18H15V24ZM15 16H9V10H15V16ZM17 24V18H22L22.0012 24H17Z" fill="black"/>
</svg>
