<svg width="20" height="26" viewBox="0 0 20 26" fill="none" xmlns="http://www.w3.org/2000/svg">
<path d="M18 0H2C1.46957 0 0.960859 0.210714 0.585786 0.585786C0.210714 0.960859 0 1.46957 0 2V24C0 24.5304 0.210714 25.0391 0.585786 25.4142C0.960859 25.7893 1.46957 26 2 26H18C18.5304 26 19.0391 25.7893 19.4142 25.4142C19.7893 25.0391 20 24.5304 20 24V2C20 1.46957 19.7893 0.960859 19.4142 0.585786C19.0391 0.210714 18.5304 0 18 0ZM18 2V8H2V2H18ZM2 16V10H18V16H2ZM2 24V18H18V24H2Z" fill="#161616"/>
<path d="M5 6C5.55228 6 6 5.55228 6 5C6 4.44772 5.55228 4 5 4C4.44772 4 4 4.44772 4 5C4 5.55228 4.44772 6 5 6Z" fill="#161616"/>
<path d="M5 14C5.55228 14 6 13.5523 6 13C6 12.4477 5.55228 12 5 12C4.44772 12 4 12.4477 4 13C4 13.5523 4.44772 14 5 14Z" fill="#161616"/>
<path d="M5 22C5.55228 22 6 21.5523 6 21C6 20.4477 5.55228 20 5 20C4.44772 20 4 20.4477 4 21C4 21.5523 4.44772 22 5 22Z" fill="#161616"/>
</svg>
