<svg width="28" height="14" viewBox="0 0 28 14" fill="none" xmlns="http://www.w3.org/2000/svg">
<path d="M21.6246 13.5891C20.7843 13.5978 19.9512 13.4336 19.1771 13.1068C18.403 12.7799 17.7043 12.2973 17.1246 11.6891L14.0246 8.48906L10.9246 11.6891C9.71479 12.8901 8.07924 13.564 6.37456 13.564C4.66987 13.564 3.03433 12.8901 1.82456 11.6891C0.664937 10.3983 0.0237921 8.72421 0.0245591 6.98906C0.012974 5.23307 0.69592 3.54368 1.92456 2.28906C2.51373 1.69495 3.21471 1.22338 3.98706 0.901562C4.75941 0.579748 5.58784 0.414062 6.42456 0.414062C7.26127 0.414062 8.08971 0.579748 8.86206 0.901562C9.63441 1.22338 10.3354 1.69495 10.9246 2.28906L14.0246 5.48906L17.1246 2.28906C17.7137 1.69495 18.4147 1.22338 19.1871 0.901562C19.9594 0.579748 20.7878 0.414062 21.6246 0.414062C22.4613 0.414062 23.2897 0.579748 24.0621 0.901562C24.8344 1.22338 25.5354 1.69495 26.1246 2.28906C27.3284 3.55778 27.9995 5.24008 27.9995 6.98906C27.9995 8.73804 27.3284 10.4203 26.1246 11.6891C24.9261 12.8797 23.3136 13.5605 21.6246 13.5891ZM15.4246 6.98906L18.5246 10.2891C19.3496 11.1059 20.4636 11.5641 21.6246 11.5641C22.7855 11.5641 23.8996 11.1059 24.7246 10.2891C25.5451 9.38584 25.9997 8.20934 25.9997 6.98906C25.9997 5.76879 25.5451 4.59228 24.7246 3.68906C23.8996 2.87225 22.7855 2.41405 21.6246 2.41405C20.4636 2.41405 19.3496 2.87225 18.5246 3.68906L15.4246 6.98906ZM6.42456 2.38906C5.84582 2.37805 5.27115 2.48798 4.73734 2.71184C4.20353 2.9357 3.72233 3.26854 3.32456 3.68906C2.48914 4.58486 2.02457 5.76417 2.02457 6.98906C2.02457 8.21396 2.48914 9.39327 3.32456 10.2891C4.14956 11.1059 5.2636 11.5641 6.42456 11.5641C7.58551 11.5641 8.69955 11.1059 9.52456 10.2891L12.6246 6.98906L9.52456 3.68906C8.68318 2.89396 7.5814 2.43192 6.42456 2.38906Z" fill="#161616"/>
</svg>
