<svg width="30" height="28" viewBox="0 0 30 28" fill="none" xmlns="http://www.w3.org/2000/svg">
<path d="M25 12H23V14H25C25.7954 14.0009 26.5579 14.3172 27.1204 14.8796C27.6828 15.4421 27.9991 16.2046 28 17V21H30V17C29.9985 15.6744 29.4712 14.4035 28.5338 13.4662C27.5965 12.5288 26.3256 12.0015 25 12Z" fill="#161616"/>
<path d="M23 2C23.5933 2 24.1734 2.17595 24.6667 2.50559C25.1601 2.83524 25.5446 3.30377 25.7716 3.85195C25.9987 4.40013 26.0581 5.00333 25.9424 5.58527C25.8266 6.16721 25.5409 6.70176 25.1213 7.12132C24.7018 7.54088 24.1672 7.8266 23.5853 7.94236C23.0033 8.05811 22.4001 7.9987 21.8519 7.77164C21.3038 7.54458 20.8352 7.16006 20.5056 6.66671C20.1759 6.17336 20 5.59334 20 5C20 4.20435 20.3161 3.44129 20.8787 2.87868C21.4413 2.31607 22.2044 2 23 2ZM23 0C22.0111 0 21.0444 0.293245 20.2221 0.842652C19.3999 1.39206 18.759 2.17295 18.3806 3.08658C18.0022 4.00021 17.9031 5.00555 18.0961 5.97545C18.289 6.94536 18.7652 7.83627 19.4645 8.53553C20.1637 9.2348 21.0546 9.711 22.0245 9.90393C22.9945 10.0969 23.9998 9.99784 24.9134 9.6194C25.827 9.24096 26.6079 8.6001 27.1573 7.77785C27.7068 6.95561 28 5.98891 28 5C28 3.67392 27.4732 2.40215 26.5355 1.46447C25.5979 0.526784 24.3261 0 23 0Z" fill="#161616"/>
<path d="M22 28H20V26C19.9991 25.2046 19.6828 24.4421 19.1204 23.8796C18.5579 23.3172 17.7954 23.0009 17 23H13C12.2046 23.0009 11.4421 23.3172 10.8796 23.8796C10.3172 24.4421 10.0009 25.2046 10 26V28H8V26C8.00156 24.6744 8.52885 23.4035 9.46619 22.4662C10.4035 21.5288 11.6744 21.0016 13 21H17C18.3256 21.0016 19.5965 21.5288 20.5338 22.4662C21.4712 23.4035 21.9984 24.6744 22 26V28Z" fill="#161616"/>
<path d="M15 11C15.5933 11 16.1734 11.1759 16.6667 11.5056C17.1601 11.8352 17.5446 12.3038 17.7716 12.8519C17.9987 13.4001 18.0581 14.0033 17.9424 14.5853C17.8266 15.1672 17.5409 15.7018 17.1213 16.1213C16.7018 16.5409 16.1672 16.8266 15.5853 16.9424C15.0033 17.0581 14.4001 16.9987 13.8519 16.7716C13.3038 16.5446 12.8352 16.1601 12.5056 15.6667C12.1759 15.1734 12 14.5933 12 14C12 13.2044 12.3161 12.4413 12.8787 11.8787C13.4413 11.3161 14.2044 11 15 11ZM15 9C14.0111 9 13.0444 9.29325 12.2221 9.84265C11.3999 10.3921 10.759 11.173 10.3806 12.0866C10.0022 13.0002 9.90315 14.0055 10.0961 14.9755C10.289 15.9454 10.7652 16.8363 11.4645 17.5355C12.1637 18.2348 13.0546 18.711 14.0245 18.9039C14.9945 19.0969 15.9998 18.9978 16.9134 18.6194C17.827 18.241 18.6079 17.6001 19.1573 16.7779C19.7068 15.9556 20 14.9889 20 14C20 12.6739 19.4732 11.4021 18.5355 10.4645C17.5979 9.52678 16.3261 9 15 9Z" fill="#161616"/>
<path d="M7 12H5C3.6744 12.0016 2.40353 12.5288 1.46619 13.4662C0.528847 14.4035 0.00156145 15.6744 0 17V21H2V17C2.00087 16.2046 2.31722 15.4421 2.87964 14.8796C3.44206 14.3172 4.20462 14.0009 5 14H7V12Z" fill="#161616"/>
<path d="M7 2C7.59334 2 8.17336 2.17595 8.66671 2.50559C9.16006 2.83524 9.54458 3.30377 9.77164 3.85195C9.9987 4.40013 10.0581 5.00333 9.94236 5.58527C9.8266 6.16721 9.54088 6.70176 9.12132 7.12132C8.70176 7.54088 8.16721 7.8266 7.58527 7.94236C7.00333 8.05811 6.40013 7.9987 5.85195 7.77164C5.30377 7.54458 4.83524 7.16006 4.50559 6.66671C4.17595 6.17336 4 5.59334 4 5C4 4.20435 4.31607 3.44129 4.87868 2.87868C5.44129 2.31607 6.20435 2 7 2ZM7 0C6.01109 0 5.04439 0.293245 4.22215 0.842652C3.3999 1.39206 2.75904 2.17295 2.3806 3.08658C2.00216 4.00021 1.90315 5.00555 2.09607 5.97545C2.289 6.94536 2.7652 7.83627 3.46447 8.53553C4.16373 9.2348 5.05464 9.711 6.02455 9.90393C6.99445 10.0969 7.99979 9.99784 8.91342 9.6194C9.82705 9.24096 10.6079 8.6001 11.1573 7.77785C11.7068 6.95561 12 5.98891 12 5C12 3.67392 11.4732 2.40215 10.5355 1.46447C9.59785 0.526784 8.32608 0 7 0Z" fill="#161616"/>
</svg>
