<svg width="38" height="38" viewBox="0 0 38 38" fill="none" xmlns="http://www.w3.org/2000/svg">
<rect width="38" height="38" fill="white" style="mix-blend-mode:multiply"/>
<path d="M30.875 26.125C30.0363 26.1291 29.2148 26.3632 28.5 26.8019L24.8306 23.1206C25.6844 21.9162 26.143 20.4763 26.143 19C26.143 17.5237 25.6844 16.0838 24.8306 14.8794L28.5 11.1981C29.2148 11.6368 30.0363 11.8709 30.875 11.875C31.8145 11.875 32.7328 11.5964 33.514 11.0745C34.2951 10.5525 34.9039 9.8107 35.2634 8.94275C35.6229 8.0748 35.717 7.11973 35.5337 6.19832C35.3505 5.27691 34.8981 4.43054 34.2338 3.76624C33.5695 3.10195 32.7231 2.64955 31.8017 2.46627C30.8803 2.28299 29.9252 2.37706 29.0573 2.73657C28.1893 3.09609 27.4475 3.70491 26.9255 4.48604C26.4036 5.26718 26.125 6.18554 26.125 7.125C26.1291 7.96368 26.3632 8.78517 26.8019 9.5L23.1206 13.1694C21.9162 12.3156 20.4763 11.857 19 11.857C17.5237 11.857 16.0838 12.3156 14.8794 13.1694L11.1981 9.5C11.6368 8.78517 11.8709 7.96368 11.875 7.125C11.875 6.18554 11.5964 5.26718 11.0745 4.48604C10.5525 3.70491 9.8107 3.09609 8.94275 2.73657C8.0748 2.37706 7.11973 2.28299 6.19832 2.46627C5.27691 2.64955 4.43054 3.10195 3.76624 3.76624C3.10195 4.43054 2.64955 5.27691 2.46627 6.19832C2.28299 7.11973 2.37706 8.0748 2.73657 8.94275C3.09609 9.8107 3.70491 10.5525 4.48604 11.0745C5.26718 11.5964 6.18554 11.875 7.125 11.875C7.96368 11.8709 8.78517 11.6368 9.5 11.1981L13.1694 14.8794C12.3156 16.0838 11.857 17.5237 11.857 19C11.857 20.4763 12.3156 21.9162 13.1694 23.1206L9.5 26.8019C8.78517 26.3632 7.96368 26.1291 7.125 26.125C6.18554 26.125 5.26718 26.4036 4.48604 26.9255C3.70491 27.4475 3.09609 28.1893 2.73657 29.0573C2.37706 29.9252 2.28299 30.8803 2.46627 31.8017C2.64955 32.7231 3.10195 33.5695 3.76624 34.2338C4.43054 34.8981 5.27691 35.3505 6.19832 35.5337C7.11973 35.717 8.0748 35.6229 8.94275 35.2634C9.8107 34.9039 10.5525 34.2951 11.0745 33.514C11.5964 32.7328 11.875 31.8145 11.875 30.875C11.8709 30.0363 11.6368 29.2148 11.1981 28.5L14.8794 24.8306C16.0838 25.6844 17.5237 26.143 19 26.143C20.4763 26.143 21.9162 25.6844 23.1206 24.8306L26.8019 28.5C26.3632 29.2148 26.1291 30.0363 26.125 30.875C26.125 31.8145 26.4036 32.7328 26.9255 33.514C27.4475 34.2951 28.1893 34.9039 29.0573 35.2634C29.9252 35.6229 30.8803 35.717 31.8017 35.5337C32.7231 35.3505 33.5695 34.8981 34.2338 34.2338C34.8981 33.5695 35.3505 32.7231 35.5337 31.8017C35.717 30.8803 35.6229 29.9252 35.2634 29.0573C34.9039 28.1893 34.2951 27.4475 33.514 26.9255C32.7328 26.4036 31.8145 26.125 30.875 26.125ZM30.875 4.75C31.3447 4.75 31.8039 4.88929 32.1945 5.15026C32.585 5.41123 32.8895 5.78215 33.0692 6.21613C33.249 6.6501 33.296 7.12764 33.2044 7.58834C33.1127 8.04905 32.8865 8.47223 32.5544 8.80438C32.2222 9.13653 31.799 9.36273 31.3383 9.45437C30.8776 9.54601 30.4001 9.49897 29.9661 9.31922C29.5322 9.13946 29.1612 8.83505 28.9003 8.44448C28.6393 8.05391 28.5 7.59473 28.5 7.125C28.5 6.49511 28.7502 5.89102 29.1956 5.44562C29.641 5.00022 30.2451 4.75 30.875 4.75ZM4.75 7.125C4.75 6.65527 4.88929 6.19609 5.15026 5.80552C5.41123 5.41496 5.78215 5.11055 6.21613 4.93079C6.6501 4.75103 7.12764 4.704 7.58834 4.79564C8.04905 4.88728 8.47223 5.11347 8.80438 5.44562C9.13653 5.77777 9.36273 6.20096 9.45437 6.66166C9.54601 7.12237 9.49897 7.5999 9.31922 8.03388C9.13946 8.46785 8.83505 8.83877 8.44448 9.09974C8.05391 9.36071 7.59473 9.5 7.125 9.5C6.49511 9.5 5.89102 9.24978 5.44562 8.80438C5.00022 8.35898 4.75 7.75489 4.75 7.125ZM7.125 33.25C6.65527 33.25 6.19609 33.1107 5.80552 32.8497C5.41496 32.5888 5.11055 32.2179 4.93079 31.7839C4.75103 31.3499 4.704 30.8724 4.79564 30.4117C4.88728 29.951 5.11347 29.5278 5.44562 29.1956C5.77777 28.8635 6.20096 28.6373 6.66166 28.5456C7.12237 28.454 7.5999 28.501 8.03388 28.6808C8.46785 28.8605 8.83877 29.165 9.09974 29.5555C9.36071 29.9461 9.5 30.4053 9.5 30.875C9.5 31.5049 9.24978 32.109 8.80438 32.5544C8.35898 32.9998 7.75489 33.25 7.125 33.25ZM19 23.75C18.0605 23.75 17.1422 23.4714 16.361 22.9495C15.5799 22.4275 14.9711 21.6857 14.6116 20.8177C14.2521 19.9498 14.158 18.9947 14.3413 18.0733C14.5246 17.1519 14.9769 16.3055 15.6412 15.6412C16.3055 14.9769 17.1519 14.5246 18.0733 14.3413C18.9947 14.158 19.9498 14.2521 20.8177 14.6116C21.6857 14.9711 22.4275 15.5799 22.9495 16.361C23.4714 17.1422 23.75 18.0605 23.75 19C23.75 20.2598 23.2496 21.468 22.3588 22.3588C21.468 23.2496 20.2598 23.75 19 23.75ZM30.875 33.25C30.4053 33.25 29.9461 33.1107 29.5555 32.8497C29.165 32.5888 28.8605 32.2179 28.6808 31.7839C28.501 31.3499 28.454 30.8724 28.5456 30.4117C28.6373 29.951 28.8635 29.5278 29.1956 29.1956C29.5278 28.8635 29.951 28.6373 30.4117 28.5456C30.8724 28.454 31.3499 28.501 31.7839 28.6808C32.2179 28.8605 32.5888 29.165 32.8497 29.5555C33.1107 29.9461 33.25 30.4053 33.25 30.875C33.25 31.5049 32.9998 32.109 32.5544 32.5544C32.109 32.9998 31.5049 33.25 30.875 33.25Z" fill="#161616"/>
</svg>
