<svg width="28" height="26" viewBox="0 0 28 26" fill="none" xmlns="http://www.w3.org/2000/svg">
<path d="M13 24C9.4 24 5.9 22.2 3.8 19H9V17H1V25H3V21.3C5.5 24.3 9.1 26 13 26V24Z" fill="white"/>
<path d="M28 20V18H25.9C25.8 17.4 25.5 16.8 25.2 16.2L26.7 14.7L25.3 13.3L23.8 14.8C23.3 14.5 22.7 14.2 22 14.1V12H20V14.1C19.4 14.2 18.8 14.5 18.2 14.8L16.7 13.3L15.3 14.7L16.8 16.2C16.5 16.7 16.2 17.3 16.1 18H14V20H16.1C16.2 20.6 16.5 21.2 16.8 21.8L15.3 23.3L16.7 24.7L18.2 23.2C18.7 23.5 19.3 23.8 20 23.9V26H22V23.9C22.6 23.8 23.2 23.5 23.8 23.2L25.3 24.7L26.7 23.3L25.2 21.8C25.5 21.3 25.8 20.7 25.9 20H28ZM21 22C19.3 22 18 20.7 18 19C18 17.3 19.3 16 21 16C22.7 16 24 17.3 24 19C24 20.7 22.7 22 21 22Z" fill="white"/>
<path d="M17 7H22.2C18.9 1.9 12.1 0.5 7 3.8C3.9 5.8 2 9.3 2 13H0C0 5.8 5.8 0 13 0C16.9 0 20.5 1.7 23 4.7V1H25V9H17V7Z" fill="white"/>
</svg>
