<svg width="24" height="34" viewBox="0 0 24 34" fill="none" xmlns="http://www.w3.org/2000/svg">
<path d="M21.5 33.625H2.5C1.87033 33.6243 1.26666 33.3738 0.82142 32.9286C0.376177 32.4833 0.125723 31.8797 0.125 31.25V2.75C0.125629 2.1203 0.376053 1.51658 0.821316 1.07132C1.26658 0.626053 1.8703 0.375629 2.5 0.375H21.5C22.1297 0.375723 22.7333 0.626177 23.1786 1.07142C23.6238 1.51666 23.8743 2.12033 23.875 2.75V22.4841L17.9375 19.5154L12 22.4841V2.75H2.5V31.25H21.5V26.5H23.875V31.25C23.8742 31.8796 23.6237 32.4832 23.1784 32.9284C22.7332 33.3737 22.1296 33.6242 21.5 33.625ZM17.9375 16.8596L21.5 18.6409V2.75H14.375V18.6409L17.9375 16.8596Z" fill="#161616"/>
</svg>
