<svg width="24" height="34" viewBox="0 0 24 34" fill="none" xmlns="http://www.w3.org/2000/svg">
<path d="M23.875 33.625H21.5V27.6875C21.4961 24.4099 18.8401 21.7539 15.5625 21.75H8.4375C5.15988 21.7539 2.50392 24.4099 2.5 27.6875V33.625H0.125V27.6875C0.130344 23.0989 3.84888 19.3803 8.4375 19.375H15.5625C20.1511 19.3803 23.8697 23.0989 23.875 27.6875V33.625Z" fill="#161616"/>
<path d="M19.125 5.125V9.875C19.125 11.1842 18.0596 12.25 16.75 12.25H15.5625C14.9068 12.25 14.375 12.7818 14.375 13.4375C14.375 14.0932 14.9068 14.625 15.5625 14.625H16.75C19.3692 14.625 21.5 12.4942 21.5 9.875V5.125H19.125Z" fill="#161616"/>
<path d="M12 17C7.41637 17 3.6875 13.2711 3.6875 8.6875C3.6875 4.10387 7.41637 0.375 12 0.375C14.3613 0.375 16.6195 1.38473 18.1955 3.14532L16.4259 4.72944C15.2999 3.47153 13.6868 2.75 12 2.75C8.72594 2.75 6.0625 5.41356 6.0625 8.6875C6.0625 11.9614 8.72594 14.625 12 14.625V17Z" fill="#161616"/>
</svg>
