<svg xmlns="http://www.w3.org/2000/svg" viewBox="0 0 330 330"><title>zcee-videos</title><g id="iso-icons-buttons"><polygon points="83.45 177.23 83.45 16.76 282.82 131.87 282.82 292.33 83.45 177.23" fill="#d697f2"/><path d="M86.45,22,279.82,133.6V287.14L86.45,175.49V22m-6-10.39V179L285.82,297.53V130.13L80.45,11.56Z" fill="#71237c"/><polygon points="285.82 297.53 297.9 290.56 297.9 123.16 285.82 130.13 285.82 297.53" fill="#582263"/><polygon points="285.82 130.13 80.45 11.56 92.53 4.59 297.9 123.16 285.82 130.13" fill="#9727aa"/><polygon points="59.26 190.92 59.26 30.45 258.63 145.56 258.63 306.03 59.26 190.92" fill="#e3b9f9"/><path d="M62.26,35.65,255.63,147.29V300.83L62.26,189.19V35.65m-6-10.39v167.4L261.63,311.22V143.83L56.26,25.25Z" fill="#71237c"/><polygon points="261.63 311.22 273.71 304.25 273.71 136.85 261.63 143.83 261.63 311.22" fill="#582263"/><polygon points="261.63 143.83 56.26 25.25 68.34 18.28 273.71 136.85 261.63 143.83" fill="#9727aa"/><polygon points="35.09 205.11 35.09 44.64 234.47 159.75 234.47 320.22 35.09 205.11" fill="#fff"/><path d="M38.1,49.84,231.47,161.48V315L38.1,203.38V49.84m-6-10.39v167.4L237.47,325.41V158L32.1,39.44Z" fill="#71237c"/><path d="M128.74,151c-13.29-7.67-24.16-1.39-24.16,13.95s10.87,34.18,24.16,41.85,24.16,1.39,24.16-13.95S142,158.71,128.74,151Z" fill="#9727aa"/><polygon points="122.35 170.31 122.35 189.48 138.95 188.93 122.35 170.31" fill="#fff"/><path d="M122.35,154.53c-4.92-2.84-9.51-3.76-13.33-3-2.79,2.94-4.44,7.53-4.44,13.49,0,15.34,10.87,34.18,24.16,41.85,4.92,2.84,9.51,3.76,13.33,3,2.79-2.94,4.44-7.53,4.44-13.49C146.51,181,135.64,162.2,122.35,154.53Z" fill="#582263"/><path d="M116.66,158C103.37,150.34,92.5,156.62,92.5,172s10.87,34.18,24.16,41.85,24.16,1.39,24.16-13.95S129.95,165.69,116.66,158Z" fill="#fc835c"/><polygon points="110.27 177.29 110.27 196.45 126.87 195.9 110.27 177.29" fill="#473793"/><line x1="80.42" y1="206.84" x2="201.23" y2="276.59" fill="none" stroke="#1b1819" stroke-miterlimit="10"/><line x1="56.26" y1="192.89" x2="80.42" y2="206.84" fill="#fff"/><polygon points="79.7 208.08 56.26 194.54 56.26 191.24 81.13 205.6 79.7 208.08" fill="#fc835c"/><polygon points="78.09 197.89 78.09 213.23 82.75 215.79 82.53 200.56 78.09 197.89" fill="#473793"/><polygon points="104.58 116.33 56.26 88.38 56.26 81.31 104.58 109.15 104.58 116.33" fill="#fc835c"/><polygon points="80.42 116.36 56.26 102.34 56.26 95.27 80.42 109.19 80.42 116.36" fill="#fc835c"/><polygon points="237.47 325.41 249.55 318.44 249.55 151.04 237.47 158.02 237.47 325.41" fill="#582263"/><polygon points="237.47 158.02 32.09 39.44 44.18 32.47 249.55 151.04 237.47 158.02" fill="#9727aa"/></g></svg>