<svg xmlns="http://www.w3.org/2000/svg" viewBox="0 0 330 330"><title>zcee-twitter</title><g id="iso-icons-buttons"><polygon points="24.91 194.05 30.74 190.62 40.82 197.39 42.33 203.22 38.55 204.62 26.47 196.96 24.91 194.05" fill="#9727aa"/><path d="M111.24,173s-7.19-34.6,19.2-37.08c23.09-2.17,43.88,34.33,43.88,34.33s15.15,5.25,23.24,3.25c0,0-1.88,12.25-16,14.42,0,0,14.08,5.63,21.26,5.61,0,0-9.42,9.72-18.37,11.39,0,0,4.39,78-54.06,81.25S23.2,219.81,23.2,219.81s26.19,21.12,53.47,13.37c0,0-24.46-14.37-34.2-49.49,0,0,8.44,6.62,16.24,8.62,0,0-29-24-29-59,0,0,11.69,12.75,16.24,14.62,0,0-27.13-37.66-10.86-63.51C35.07,84.43,62.47,142.21,111.24,173Z" fill="#71237c"/><path d="M5.65,230.17,23.2,219.81s11.9,12.43,45.35,17.07l-9.44,6.66S35,252.42,5.65,230.17Z" fill="#9727aa"/><path d="M164,198.29l17.55-10.36s16.94,6.18,21.26,5.61l-17.55,10.36S178.47,203.93,164,198.29Z" fill="#582263"/><path d="M12.14,143.68l6.34-3.38s6.78,13.54,9.89,18C28.37,158.3,20.59,156.06,12.14,143.68Z" fill="#9727aa"/><path d="M17.52,94.79,35.07,84.43S61.64,140.58,111.24,173L93.69,183.37S40.22,147.57,17.52,94.79Z" fill="#9727aa"/><path d="M156.76,180.62l17.55-10.36s12.75,5,23.24,3.25L180,183.87S170.95,186,156.76,180.62Z" fill="#9727aa"/><path d="M166.86,215.29l17.55-10.36s2.47,34.47-14.72,59.71c-4.43,6.5-7.69,9.42-14.1,13.81L134,291.09S168.15,271.09,166.86,215.29Z" fill="#582263"/><path d="M171.09,195.94l18-10.58a17.2,17.2,0,0,0,8.51-11.85L180,183.87A25.77,25.77,0,0,1,171.09,195.94Z" fill="#501e58"/><path d="M103.39,149.2l18.56-10.92s23.68-15.72,52.36,32l-17.55,10.36S131.4,134.1,103.39,149.2Z" fill="#9727aa"/><path d="M175.78,211.48l15-8.79s8.58-4.87,12-9.16l-17.55,10.36S178.37,210,175.78,211.48Z" fill="#501e58"/><path d="M93.69,183.37s-7.19-34.6,19.2-37.08c23.09-2.17,43.88,34.33,43.88,34.33s15.15,5.25,23.24,3.25c0,0-1.88,12.25-16,14.42,0,0,14.08,5.63,21.26,5.61,0,0-9.42,9.72-18.37,11.39,0,0,4.39,78-54.06,81.25S5.65,230.17,5.65,230.17s26.19,21.12,53.47,13.37c0,0-24.46-14.37-34.2-49.49,0,0,8.44,6.62,16.24,8.62,0,0-29-24-29-59,0,0,11.69,12.75,16.24,14.62,0,0-27.13-37.66-10.86-63.51C17.52,94.79,44.92,152.57,93.69,183.37Z" fill="#71237c"/><polygon points="313.2 108.39 194.8 40.03 194.8 131.18 214.53 142.57 214.53 177.21 244.53 159.89 313.2 199.54 313.2 108.39" fill="#3c6df0"/><polygon points="234.65 162.14 207.66 177.73 207.66 146.56 187.92 135.16 187.92 50.95 300.33 115.84 300.33 200.06 234.65 162.14" fill="#fff"/><path d="M190.92,56.14l106.4,61.43v77.29l-59.67-34.45-3-1.73-3,1.73-21,12.12V144.82l-3-1.73-16.73-9.66V56.14m-6-10.39V136.9l19.73,11.39v34.64l30-17.32,68.67,39.65V114.11L184.92,45.75Z" fill="#3151b7"/><polygon points="184.92 45.75 205.95 33.35 324.35 101.72 303.33 114.11 184.92 45.75" fill="#648fff"/><polygon points="303.33 114.11 324.35 101.72 324.35 193.19 303.33 205.26 303.33 114.11" fill="#3c6df0"/><polygon points="202.94 89.44 202.94 83.21 285.31 130.25 285.31 136.83 202.94 89.44" fill="#3c6df0"/><polygon points="202.94 103.87 202.94 97.63 285.31 144.67 285.31 151.25 202.94 103.87" fill="#3c6df0"/><polygon points="202.94 118.54 202.94 112.3 255.66 142.99 255.66 149.57 202.94 118.54" fill="#3c6df0"/></g></svg>