<svg xmlns="http://www.w3.org/2000/svg" xmlns:xlink="http://www.w3.org/1999/xlink" viewBox="0 0 1500 1500"><defs><style>.cls-1{fill:none;}.cls-2{fill:#5a3ec8;}.cls-3{clip-path:url(#clip-path);}.cls-4{clip-path:url(#clip-path-2);}.cls-5{fill:#fff;opacity:0;}.cls-6{fill:#4d4d4d;fill-rule:evenodd;}</style><clipPath id="clip-path"><rect class="cls-1" x="-412.12" y="560.01" width="346" height="302.23"/></clipPath><clipPath id="clip-path-2"><rect class="cls-1" x="-973.39" y="564.91" width="1439.52" height="1453.1"/></clipPath></defs><title>IMS_graphic_elements1</title><g id="Layer_1" data-name="Layer 1"><path class="cls-2" d="M1370.9,332c44.38-102.43,52.24-181.14,14-219.42a72.34,72.34,0,0,0-11.78-9.33c-.13-.07-.24-.17-.37-.24-12.79-8.08-27.89-12.44-42.89-14a195.16,195.16,0,0,0-45.39,1.09c-.94.13-2,.33-2.91.48-4.14.61-8.28,1.27-12.39,2.1a430.08,430.08,0,0,0-58.18,16.05l-1.18.4c-19,6.65-37.68,14.34-56,22.55-74.14,33.76-143.61,76.87-210.5,123.14s-131,96.76-192.88,149.61S628.86,512.8,571.13,570.17c38.93-76.2,84.38-148.54,135.12-217.44,12.57-17.34,25.58-34.38,38.64-51.56,13.49-16.66,27-33.37,41.1-49.73,27.85-33,56.82-65.6,88.09-96.29,31.11-30.87,63.15-61.81,98.05-90.74Q985.39,53.62,999,43C779.81-34.46,527.84-9,322.42,133.94-12.8,367.24-98,825.49,128.29,1163.45c-44.38,102.43-52.22,181.16-14,219.44a74.49,74.49,0,0,0,11.71,9.28,4.82,4.82,0,0,1,.48.29c12.76,8.08,27.79,12.42,42.74,14a191.52,191.52,0,0,0,45.21-1c1.34-.17,2.76-.46,4.11-.66,3.77-.57,7.55-1.14,11.28-1.9,39.91-7.88,78.17-22.44,115.21-39,74-33.78,143.31-76.9,210-123.18s130.69-96.73,192.46-149.52c45-38.27,88.55-78.14,131.15-119l-94.9-88.55c-12.46-11.61-6.07-32.87,10.93-36.39l325.54-67.09a20.47,20.47,0,0,1,24.65,22.68l-40.64,332.94c-2.12,17.34-23,25.4-35.58,13.69l-90.19-84.15C938,1115.49,896,1165,851.87,1213.17c-58.31,63.91-119.75,126-186.77,185.65-29.1,25.68-58.92,50.95-90.43,75.63,200.39,48.23,419.61,14,602.1-113C1512,1128.19,1597.19,669.92,1370.9,332"/></g><g id="Layer_4" data-name="Layer 4"><g class="cls-3"><g class="cls-4"><rect class="cls-5" x="-973.39" y="564.91" width="1439.52" height="1453.1"/><path class="cls-6" d="M356.45,794.64H236.29V634.21h69.16l1.64.26,1.26.13,1,.26.63.38v.13l.25.38.38.9.25,3.07v32.75l.13,1.41.38,1.54.76,1.28.76,1,1.14,1.15,1.39.64.63.26.76.38.76.13h33.07l2.65.13,1.64.51.38.51.38.38.25.64.25.64.13,1.15.13,1.28ZM318.71,640l31.93,32.49H318.71Zm45.06,37.1-.25-1.41-.51-1.41-.63-1.15-.63-.89-1.26-1.79-1.26-1.28-37.48-37.87-.88-.77-.88-1-1.14-.77-1.26-.77-1.51-.77-1.89-.51-2-.51-2.52-.13H235.41l-1.39.13-1.26.51-1.26.64-.88.9-1,1.15-.63,1.28-.25,1.28-.25,1.41V795.66l.25,1.41.25,1.28.63,1.28,1,.89.88,1,1.26.64,1.26.26,1.39.13H357.2l1.39-.13,1.51-.26,1-.64,1.14-1,.76-.89.63-1.28.5-1.28.13-1.41V681.29l-.13-2.3Z"/><polygon class="cls-6" points="192.1 633.46 191.3 632.94 190.38 632.81 189.57 632.81 188.65 633.07 162.75 646.28 162.18 646.66 161.6 647.3 161.14 647.94 160.8 648.59 160.68 649.35 160.57 650 160.68 650.76 161.03 651.53 161.26 652.3 161.72 652.82 162.29 653.33 162.98 653.59 163.56 653.97 164.25 653.97 164.94 653.84 165.75 653.59 180.59 646.02 178.41 650 176.45 654.1 174.61 658.2 172.65 662.43 171.16 666.66 169.54 671.02 168.28 675.25 167.13 679.74 165.98 684.1 164.94 688.59 164.25 693.21 163.56 697.82 163.1 702.44 162.75 707.05 162.52 711.67 162.41 716.41 162.52 721.67 162.87 726.93 163.33 732.05 163.91 737.31 164.71 742.31 165.75 747.31 166.9 752.44 168.16 757.31 169.66 762.06 171.27 766.8 173.11 771.67 175.18 776.29 177.37 780.9 179.67 785.26 182.32 789.75 184.85 794.11 185.43 794.88 186.12 795.27 187.04 795.65 187.84 795.78 188.3 795.65 188.88 795.52 189.45 795.27 189.8 795.01 190.38 794.5 190.84 793.86 191.06 793.09 191.3 792.44 191.41 791.68 191.3 790.91 191.06 790.14 190.72 789.5 188.07 785.26 185.89 781.16 183.7 777.06 181.51 772.7 179.67 768.34 177.94 763.85 176.45 759.37 174.95 754.75 173.69 750.13 172.65 745.52 171.73 740.77 171.04 736.03 170.47 731.03 170 726.28 169.66 721.41 169.54 716.41 169.66 712.05 169.89 707.57 170.23 703.08 170.69 698.85 171.38 694.36 172.08 690 173 685.9 174.03 681.66 175.3 677.43 176.56 673.33 177.94 669.23 179.44 665.25 181.17 661.28 183.01 657.43 184.85 653.46 187.04 649.87 187.38 667.43 187.38 668.2 187.73 669.1 187.96 669.74 188.42 670.38 188.99 670.77 189.57 671.15 190.26 671.28 190.95 671.41 191.06 671.41 191.87 671.28 192.45 671.15 193.02 670.64 193.6 670.13 193.94 669.48 194.29 668.84 194.52 668.07 194.52 667.3 193.83 636.66 193.71 635.63 193.25 634.87 192.79 634.1 192.1 633.46"/><polygon class="cls-6" points="364.27 587.36 364.02 586.78 363.38 586.21 362.86 585.75 362.09 585.4 361.45 585.28 360.69 585.28 359.79 585.28 359.02 585.63 358.38 585.86 357.74 586.44 357.35 587.01 356.97 587.59 356.84 588.28 356.71 588.86 356.84 589.56 357.1 590.36 364.66 605.26 360.43 603.07 356.46 601.1 352.36 599.26 348.26 597.29 343.9 595.79 339.67 594.17 335.32 592.9 330.96 591.63 326.48 590.6 321.99 589.56 317.38 588.86 312.77 588.17 308.16 587.59 303.55 587.36 298.93 587.01 294.19 587.01 294.06 587.01 293.94 587.01 288.81 587.01 283.56 587.36 278.31 587.71 273.18 588.4 268.19 589.21 263.19 590.13 258.06 591.29 253.32 592.56 248.46 594.17 243.59 595.79 238.85 597.64 234.24 599.6 229.62 601.8 225.27 604.22 220.91 606.65 216.68 609.42 216.04 609.76 215.53 610.34 215.15 610.92 215.02 611.61 214.89 612.42 215.02 613 215.15 613.69 215.66 614.38 216.17 614.85 216.81 615.19 217.58 615.65 218.22 615.77 218.99 615.77 219.76 615.65 220.65 615.54 221.29 615.08 225.27 612.65 229.37 610.23 233.59 608.03 237.95 606.07 242.18 604.22 246.66 602.49 251.15 600.87 255.76 599.49 260.37 598.22 264.98 597.18 269.72 596.14 274.46 595.45 279.2 594.87 284.2 594.52 289.07 594.17 293.94 594.17 294.06 594.17 294.19 594.17 298.68 594.17 303.03 594.52 307.52 594.75 311.87 595.33 316.23 595.91 320.58 596.72 324.68 597.64 329.04 598.68 333.14 599.72 337.24 601.1 341.34 602.49 345.31 604.11 349.41 605.84 353.13 607.69 356.97 609.53 360.81 611.61 343 612.07 342.24 612.07 341.6 612.42 340.95 612.65 340.31 613.23 339.8 613.69 339.55 614.38 339.16 614.96 339.16 615.65 339.29 616.35 339.55 617.15 339.93 617.73 340.44 618.19 340.95 618.66 341.72 619 342.37 619.23 343.13 619.23 343.26 619.23 373.88 618.54 374.78 618.43 375.68 618.08 376.57 617.5 377.21 616.81 377.6 616.12 377.85 615.19 377.6 614.38 377.47 613.58 364.27 587.36"/><polygon class="cls-6" points="425.15 777.82 424.69 777.09 424.23 776.6 423.66 776.1 423.08 775.86 422.39 775.49 421.7 775.49 421.01 775.73 420.32 775.86 405.47 783.11 407.55 779.3 409.73 775.37 411.57 771.43 413.3 767.5 414.91 763.31 416.41 759.26 417.67 755.08 418.94 750.89 419.98 746.59 421.01 742.29 421.7 737.86 422.39 733.43 422.85 729 423.31 724.58 423.43 720.15 423.54 715.6 423.43 710.56 423.08 705.52 422.74 700.6 422.16 695.68 421.24 690.76 420.32 685.97 419.17 681.17 417.9 676.37 416.29 671.82 414.57 667.27 412.73 662.72 410.77 658.3 408.58 653.87 406.28 649.57 403.75 645.26 400.99 641.2 400.52 640.59 399.95 640.1 399.49 639.85 398.68 639.6 397.99 639.6 397.3 639.6 396.73 639.97 396.04 640.22 395.46 640.83 395 641.45 394.77 642.06 394.54 642.8 394.54 643.42 394.54 644.28 394.89 645.01 395.35 645.63 397.76 649.57 400.18 653.5 402.25 657.43 404.32 661.62 406.28 665.92 408.01 670.1 409.62 674.4 411 678.83 412.26 683.26 413.3 687.69 414.34 692.24 415.03 696.79 415.6 701.58 415.95 706.13 416.29 710.93 416.41 715.6 416.29 719.9 416.18 724.09 415.72 728.39 415.26 732.57 414.68 736.63 413.88 740.81 412.95 744.87 412.03 749.05 410.88 752.98 409.62 756.92 408.12 760.85 406.63 764.67 404.9 768.48 403.17 772.17 401.1 775.98 399.14 779.55 398.68 762.58 398.57 761.84 398.34 761.1 397.99 760.49 397.53 759.87 396.96 759.5 396.38 759.01 395.69 758.89 395.12 758.76 395 758.76 394.31 758.89 393.62 759.26 393.05 759.5 392.47 759.99 392.01 760.61 391.78 761.22 391.55 761.96 391.43 762.7 392.24 792.21 392.47 793.07 392.7 794.06 393.27 794.55 393.96 795.16 394.89 795.65 395.81 795.78 396.61 795.78 397.3 795.53 423.31 782.87 424 782.62 424.46 782 424.81 781.39 425.15 780.78 425.38 779.91 425.38 779.3 425.27 778.56 425.15 777.82"/><polygon class="cls-6" points="364.66 816.59 360.56 819.51 356.46 822.29 352.1 824.93 347.87 827.3 343.39 829.52 338.9 831.47 334.42 833.27 329.81 834.8 325.07 836.2 320.46 837.45 315.72 838.56 310.98 839.39 305.98 839.81 301.11 840.37 296.37 840.5 291.25 840.5 286.76 840.37 282.53 840.09 278.05 839.53 273.69 838.84 269.34 838 264.98 836.89 260.88 835.78 256.53 834.53 252.43 833 248.33 831.47 244.35 829.52 240.38 827.57 236.41 825.49 232.57 823.12 228.72 820.76 225.14 818.12 242.82 818.12 243.59 817.98 244.35 817.84 245 817.28 245.64 816.73 246.15 816.03 246.41 815.34 246.79 814.5 246.79 813.67 246.79 812.84 246.41 812.14 246.15 811.3 245.64 810.75 245 810.19 244.35 809.64 243.59 809.5 242.82 809.36 212.07 809.64 211.17 809.91 210.15 810.19 209.51 810.89 208.74 811.58 208.48 812.56 208.1 813.67 208.23 814.64 208.48 815.75 221.17 847.46 221.29 848.01 221.81 848.43 222.06 848.99 222.58 849.4 223.09 849.54 223.73 849.82 224.11 850.1 224.75 850.1 225.65 849.82 226.42 849.68 227.06 849.13 227.7 848.71 228.09 848.01 228.47 847.32 228.6 846.49 228.72 845.79 228.6 844.82 228.47 843.98 221.29 825.91 225.14 828.55 229.24 831.05 233.21 833.55 237.31 835.78 241.66 837.59 245.89 839.53 250.25 841.2 254.48 842.87 258.96 844.12 263.44 845.37 268.06 846.62 272.67 847.46 277.15 848.15 281.89 848.71 286.51 848.99 291.12 849.13 292.53 849.13 293.81 849.13 298.81 849.13 303.8 848.85 308.93 848.29 313.79 847.6 318.79 846.62 323.66 845.51 328.53 844.12 333.4 842.87 338.01 841.06 342.75 839.12 347.36 837.17 351.85 834.67 356.2 832.3 360.69 829.52 365.04 826.74 369.27 823.68 369.91 823.12 370.42 822.43 370.68 821.73 370.81 820.9 371.06 820.07 370.81 819.37 370.68 818.54 370.29 817.56 369.78 817.15 369.14 816.45 368.5 816.03 367.73 815.89 366.83 815.89 366.07 815.89 365.43 816.31 364.66 816.59"/><polygon class="cls-6" points="194.14 877.91 193.77 877.52 193.14 877.26 189.27 877.26 188.77 877.52 188.4 877.65 188.15 877.91 188.02 878.44 183.4 898.41 183.15 898.54 183.15 898.81 182.52 896.46 181.9 893.98 177.77 878.3 177.65 877.91 177.27 877.65 176.77 877.52 176.52 877.26 171.65 877.26 171.27 877.52 170.9 877.65 170.65 877.91 170.52 878.3 164.9 899.2 164.77 899.07 164.77 898.67 160.28 878.44 160.03 877.91 159.78 877.65 159.4 877.52 159.03 877.26 154.9 877.26 154.4 877.52 153.9 877.91 153.78 878.44 153.78 879.09 161.65 910.17 161.78 910.56 162.15 910.82 162.4 910.95 162.9 911.21 166.9 911.21 167.15 910.95 167.65 910.82 167.77 910.56 168.15 910.17 174.02 887.84 179.9 910.17 180.02 910.56 180.4 910.82 180.9 910.95 181.15 911.21 185.02 911.21 185.4 910.95 185.77 910.82 186.15 910.56 186.27 910.17 194.39 879.09 194.52 878.44 194.14 877.91"/><path class="cls-6" d="M221.08,894.36v1.28l-.14,1.28-.27,1-.27,1-.41,1-.41.89-.68.77-.41.77-1,.64-.68.64-.82.51-.82.26-1,.38-1,.25h-1l-.82.13-1.1-.13h-.82l-1-.25-1-.38-.82-.26-.82-.51-.82-.64-.68-.64-.68-.64-.55-.77-.55-1-.27-.89-.27-1-.41-1V895.9l-.14-1.28.14-1.4.14-1.4.27-1.28.27-1.15.27-1,.55-1,.55-.77.68-.64.82-.64.68-.51.82-.38.82-.51,1-.13.82-.38h1l1.1-.13,1.37.13,1.37.38,1.1.26,1.23.64,1,.64,1,.89.82,1,.68,1.15.41,1.15.41,1.53.14,1.53Zm-.82-14.93-1.37-.64-1.1-.64-1.37-.26-1.51-.38-1.37-.13-1.64-.13h-1.23l-1.37.13-1.64.13-1.23.38-1.37.38-1.37.51-1.23.64-1.23.77-1,.77-1.23.89-1,1.28-1.1,1.4-.82,1.4-.55,1.4-.68,1.79-.27,1.66-.14,1.91v4l.41,2,.55,2.17.82,2,1.23,1.66,1.37,1.79,1.64,1.4,1.92,1.28,2.05.89,2.19.64,2.19.51,2.6.13,2.19-.13,2.19-.26,2.05-.64,2.05-1,1-.38.82-.64,1.1-.64.68-.89,1.51-1.53,1.23-1.91,1-2,.69-2.17.41-2.3.14-2.3-.14-2.42-.41-2.17-.69-2.3-.82-1.91-1.23-1.79L223.81,882l-1.64-1.4Z"/><path class="cls-6" d="M253.84,887.18l-.23,1.18-.35.91-.35.39-.23.26-.47.39-.59.26-.59.13-.94.26-.82.13h-7.88v-7.57H249l1.29.13.94.13.94.39.59.39.47.52.23.65.35.65Zm3.41,13.45-.71-1.31-.82-1.18-.82-.91-.82-.91,1.06-.52.94-.65.94-.65.71-.78.59-.65.47-.78.35-.65.35-.91.23-.78L260,889l.12-.78v-1l-.12-1.44-.24-1.31-.35-1.44-.59-1.18-.82-1.18-.82-.91-1.06-.78-1.18-.65-1.06-.52-1.53-.13-1.65-.13-1.88-.26H236.44l-.47.26-.47.26-.23.39V910.3l.23.39.47.26.47.26h3.76l.47-.26.47-.26.12-.39.12-.52V897.37h4.82l.71.39.59.26.59.65,1.06,1.18,1.18,1.7,1.41,2.48,3.64,6.53.35.26.12.13.23.26h5.29l.47-.26.12-.26.24-.39V910l.23-.26-.23-.39-.12-.26Z"/><polygon class="cls-6" points="283.66 891.36 295.5 879.74 295.62 879.48 295.75 878.96 295.75 878.57 295.62 878.17 295.5 877.78 295.13 877.65 294.88 877.52 294.5 877.26 288.15 877.78 275.69 890.97 275.69 878.83 275.69 878.17 275.31 877.78 274.94 877.52 274.44 877.26 270.58 877.26 269.96 877.52 269.58 877.78 269.33 878.17 269.21 878.83 269.21 909.77 269.33 910.3 269.58 910.69 269.96 910.95 270.58 911.21 274.44 911.21 274.94 910.95 275.31 910.69 275.69 910.3 275.69 909.77 275.31 899.98 279.05 896.06 288.77 910.56 289.27 910.95 289.89 911.21 295 911.21 295.5 910.95 295.75 910.95 295.87 910.69 296.25 910.3 296.25 910.04 296.37 909.77 296.25 909.38 296.12 908.86 283.66 891.36"/><polygon class="cls-6" points="328.82 877.26 304.66 877.26 304.06 877.52 303.46 877.78 303.31 878.17 303.16 878.83 303.16 909.77 303.31 910.3 303.46 910.69 304.06 910.95 304.66 911.21 309.46 911.21 310.06 910.95 310.51 910.69 310.96 910.3 310.96 909.77 310.96 897.11 326.12 897.11 326.72 896.98 327.32 896.59 327.62 896.33 327.62 895.67 327.62 892.02 327.62 891.36 327.32 891.1 326.72 890.71 326.12 890.58 310.96 890.58 310.96 883.79 328.82 883.79 329.42 883.66 329.87 883.27 330.32 883.01 330.32 882.35 330.32 878.83 330.32 878.17 329.87 877.78 329.42 877.52 328.82 877.26"/><polygon class="cls-6" points="349.49 904.68 336.67 904.68 336.67 878.83 336.55 878.17 336.31 877.78 335.83 877.52 335.36 877.26 331.64 877.26 331.16 877.52 330.8 877.78 330.44 878.17 330.32 878.83 330.32 909.77 330.44 910.3 330.8 910.69 331.16 910.95 331.64 911.21 349.49 911.21 349.97 910.95 350.33 910.69 350.57 910.3 350.69 909.77 350.69 906.12 350.57 905.6 350.33 905.21 349.97 904.81 349.49 904.68"/><path class="cls-6" d="M378.84,894.36v1.28l-.11,1.28-.11,1-.33,1-.22,1-.44.89-.44.77-.55.77-.55.64-.66.64-.66.51-.66.26-.77.38-.66.25h-.77l-.88.13-.66-.13h-.77l-.77-.25-.77-.38-.66-.26-.66-.51-.55-.64-.77-.64-.33-.64-.55-.77-.44-1-.22-.89-.33-1-.11-1-.11-1.15v-2.68l.11-1.4.11-1.28.33-1.15.33-1,.44-1,.44-.77.55-.64.55-.64.66-.51.66-.38.66-.51.66-.13.77-.38h.77l.88-.13,1,.13,1,.38,1,.26,1,.64.77.64.77.89.55,1,.55,1.15.44,1.15.44,1.53.11,1.53Zm-.55-14.93-1.1-.64-1.1-.64-1.1-.26-1.09-.38-1.1-.13-1.21-.13h-1.09l-1.21.13-1.1.13-1.09.38-1.1.38-1,.51-1,.64-1,.77-1,.77-.77.89-.77,1.28-.88,1.4-.66,1.4-.55,1.4-.44,1.79-.22,1.66-.11,1.91-.22,1.91.22,2,.22,2,.55,2.17.66,2,1,1.66,1.1,1.79,1.2,1.4,1.53,1.28,1.75.89,1.64.64,1.86.51,1.86.13,2-.13,1.75-.26,1.64-.64,1.64-1,.77-.38.66-.64.66-.64.77-.89,1.2-1.53,1-1.91.66-2,.55-2.17.33-2.3v-4.72l-.33-2.17-.44-2.3-.77-1.91-1-1.79L381,882l-1.2-1.4Z"/><polygon class="cls-6" points="430.92 877.26 426.93 877.26 426.43 877.52 426.18 877.65 425.8 877.91 425.68 878.44 421.05 898.41 420.8 898.54 420.8 898.81 420.43 896.46 419.8 893.98 415.43 878.3 415.3 877.91 414.93 877.65 414.68 877.52 414.18 877.26 409.43 877.26 409.05 877.52 408.56 877.65 408.31 877.91 408.18 878.3 402.56 899.2 402.56 899.07 402.43 898.67 397.93 878.44 397.81 877.91 397.43 877.65 397.18 877.52 396.68 877.26 392.68 877.26 392.06 877.52 391.56 877.91 391.43 878.44 391.43 879.09 399.31 910.17 399.43 910.56 399.81 910.82 400.06 910.95 400.56 911.21 404.56 911.21 404.93 910.95 405.31 910.82 405.68 910.56 405.81 910.17 411.68 887.84 417.55 910.17 417.93 910.56 418.05 910.82 418.55 910.95 418.8 911.21 422.68 911.21 423.18 910.95 423.55 910.82 423.8 910.56 423.93 910.17 432.17 879.09 432.17 878.44 431.92 877.91 431.43 877.52 430.92 877.26"/><path class="cls-6" d="M156.23,943.14h-5.45L153,935.8l.22-.79.33-.79.22,1.18.45.92Zm-.89-18.35h-3.78l-.44.13-.22.26-.33.13-.11.39L140.2,956.78v.66l.22.66.33.52.56.13h3.78l.45-.13.22-.13.33-.39.11-.26,2.56-8.52h9.57l2.78,8.52.11.52.22.13.33.13.45.13h4.23l.33-.13.11-.13.22-.39.22-.26v-.66l-.22-.39-10.69-31.2-.22-.26-.22-.13-.33-.26Z"/><polygon class="cls-6" points="200 924.79 195.93 924.79 195.27 924.92 195.01 925.31 194.62 925.57 194.49 926.21 194.49 943.9 194.35 946.74 194.09 948.67 193.57 949.96 193.04 950.74 192.25 951.38 191.21 951.9 190.16 952.16 188.84 952.29 187.4 952.55 186.09 952.29 184.78 952.03 183.59 951.51 182.94 951 182.41 950.61 182.02 949.96 181.63 949.32 181.36 948.29 181.23 947 180.97 945.58 180.97 943.9 180.97 926.21 180.84 925.57 180.71 925.31 180.18 924.92 179.66 924.79 175.46 924.79 174.94 924.92 174.54 925.31 174.28 925.57 174.15 926.21 174.15 943.9 174.15 946.35 174.54 948.54 174.8 950.35 175.46 952.16 176.25 953.58 177.3 955 178.61 956.16 180.05 957.19 181.63 957.84 183.59 958.23 185.56 958.61 187.79 958.74 190.16 958.61 192.39 958.23 194.22 957.58 195.8 956.81 197.24 955.9 198.55 954.61 199.6 953.32 200.26 951.64 200.65 950.09 201.18 948.29 201.31 946.22 201.31 943.9 201.31 926.21 201.31 925.57 201.05 925.31 200.52 924.92 200 924.79"/><polygon class="cls-6" points="228.47 929.77 228.47 926.23 228.47 925.58 228.27 925.32 227.88 924.92 227.49 924.79 209.08 924.79 208.69 924.92 208.29 925.32 208.1 925.58 208.1 926.23 208.1 929.77 208.1 930.3 208.29 930.82 208.69 931.08 209.08 931.35 215.74 931.35 215.74 957.3 215.74 957.96 215.93 958.35 216.32 958.61 216.72 958.74 219.85 958.74 220.24 958.61 220.44 958.35 220.73 957.96 220.83 957.3 220.83 931.35 227.49 931.35 227.88 931.08 228.27 930.82 228.47 930.3 228.47 929.77"/><path class="cls-6" d="M261.85,941.83v1.27l-.14,1.14-.14,1.27-.41.89-.27,1.14-.55.76-.55.76-.68.89-.82.51-.68.64-.82.51L256,952l-.82.25-1.09.38h-.82l-1,.13-1.09-.13h-.82l-1.09-.38-.82-.25-.82-.38-.82-.51-.82-.64-.68-.51-.68-.64-.55-.89-.55-.89-.27-1-.41-.89-.14-1.14-.14-1v-2.67l.14-1.53.14-1.14.41-1.14.27-1.14.55-.89.68-.76.55-.64.82-.64.68-.64.82-.38.82-.51.82-.13,1.09-.25h.82l1.09-.25,1.23.25,1.36.13,1.23.51,1.23.64,1,.64.82.89,1,.89.68,1.14.41,1.27.41,1.4.27,1.65ZM261,927.08l-1.23-.64-1.36-.64-1.23-.38-1.36-.25-1.64-.38h-2.86L250,925l-1.5.13-1.36.25-1.36.51-1.09.51-1.36.64-1.23.64-1,.89-1.09.76-1.09,1.27-1,1.4-.82,1.53-.68,1.4-.55,1.65-.27,1.78-.41,1.91v3.94l.55,2,.55,2,1,1.91,1.09,1.91,1.36,1.78,1.64,1.4,1.91,1.27,2,.89,2.18.64,2.32.51,2.45.13,2.18-.13,2.18-.38,2.18-.64,1.91-.89,1-.51,1-.64,1-.64.82-.76,1.36-1.53,1.09-1.91,1.09-2,.68-2.29.27-2.16.27-2.42-.27-2.29-.27-2.29-.68-2.16-.82-1.91-1.23-1.91-1.36-1.65-1.64-1.53Z"/><polygon class="cls-6" points="301.65 924.79 295.91 924.79 295.5 924.92 294.95 925.18 294.81 925.45 294.54 925.71 286.73 947.34 286.46 947.99 286.32 948.52 286.32 948.26 286.19 947.86 278.52 925.71 278.11 925.45 277.97 925.18 277.56 924.92 277.15 924.79 270.58 924.79 270.03 924.92 269.48 925.32 269.35 925.58 269.21 926.23 269.21 957.3 269.35 957.96 269.48 958.35 270.03 958.61 270.58 958.74 274.82 958.74 275.23 958.61 275.78 958.35 276.19 957.96 276.19 957.3 276.19 939.08 282.76 957.83 283.04 958.09 283.31 958.48 283.72 958.61 284.13 958.74 287.96 958.74 288.51 958.61 288.92 958.48 289.2 958.09 289.33 957.83 296.18 939.21 296.18 957.3 296.18 957.96 296.45 958.35 297 958.61 297.55 958.74 301.65 958.74 302.34 958.61 302.61 958.35 303.02 957.96 303.16 957.3 303.16 926.23 303.02 925.58 302.61 925.32 302.34 924.92 301.65 924.79"/><path class="cls-6" d="M330.21,943.14h-7l2.93-7.34.14-.79.28-.79.42,1.18.56.92ZM329,924.79H324.2l-.28.13-.56.26-.14.13-.42.39-12.57,31.07-.28.66.42.66.28.52.7.13h4.75l.42-.13.42-.13.28-.39.28-.26,3.21-8.52h12l3.49,8.52.14.52.28.13.42.13.56.13h5.31l.28-.13.28-.13.28-.39.14-.26v-1l-13.69-31.2-.14-.26-.28-.13-.42-.26Z"/><polygon class="cls-6" points="362.97 924.79 338.54 924.79 337.89 924.92 337.5 925.32 337.24 925.58 337.11 926.23 337.11 929.77 337.24 930.3 337.5 930.82 337.89 931.08 338.54 931.35 347.25 931.35 347.25 957.3 347.38 957.96 347.77 958.35 348.16 958.61 348.68 958.74 352.71 958.74 353.36 958.61 353.62 958.35 354.01 957.96 354.14 957.3 354.14 931.35 362.97 931.35 363.49 931.08 364.01 930.82 364.14 930.3 364.27 929.77 364.27 926.23 364.14 925.58 364.01 925.32 363.49 924.92 362.97 924.79"/><polygon class="cls-6" points="376.57 924.79 372.6 924.79 371.96 924.92 371.57 925.32 371.32 925.58 371.06 926.23 371.06 957.3 371.32 957.96 371.57 958.35 371.96 958.61 372.6 958.74 376.57 958.74 376.96 958.61 377.47 958.35 377.85 957.96 377.85 957.3 377.85 926.23 377.85 925.58 377.47 925.32 376.96 924.92 376.57 924.79"/><path class="cls-6" d="M406,941.83v1.27l-.11,1.14-.22,1.27-.22.89-.22,1.14-.44.76-.55.76-.44.89-.66.51-.55.64-.66.51-.66.38-.77.25-.77.38h-.66l-.88.13-.77-.13h-.66l-.88-.38-.66-.25-.66-.38-.66-.51-.77-.64-.55-.51-.55-.64-.33-.89-.44-.89-.33-1-.22-.89-.11-1.14-.11-1v-2.67l.11-1.53.11-1.14L391,937l.33-1.14.44-.89.55-.76.33-.64.77-.64.55-.64.66-.38.66-.51.66-.13.88-.25h.66l.77-.25,1.1.25,1.1.13,1,.51.88.64.88.64.66.89.66.89.55,1.14.44,1.27.22,1.4.33,1.65Zm-.66-14.75-1-.64-1.1-.64-1.1-.38-1.2-.25-1.1-.38h-2.3l-1.1.25-1.2.13-1.1.25-1.1.51-1,.51-1.1.64-.88.64-.88.89-.77.76-1,1.27-.77,1.4-.55,1.53-.55,1.4-.44,1.65-.44,1.78-.11,1.91v3.94l.44,2,.44,2,.77,1.91.88,1.91,1,1.78,1.42,1.4,1.42,1.27,1.64.89,1.75.64,2,.51,1.86.13,1.75-.13,1.75-.38,1.64-.64,1.64-.89.88-.51.77-.64.66-.64.77-.76,1-1.53,1-1.91.88-2,.55-2.29.22-2.16.11-2.42-.11-2.29-.22-2.29-.55-2.16-.77-1.91-.88-1.91-1.1-1.65-1.42-1.53Z"/><polygon class="cls-6" points="444.32 924.79 440.4 924.79 439.88 924.92 439.49 925.32 439.1 925.58 438.96 926.23 438.96 946.29 425.25 925.45 424.99 925.18 424.73 924.92 424.34 924.79 424.08 924.79 419.9 924.79 419.38 924.92 418.86 925.32 418.59 925.58 418.59 926.23 418.59 957.3 418.59 957.96 418.86 958.35 419.38 958.61 419.9 958.74 423.69 958.74 424.34 958.61 424.73 958.35 424.99 957.96 425.25 957.3 425.25 937.38 438.96 958.09 439.36 958.48 439.49 958.61 439.75 958.74 440.14 958.74 444.32 958.74 444.84 958.61 445.23 958.35 445.62 957.96 445.75 957.3 445.75 926.23 445.62 925.58 445.23 925.32 444.84 924.92 444.32 924.79"/><path class="cls-6" d="M153.5,1420h5l1.63.13,1.5.26.88.13.63.13.75.52.75.66.88.79.75.92.5,1.31.38,1.7.38,1.7v3.8l-.12,1.44-.25,1.31-.25,1.18-.5,1-.5.79-.38.92-.5.66-1,.79-1.13.52-1,.13-.88.13-1.13.13H153.5Zm15.52-3.41-1.13-.79-1.13-.66-1.25-.52-1.5-.52-1-.13-1.25-.13-1.63-.13H148.24l-.5.13-.5.26-.13.39-.12.52v31.2l.12.66.13.26.5.39.5.13h10.89l1.25-.13h1.38l1.25-.26,1-.26,1.13-.39,1.13-.26.88-.52,1-.66.75-.66.75-.66.75-.79.63-.92.75-1.18.5-1.18.63-1.31.5-1.44.25-1.44L174,1434l.12-1.84v-3.93l-.25-2.1-.38-1.7-.63-1.84-.75-1.84-.75-1.44-1.13-1.44Z"/><polygon class="cls-6" points="206.6 1441.08 188.03 1441.08 188.03 1433.35 204.69 1433.35 205.23 1433.22 205.64 1432.82 206.05 1432.56 206.05 1431.9 206.05 1428.23 206.05 1427.84 205.64 1427.32 205.23 1426.92 204.69 1426.79 188.03 1426.79 188.03 1419.98 205.91 1419.98 206.32 1419.98 206.87 1419.71 207.28 1419.19 207.28 1418.67 207.28 1414.99 207.28 1414.47 206.87 1414.08 206.32 1413.82 205.91 1413.68 182.3 1413.68 181.76 1413.82 181.35 1414.08 181.07 1414.47 180.94 1414.99 180.94 1446.19 181.07 1446.85 181.35 1447.11 181.76 1447.5 182.3 1447.63 206.6 1447.63 207.28 1447.5 207.55 1447.11 207.96 1446.85 208.1 1446.19 208.1 1442.52 207.96 1442 207.55 1441.61 207.28 1441.34 206.6 1441.08"/><polygon class="cls-6" points="233.5 1441.08 216.57 1441.08 216.57 1414.99 216.57 1414.47 216.09 1414.08 215.45 1413.82 214.97 1413.68 210.01 1413.68 209.22 1413.82 208.74 1414.08 208.42 1414.47 208.1 1414.99 208.1 1446.19 208.42 1446.85 208.74 1447.11 209.22 1447.5 210.01 1447.63 233.5 1447.63 234.3 1447.5 234.78 1447.11 235.1 1446.85 235.26 1446.19 235.26 1442.52 235.1 1442 234.78 1441.61 234.3 1441.34 233.5 1441.08"/><polygon class="cls-6" points="260.91 1441.08 242.39 1441.08 242.39 1433.35 258.99 1433.35 259.54 1433.22 260.09 1432.82 260.36 1432.56 260.36 1431.9 260.36 1428.23 260.36 1427.84 260.09 1427.32 259.54 1426.92 258.99 1426.79 242.39 1426.79 242.39 1419.98 260.23 1419.98 260.77 1419.98 261.19 1419.71 261.6 1419.19 261.6 1418.67 261.6 1414.99 261.6 1414.47 261.19 1414.08 260.77 1413.82 260.23 1413.68 236.49 1413.68 236.08 1413.82 235.53 1414.08 235.4 1414.47 235.26 1414.99 235.26 1446.19 235.4 1446.85 235.53 1447.11 236.08 1447.5 236.49 1447.63 260.91 1447.63 261.6 1447.5 261.87 1447.11 262.28 1446.85 262.42 1446.19 262.42 1442.52 262.28 1442 261.87 1441.61 261.6 1441.34 260.91 1441.08"/><polygon class="cls-6" points="295.14 1428.94 283.91 1428.94 283.46 1429.2 283.01 1429.45 282.79 1429.71 282.79 1430.21 282.79 1433.9 282.79 1434.28 283.01 1434.79 283.46 1435.17 283.91 1435.17 290.54 1435.17 290.54 1438.86 289.41 1439.75 287.95 1440.39 286.94 1440.77 285.82 1441.15 284.7 1441.28 283.58 1441.28 282.68 1441.28 281.56 1441.02 280.43 1440.64 279.42 1440.13 278.41 1439.5 277.74 1438.73 276.95 1437.84 276.39 1436.7 275.94 1435.43 275.5 1433.9 275.38 1432.25 275.27 1430.6 275.38 1428.94 275.5 1427.55 275.83 1426.27 276.28 1424.87 276.95 1423.6 277.74 1422.33 278.19 1421.69 278.75 1421.31 279.42 1420.81 280.1 1420.42 280.77 1420.17 281.67 1420.04 282.68 1419.79 283.46 1419.66 284.47 1419.66 285.37 1419.79 286.27 1420.17 287.06 1420.42 287.73 1420.81 288.29 1421.06 288.74 1421.57 289.19 1422.08 289.64 1422.71 289.86 1423.48 290.2 1424.37 290.42 1425.38 290.76 1425.76 291.1 1426.15 291.55 1426.27 291.99 1426.15 295.14 1425.26 295.47 1425 295.81 1424.62 296.03 1424.11 295.81 1423.6 295.47 1422.08 295.02 1420.68 294.35 1419.41 293.68 1418.26 292.78 1417.12 291.99 1416.23 290.87 1415.46 289.64 1414.83 287.95 1414.19 286.27 1413.81 284.59 1413.68 282.79 1413.68 281.11 1413.81 279.42 1414.32 277.74 1414.96 276.28 1415.72 275.38 1416.23 274.71 1416.86 274.04 1417.5 273.25 1418.26 272.58 1419.03 272.02 1420.04 271.45 1420.93 271.12 1421.82 270.33 1424.11 269.77 1426.15 269.44 1428.56 269.21 1430.72 269.44 1433.14 269.77 1435.3 270.33 1437.46 271.12 1439.37 271.68 1440.39 272.02 1441.28 272.69 1442.04 273.25 1443.06 274.04 1443.69 274.82 1444.33 275.5 1444.96 276.5 1445.6 278.19 1446.49 280.1 1447.13 282.12 1447.38 284.14 1447.63 285.71 1447.38 287.28 1447.25 288.74 1446.74 290.31 1446.36 291.66 1445.6 293.12 1444.71 294.46 1443.69 295.81 1442.55 296.26 1442.04 296.37 1441.66 296.37 1430.21 296.26 1429.71 296.03 1429.33 295.58 1429.2 295.14 1428.94"/><path class="cls-6" d="M323.28,1432h-7.13l2.93-7.34.42-.79.14-.79.42,1,.42,1ZM322,1413.68h-5.17l-.42.26-.28.13-.14.39-12.85,31.2v.66l.14.66.56.52.7.13h4.61l.42-.13.56-.26.14-.26.28-.39,3.35-8.52h11.74l3.63,8.52.14.39.42.26.28.26.42.13h5l.28-.13h.42l.28-.39.28-.13.14-.39.14-.26v-.26l-.14-.39-13.55-31.2-.28-.39-.28-.26-.42-.13Z"/><polygon class="cls-6" points="356.18 1413.68 331.63 1413.68 331.11 1413.82 330.58 1414.08 330.32 1414.47 330.32 1414.99 330.32 1418.67 330.32 1419.19 330.58 1419.71 331.11 1419.98 331.63 1419.98 340.51 1419.98 340.51 1446.19 340.51 1446.85 340.9 1447.11 341.29 1447.5 341.81 1447.63 345.86 1447.63 346.51 1447.5 346.9 1447.11 347.17 1446.85 347.3 1446.19 347.3 1419.98 356.18 1419.98 356.7 1419.98 357.22 1419.71 357.48 1419.19 357.48 1418.67 357.48 1414.99 357.48 1414.47 357.22 1414.08 356.7 1413.82 356.18 1413.68"/><polygon class="cls-6" points="369.76 1413.68 365.58 1413.68 365.06 1413.82 364.53 1414.08 364.4 1414.47 364.27 1414.99 364.27 1446.19 364.4 1446.85 364.53 1447.11 365.06 1447.5 365.58 1447.63 369.76 1447.63 370.28 1447.5 370.67 1447.11 370.93 1446.85 371.06 1446.19 371.06 1414.99 370.93 1414.47 370.67 1414.08 370.28 1413.82 369.76 1413.68"/><polygon class="cls-6" points="403.84 1413.68 399.79 1413.68 399.27 1413.82 398.88 1414.08 398.62 1414.47 398.49 1414.99 398.49 1434.92 384.64 1414.34 384.12 1413.82 383.47 1413.68 379.29 1413.68 378.64 1413.82 378.38 1414.08 377.98 1414.47 377.85 1414.99 377.85 1446.19 377.98 1446.85 378.38 1447.11 378.64 1447.5 379.29 1447.63 383.21 1447.63 383.73 1447.5 384.12 1447.11 384.51 1446.85 384.51 1446.19 384.51 1426.14 398.49 1446.98 398.62 1447.11 398.88 1447.5 399.27 1447.5 399.53 1447.63 403.84 1447.63 404.23 1447.5 404.75 1447.11 404.88 1446.85 405.01 1446.19 405.01 1414.99 404.88 1414.47 404.75 1414.08 404.23 1413.82 403.84 1413.68"/><polygon class="cls-6" points="437.83 1428.94 426.52 1428.94 425.95 1429.2 425.61 1429.45 425.38 1429.71 425.27 1430.21 425.27 1433.9 425.38 1434.28 425.61 1434.79 425.95 1435.17 426.52 1435.17 433.19 1435.17 433.19 1438.86 432.17 1439.75 430.59 1440.39 429.57 1440.77 428.44 1441.15 427.31 1441.28 426.18 1441.28 425.05 1441.28 424.14 1441.02 423.01 1440.64 421.99 1440.13 421.08 1439.5 420.18 1438.73 419.5 1437.84 418.93 1436.7 418.48 1435.43 418.03 1433.9 417.92 1432.25 417.8 1430.6 417.92 1428.94 418.03 1427.55 418.37 1426.27 418.82 1424.87 419.39 1423.6 420.18 1422.33 420.74 1421.69 421.31 1421.31 421.99 1420.81 422.67 1420.42 423.46 1420.17 424.25 1420.04 425.05 1419.79 426.06 1419.66 427.08 1419.66 427.87 1419.79 428.89 1420.17 429.68 1420.42 430.48 1420.81 431.04 1421.06 431.38 1421.57 431.83 1422.08 432.17 1422.71 432.51 1423.48 432.85 1424.37 433.08 1425.38 433.42 1425.76 433.65 1426.15 434.1 1426.27 434.55 1426.15 437.72 1425.26 438.17 1425 438.4 1424.62 438.63 1424.11 438.63 1423.6 438.17 1422.08 437.61 1420.68 437.04 1419.41 436.36 1418.26 435.46 1417.12 434.55 1416.23 433.42 1415.46 432.17 1414.83 430.59 1414.19 428.89 1413.81 427.19 1413.68 425.38 1413.68 423.69 1413.81 421.88 1414.32 420.29 1414.96 418.82 1415.72 417.92 1416.23 417.24 1416.86 416.44 1417.5 415.88 1418.26 415.09 1419.03 414.52 1420.04 413.95 1420.93 413.62 1421.82 412.71 1424.11 412.14 1426.15 411.92 1428.56 411.8 1430.72 411.92 1433.14 412.14 1435.3 412.71 1437.46 413.62 1439.37 413.95 1440.39 414.52 1441.28 415.09 1442.04 415.88 1443.06 416.56 1443.69 417.24 1444.33 418.03 1444.96 418.93 1445.6 420.74 1446.49 422.67 1447.13 424.7 1447.38 426.74 1447.63 428.33 1447.38 429.91 1447.25 431.38 1446.74 432.85 1446.36 434.32 1445.6 435.8 1444.71 437.15 1443.69 438.63 1442.55 438.96 1442.04 438.96 1441.66 438.96 1430.21 438.96 1429.71 438.74 1429.33 438.29 1429.2 437.83 1428.94"/><polygon class="cls-6" points="248.84 1459.56 248.84 1455.74 248.58 1455.21 248.32 1454.82 247.93 1454.69 247.55 1454.43 223.1 1454.43 222.46 1454.69 222.2 1454.82 221.81 1455.21 221.68 1455.74 221.68 1459.56 221.81 1459.95 222.2 1460.48 222.46 1460.87 223.1 1460.87 231.77 1460.87 231.77 1487.06 231.9 1487.59 232.28 1488.11 232.54 1488.38 233.19 1488.38 237.2 1488.38 237.72 1488.38 238.23 1488.11 238.49 1487.59 238.49 1487.06 238.49 1460.87 247.55 1460.87 247.93 1460.87 248.32 1460.48 248.58 1459.95 248.84 1459.56"/><path class="cls-6" d="M262.17,1472.85h-7l2.79-7.24.42-.92.28-.79.42,1.05.42,1.05Zm-1.26-18.42h-5.17l-.28.26-.42.26-.14.26L242,1486.67v.92l.14.39.56.26.7.13h5.17l.42-.13.28-.26.14-.39,3.35-8.69h12l3.35,8.69.28.39.28.26.42.13h5.45l.7-.13.56-.26.14-.66-.14-.66-13.55-31.45-.14-.26-.42-.26-.28-.26Z"/><polygon class="cls-6" points="297.08 1469.23 295.92 1468.98 294.37 1468.34 292.43 1467.83 289.97 1467.32 287.51 1466.68 285.83 1466.04 284.93 1465.79 284.54 1465.4 284.28 1465.15 283.89 1464.64 283.76 1464.13 283.76 1463.74 283.89 1463.11 284.15 1462.59 284.41 1461.96 285.05 1461.45 285.83 1461.19 286.87 1460.81 288.16 1460.55 289.32 1460.55 290.87 1460.55 292.17 1460.81 293.2 1461.19 293.98 1461.7 294.63 1462.34 295.14 1463.11 295.53 1464 295.66 1465.15 295.79 1465.66 295.92 1465.91 296.44 1466.3 297.08 1466.42 301.09 1466.04 301.61 1465.91 301.87 1465.66 302.26 1465.15 302.26 1464.64 302 1463.23 301.74 1461.83 301.22 1460.42 300.57 1459.28 299.67 1458 298.5 1457.11 297.21 1456.21 295.92 1455.45 294.5 1455.06 292.94 1454.68 291.26 1454.43 289.58 1454.43 287.9 1454.43 286.35 1454.55 284.67 1455.06 283.11 1455.45 281.82 1456.09 280.53 1456.85 279.62 1457.87 278.85 1459.02 277.94 1460.17 277.55 1461.32 277.29 1462.72 277.16 1464 277.16 1465.15 277.55 1466.42 277.81 1467.57 278.46 1468.46 279.1 1469.36 280.01 1470.38 281.05 1471.15 282.34 1471.78 283.24 1472.29 284.67 1472.68 286.48 1473.19 288.55 1473.83 290.36 1474.34 291.91 1474.59 293.07 1474.97 293.85 1475.23 294.5 1475.61 295.14 1475.87 295.66 1476.25 295.92 1476.51 296.44 1477.27 296.56 1478.29 296.44 1479.19 295.92 1480.21 295.66 1480.46 295.14 1480.97 294.5 1481.23 293.85 1481.48 293.07 1481.74 292.17 1481.87 291.13 1482.12 289.97 1482.12 289.06 1482.12 287.9 1481.87 286.99 1481.61 286.22 1481.23 285.18 1480.97 284.54 1480.46 284.15 1480.08 283.63 1479.44 283.11 1478.8 282.99 1478.17 282.6 1477.14 282.47 1476.25 282.34 1475.74 281.95 1475.48 281.56 1475.23 281.05 1475.1 277.16 1475.48 276.65 1475.61 276.39 1475.87 276 1476.38 276 1476.89 276.26 1478.42 276.52 1480.08 277.16 1481.61 277.94 1483.02 278.98 1484.29 280.01 1485.44 281.3 1486.33 282.99 1486.97 284.54 1487.61 286.35 1488.12 288.29 1488.25 290.49 1488.38 292.3 1488.25 293.85 1488.12 295.53 1487.61 296.95 1486.97 298.38 1486.33 299.67 1485.44 300.57 1484.42 301.61 1483.14 302.26 1481.87 302.64 1480.59 303.03 1479.44 303.16 1477.91 303.03 1476.51 302.9 1475.23 302.38 1473.95 301.74 1472.93 300.83 1471.78 299.8 1470.89 298.5 1470 297.08 1469.23"/><polygon class="cls-6" points="324.47 1468.64 336.24 1456.79 336.49 1456.4 336.61 1456.14 336.61 1455.74 336.49 1455.21 336.36 1454.95 335.99 1454.69 335.74 1454.43 335.36 1454.43 328.98 1454.82 316.46 1467.98 316.46 1455.74 316.46 1455.21 316.08 1454.82 315.71 1454.69 315.21 1454.43 311.33 1454.43 310.7 1454.69 310.45 1454.82 310.08 1455.21 309.95 1455.74 309.95 1487.06 310.08 1487.59 310.45 1488.11 310.7 1488.38 311.33 1488.38 315.21 1488.38 315.71 1488.38 316.08 1488.11 316.46 1487.59 316.46 1487.06 316.08 1477.32 319.84 1473.38 329.6 1487.98 330.1 1488.38 330.73 1488.38 335.86 1488.38 336.24 1488.38 336.61 1488.24 336.74 1488.11 337.11 1487.72 337.11 1487.45 337.11 1486.93 337.11 1486.67 336.99 1486.27 324.47 1468.64"/><polygon class="cls-6" points="362.84 1472.93 362.06 1471.78 360.89 1470.89 359.59 1470 358.17 1469.23 357.13 1468.98 355.44 1468.34 353.49 1467.83 351.15 1467.32 348.55 1466.68 346.86 1466.04 345.95 1465.79 345.69 1465.4 345.3 1465.15 345.04 1464.64 345.04 1464.13 344.78 1463.74 345.04 1463.11 345.17 1462.59 345.43 1461.96 346.08 1461.45 346.86 1461.19 347.9 1460.81 349.2 1460.55 350.5 1460.55 351.93 1460.55 353.23 1460.81 354.4 1461.19 355.18 1461.7 355.83 1462.34 356.21 1463.11 356.61 1464 356.74 1465.15 356.87 1465.66 357.25 1465.91 357.51 1466.3 358.17 1466.42 362.19 1466.04 362.71 1465.91 363.1 1465.66 363.36 1465.15 363.36 1464.64 363.23 1463.23 362.84 1461.83 362.45 1460.42 361.8 1459.28 360.76 1458 359.59 1457.11 358.56 1456.21 357.13 1455.45 355.57 1455.06 354.01 1454.68 352.45 1454.43 350.76 1454.43 349.07 1454.43 347.38 1454.55 345.82 1455.06 344.13 1455.45 342.83 1456.09 341.53 1456.85 340.62 1457.87 339.84 1459.02 339.06 1460.17 338.54 1461.32 338.41 1462.72 338.15 1464 338.41 1465.15 338.54 1466.42 339.06 1467.57 339.45 1468.46 340.36 1469.36 341.14 1470.38 342.05 1471.15 343.35 1471.78 344.39 1472.29 345.82 1472.68 347.51 1473.19 349.72 1473.83 351.41 1474.34 353.1 1474.59 354.14 1474.97 354.92 1475.23 355.57 1475.61 356.21 1475.87 356.74 1476.25 357.13 1476.51 357.51 1477.27 357.77 1478.29 357.51 1479.19 357.13 1480.21 356.74 1480.46 356.21 1480.97 355.57 1481.23 354.92 1481.48 354.14 1481.74 353.23 1481.87 352.19 1482.12 351.15 1482.12 350.11 1482.12 349.07 1481.87 348.03 1481.61 347.25 1481.23 346.47 1480.97 345.69 1480.46 345.17 1480.08 344.65 1479.44 344.39 1478.8 344 1478.17 343.74 1477.14 343.48 1476.25 343.35 1475.74 343.09 1475.48 342.57 1475.23 342.05 1475.1 338.15 1475.48 337.76 1475.61 337.37 1475.87 337.11 1476.38 337.11 1476.89 337.24 1478.42 337.5 1480.08 338.15 1481.61 339.06 1483.02 339.97 1484.29 341.14 1485.44 342.57 1486.33 344 1486.97 345.69 1487.61 347.38 1488.12 349.46 1488.25 351.54 1488.38 353.36 1488.25 354.92 1488.12 356.61 1487.61 358.03 1486.97 359.46 1486.33 360.76 1485.44 361.93 1484.42 362.71 1483.14 363.36 1481.87 364.01 1480.59 364.27 1479.44 364.27 1477.91 364.27 1476.51 364.01 1475.23 363.49 1473.95 362.84 1472.93"/><polygon class="cls-6" points="381.87 1155.66 382.64 1155.66 383.42 1155.53 384.07 1155.01 384.72 1154.62 413.47 1125.74 408.03 1146.2 408.03 1146.98 408.03 1147.63 408.16 1148.54 408.55 1149.31 408.94 1149.96 409.45 1150.48 410.23 1150.74 410.88 1151 411.53 1151.25 412.04 1151.25 412.69 1151.25 413.34 1151 413.99 1150.74 414.5 1150.48 414.89 1149.96 415.41 1149.44 415.67 1148.92 415.93 1148.28 425.25 1113.31 425.38 1112.14 425.25 1111.23 424.87 1110.2 424.22 1109.42 423.44 1108.77 422.28 1108.38 421.37 1108.13 420.33 1108.38 385.37 1117.58 384.59 1117.97 383.94 1118.49 383.42 1118.88 382.9 1119.52 382.64 1120.43 382.51 1121.08 382.26 1121.86 382.51 1122.63 382.77 1123.41 383.29 1124.06 383.81 1124.7 384.46 1125.22 384.98 1125.48 385.88 1125.74 386.66 1125.74 387.44 1125.48 407.9 1120.04 378.89 1148.92 378.5 1149.44 378.11 1150.22 377.85 1151 377.85 1151.64 377.85 1152.55 378.11 1153.33 378.5 1153.97 378.89 1154.62 379.54 1155.01 380.31 1155.53 380.96 1155.66 381.87 1155.66"/><polygon class="cls-6" points="178.21 1120.04 198.44 1125.48 199.21 1125.74 200.11 1125.74 200.76 1125.48 201.53 1125.22 202.17 1124.7 202.56 1124.06 203.07 1123.41 203.46 1122.63 203.46 1121.86 203.46 1121.08 203.2 1120.43 202.95 1119.52 202.43 1118.88 201.91 1118.49 201.14 1117.97 200.5 1117.58 165.72 1108.38 164.69 1108.13 163.66 1108.38 162.63 1108.77 161.85 1109.42 161.21 1110.2 160.7 1111.23 160.57 1112.14 160.7 1113.31 170.23 1148.28 170.36 1148.92 170.62 1149.44 171.13 1149.96 171.65 1150.48 172.03 1150.74 172.68 1151 173.32 1151.25 173.96 1151.25 174.48 1151.25 174.99 1151 175.77 1150.74 176.41 1150.48 177.06 1149.96 177.57 1149.31 177.83 1148.54 177.96 1147.63 177.96 1146.98 177.83 1146.2 172.42 1125.74 201.14 1154.62 201.79 1155.01 202.43 1155.53 203.2 1155.66 203.85 1155.66 204.75 1155.66 205.52 1155.53 206.17 1155.01 206.81 1154.62 207.2 1153.97 207.71 1153.33 207.84 1152.55 208.1 1151.64 207.84 1151 207.71 1150.22 207.2 1149.44 206.81 1148.92 178.21 1120.04"/><polygon class="cls-6" points="410.88 1330.07 410.23 1330.33 409.45 1330.72 408.94 1331.37 408.55 1332.02 408.16 1332.66 408.03 1333.44 408.03 1334.22 408.03 1335 413.47 1355.46 384.72 1326.45 384.07 1326.06 383.42 1325.67 382.64 1325.41 381.87 1325.41 380.96 1325.41 380.31 1325.67 379.54 1326.06 378.89 1326.45 378.5 1327.1 378.11 1327.74 377.85 1328.65 377.85 1329.43 377.85 1330.2 378.11 1330.85 378.5 1331.63 378.89 1332.28 407.9 1361.03 387.44 1355.59 386.66 1355.46 385.88 1355.59 384.98 1355.72 384.46 1356.11 383.81 1356.49 383.29 1357.01 382.77 1357.66 382.51 1358.44 382.26 1359.21 382.51 1360.12 382.64 1360.9 382.9 1361.55 383.42 1362.19 383.94 1362.58 384.59 1363.1 385.37 1363.49 420.33 1372.81 420.85 1372.94 421.37 1372.94 422.15 1372.81 422.92 1372.56 423.57 1372.3 424.22 1371.78 424.87 1370.87 425.25 1369.84 425.38 1368.93 425.25 1367.76 415.93 1332.92 415.54 1332.15 415.28 1331.5 414.63 1330.85 413.99 1330.33 413.34 1330.07 412.56 1329.82 411.66 1329.82 410.88 1330.07"/><polygon class="cls-6" points="201.14 1326.45 172.42 1355.46 177.83 1335 177.96 1334.22 177.96 1333.44 177.83 1332.66 177.57 1332.02 177.06 1331.37 176.41 1330.72 175.77 1330.33 174.99 1330.07 174.22 1329.82 173.58 1329.82 172.68 1330.07 171.9 1330.33 171.26 1330.85 170.87 1331.5 170.36 1332.15 170.23 1332.92 160.7 1367.76 160.57 1368.93 160.7 1369.84 161.21 1370.87 161.85 1371.78 162.5 1372.3 163.14 1372.56 163.92 1372.81 164.69 1372.94 165.2 1372.94 165.72 1372.81 200.5 1363.49 201.14 1363.1 201.91 1362.58 202.43 1362.19 202.95 1361.55 203.2 1360.9 203.46 1360.12 203.46 1359.21 203.46 1358.44 203.07 1357.66 202.56 1357.01 202.17 1356.49 201.53 1356.11 200.76 1355.72 200.11 1355.59 199.21 1355.46 198.44 1355.59 178.21 1361.03 206.81 1332.28 207.2 1331.63 207.71 1330.85 207.84 1330.2 208.1 1329.43 207.84 1328.65 207.71 1327.74 207.2 1327.1 206.81 1326.45 206.17 1326.06 205.52 1325.67 204.75 1325.41 203.85 1325.41 203.2 1325.41 202.43 1325.67 201.79 1326.06 201.14 1326.45"/><path class="cls-6" d="M331.22,1337.12l-1.28-6.77-1.4-5.75-1.15-4.21-.38-1.79-.13-.51-.38-.38-1.4-1.92-1.66-1.91-2-1.79-2.3-1.91-2.68-1.66-3.19-1.91-3.45-1.79-4-1.91-1.79-.77-1.79-.77-1.92-.77-2-1-4.09-1.53-4.09-1.91-1.91-.89-1.79-1-1.28-.77-.89-.77-.64-.64-.77-.38-1-.26h-.89l-1,.13-.77.51-.64.51-.64.77-13.41,22-13.41-22-.51-.77-.89-.51-.77-.51-.89-.13h-1l-.77.26-.77.38-.77.64-.89.77-1.28.77-1.53.77-1.91,1-4.21,1.66-4,1.79-2.3.77-2,1-2,.77-1.79.89-2.43,1.15-2.43,1.28-2.17,1.15-2.17,1.28-2.68-3.58-2.68-3.58-2.55-3.7-2.3-3.7-2.3-4-2-4.09-1.66-4.09-1.79-4.21-1.53-4.34-1.28-4.21-1.15-4.47-.89-4.6-.89-4.6-.38-4.6-.38-4.72-.13-4.72.13-5.36.51-5.24.64-5.23.89-5.24,1.15-5,1.4-5,1.66-4.85L197,1200l2.17-4.6,2.3-4.47,2.55-4.34,2.68-4.34,2.81-4,3.06-4,3.32-3.83,3.45-3.58,3.7-3.45,3.83-3.19,3.7-3.19,4.21-2.81,4.21-2.68,4.34-2.55,4.6-2.43,4.6-2,4.72-1.91,4.72-1.53,5-1.4,5-1.15,5.11-.89,5.23-.64,5.36-.51,5.23-.13,5.36.13,5.24.51,5.23.64,5.24.89,4.85,1.15,5.11,1.4,4.72,1.53,4.85,1.91,4.6,2,4.34,2.43,4.47,2.55,4.09,2.68,4.21,2.81,4,3.19,3.7,3.19,3.7,3.45,3.45,3.58,3.19,3.83,3.19,4,2.81,4,2.68,4.34,2.55,4.34,2.43,4.47,2,4.6,1.91,4.72,1.53,4.85,1.4,5,1.15,5,.89,5.24.64,5.23.51,5.24v9.32l-.26,4.09-.38,4-.51,4-.77,4-.77,3.83-.89,4-1.15,3.58-1.28,3.83-1.4,3.45-1.66,3.7-1.53,3.45-1.79,3.45-1.92,3.45-2,3.06-2,3.19-2.17,3.19-2.43,2.94-2.55,3.06-2.43,2.68-2.55,2.81-2.94,2.55-2.81,2.55-2.81,2.55-3.19,2.43-3.06,2.17-3.19,2-3.32,1.91-3.32,1.92-3.45,1.79-3.45,1.66Zm-38.3,7.53-5.36-.26-5.24-.38-5.23-.64-5.24-1-5.11-1-4.85-1.53-5-1.66-4.72-1.91-4.6-2-4.47-2.43-4.34-2.55-4.34-2.68-4.09-2.94-4-3.06-3.7-3.32-3.58-3.45,1.53-1,1.66-.77,1.92-.89,1.79-1,1.79-.77,1.92-.77,2-.77,2-1,3.83-1.53,3.45-1.4,2.94-1.28,2.55-1.4,14.3,24,.64.77.89.64.89.38.89.13,1.15-.13,1-.38.77-.64.64-.77,14.68-24,2.55,1.4,3.06,1.4,3.32,1.53,4,1.66,1.91.77,1.66.77,1.91.64,1.53.77,3.45,1.66,2.81,1.53,2.55,1.4,2.3,1.4,1.92,1.53,1.79,1.4,1.28,1.28,1,1.4.89,2.55,1,4.34,1.28,5.49,1,5.75L320,1341l-3.58,1-3.83.77-3.83.64-4,.38-4,.51-3.83.13Zm0-216.16-5.75.13-5.62.51-5.62.51-5.49,1.15-5.36,1.28-5.49,1.4-5.11,1.79-5.11,2-5,2.17-4.85,2.55-4.6,2.68-4.6,2.94-4.47,3.06-4.09,3.32-4.09,3.58-4,3.83-3.7,3.7-3.45,4.21-3.32,4.21-3.19,4.34-2.81,4.6-2.68,4.72L192,1192l-2.3,5.11-2,5-1.66,5.23-1.66,5.24-1.28,5.36-.89,5.62-.64,5.49-.51,5.75-.13,5.87.13,5.62.51,5.75.64,5.49.89,5.62,1.28,5.36,1.66,5.36,1.66,5.23,2,5.11L192,1289l2.55,5,2.68,4.6,2.81,4.6,3.19,4.34,3.32,4.21,3.45,4.09,3.7,4,4,3.58,4.09,3.58,4.09,3.32,4.47,3.19,4.6,2.81,4.6,2.68,4.85,2.55,5,2.17,5.11,2,5.11,1.79,5.49,1.53,5.36,1.28,5.49,1,5.62.64,5.62.38,5.75.26,5.87-.26,5.75-.38,5.49-.64,5.49-1L321,1349l5.24-1.53,5.11-1.79,5.11-2,5.11-2.17,4.72-2.55,4.72-2.68,4.6-2.81,4.34-3.19,4.21-3.32,4.21-3.58,3.7-3.58,3.83-4,3.45-4.09,3.32-4.21,3.19-4.34,2.94-4.6,2.68-4.6,2.55-5,2.17-4.85,2-5.11,1.79-5.23,1.4-5.36,1.28-5.36,1-5.62.64-5.49.51-5.75.13-5.62-.13-5.87-.51-5.75-.64-5.49-1-5.62-1.28-5.36-1.4-5.24-1.79-5.23-2-5L394,1192l-2.55-4.72-2.68-4.72-2.94-4.6-3.19-4.34-3.32-4.21-3.45-4.21-3.83-3.7-3.7-3.83-4.21-3.58-4.21-3.32-4.34-3.06-4.6-2.94-4.72-2.68-4.72-2.55-5.11-2.17-5.11-2-5.11-1.79-5.24-1.4-5.49-1.28-5.49-1.15-5.49-.51-5.75-.51Z"/><polygon class="cls-6" points="337.11 1288.07 337.02 1289.07 336.92 1289.93 336.82 1291.08 336.54 1291.94 336.35 1292.8 335.96 1293.81 335.49 1294.38 335.1 1295.1 334.63 1295.81 334.05 1296.39 333.57 1296.96 333 1297.25 332.23 1297.68 331.66 1297.96 330.99 1297.96 330.42 1298.25 329.65 1297.96 328.98 1297.96 328.22 1297.68 327.64 1297.25 327.07 1296.96 326.5 1296.39 326.02 1295.81 325.54 1295.1 325.06 1294.38 324.68 1293.81 324.3 1292.8 324.11 1291.94 323.82 1291.08 323.72 1289.93 323.63 1289.07 323.53 1288.07 323.63 1286.92 323.72 1285.91 323.82 1285.05 324.11 1284.19 324.3 1283.19 324.68 1282.33 325.06 1281.61 325.54 1280.75 326.02 1280.18 326.5 1279.75 327.07 1279.17 327.64 1278.6 328.22 1278.31 328.98 1278.02 329.65 1277.88 330.42 1277.88 330.99 1277.88 331.66 1278.02 332.23 1278.31 333 1278.6 333.57 1279.17 334.05 1279.75 334.63 1280.18 335.1 1280.75 335.49 1281.61 335.96 1282.33 336.35 1283.19 336.54 1284.19 336.82 1285.05 336.92 1285.91 337.02 1286.92 337.11 1288.07"/><polygon class="cls-6" points="330.56 1271.09 329.85 1270.96 329.02 1270.69 328.43 1270.43 327.84 1269.76 327.48 1269.23 327.13 1268.43 326.89 1267.77 326.89 1266.97 326.89 1263.11 327.13 1259.65 327.48 1256.6 328.07 1253.54 328.67 1251.01 329.38 1248.48 330.08 1246.36 330.8 1244.36 331.74 1242.5 332.57 1241.04 333.52 1239.58 334.34 1238.38 336 1236.25 337.3 1234.79 349.13 1221.89 350.9 1219.76 352.44 1217.5 353.74 1214.84 354.93 1212.18 355.76 1209.39 356.35 1206.46 356.82 1203.4 356.94 1200.48 356.82 1197.29 356.35 1194.5 355.64 1191.57 354.81 1188.91 353.74 1186.25 352.44 1183.86 350.79 1181.46 349.01 1179.34 347.24 1177.34 345.23 1175.75 342.98 1174.28 340.61 1172.95 338.13 1171.89 335.64 1171.22 333.04 1170.83 330.2 1170.69 327.6 1170.83 325 1171.22 322.51 1171.89 319.91 1172.95 317.66 1174.28 315.42 1175.75 313.4 1177.34 311.51 1179.34 309.86 1181.46 308.2 1183.86 306.9 1186.25 305.83 1188.91 304.89 1191.57 304.3 1194.5 303.82 1197.29 303.7 1200.48 303.7 1204.73 303.7 1205.53 303.35 1206.2 303.11 1207.13 302.64 1207.53 302.05 1208.06 301.46 1208.59 300.75 1208.72 300.04 1208.86 299.33 1208.72 298.5 1208.59 297.91 1208.06 297.32 1207.53 296.96 1207.13 296.61 1206.2 296.49 1205.53 296.37 1204.73 296.37 1200.48 296.37 1198.48 296.49 1196.49 296.73 1194.76 297.08 1192.77 297.32 1190.9 297.79 1189.04 298.38 1187.45 298.97 1185.59 299.68 1183.99 300.39 1182.39 301.34 1180.67 302.17 1179.2 303.11 1177.74 304.06 1176.28 305.13 1174.82 306.31 1173.48 307.49 1172.29 308.67 1170.96 309.98 1170.03 311.28 1168.83 312.81 1167.77 314.12 1166.97 315.54 1166.04 317.07 1165.37 318.61 1164.71 320.27 1164.04 321.92 1163.51 323.46 1162.98 325.12 1162.71 326.89 1162.58 328.67 1162.45 330.2 1162.45 331.98 1162.45 333.75 1162.58 335.53 1162.71 337.18 1162.98 338.72 1163.51 340.38 1164.04 342.03 1164.71 343.45 1165.37 345.11 1166.04 346.53 1166.97 347.83 1167.77 349.37 1168.83 350.67 1170.03 351.85 1170.96 353.15 1172.29 354.34 1173.48 355.52 1174.82 356.46 1176.28 357.53 1177.74 358.48 1179.2 359.3 1180.67 360.13 1182.39 360.96 1183.99 361.67 1185.59 362.26 1187.45 362.74 1189.04 363.09 1190.9 363.56 1192.77 363.8 1194.76 364.15 1196.49 364.15 1198.48 364.27 1200.48 364.15 1202.47 364.15 1204.34 363.8 1206.2 363.56 1208.06 363.21 1209.92 362.85 1211.92 362.26 1213.64 361.67 1215.37 361.08 1217.1 360.37 1218.83 359.42 1220.43 358.6 1222.15 357.65 1223.62 356.7 1225.08 355.52 1226.54 354.34 1227.87 342.62 1240.51 341.44 1241.84 340.02 1243.56 339.31 1244.63 338.72 1245.69 338.01 1247.02 337.3 1248.48 336.71 1250.08 336.12 1251.81 335.53 1253.8 335.05 1256.06 334.7 1258.33 334.34 1260.98 334.23 1263.78 334.23 1266.97 334.11 1267.77 333.87 1268.43 333.52 1269.23 333.04 1269.76 332.57 1270.43 331.86 1270.69 331.27 1270.96 330.56 1271.09"/><path class="cls-6" d="M265.63,1283.18h-1.47l-1.47-.13-1.47-.27-1.47-.27-2.82-.8-2.7-1.2-2.58-1.34-2.58-1.6-2.21-1.87-2.09-2.14-2-2.27-1.59-2.54-1.59-2.67-1.23-2.81-1-2.94-.74-3.21-.25-1.47-.25-1.6v-1.74l-.12-1.6.12-1.74v-1.6l.25-1.74.25-1.47.74-3.07,1-3.07,1.23-2.81,1.59-2.54,1.59-2.54,2-2.27,2.09-2.27,2.21-1.74,2.58-1.74,2.58-1.34,2.7-1.07,2.82-.8,2.94-.53,2.94-.13,1.84.13,1.72.13,1.72.13,1.59.53,1.72.53,1.72.4,1.6.67,1.59.94,1.84,1.07,1.72,1.2,1.59,1.34,1.59,1.47,1.47,1.74,1.35,1.6,1.23,1.6,1,1.87,1.1,2,1,2,.74,2,.61,2.14.37,2.14.37,2.14.25,2.27v2.4l-.12,3.34-.49,3.07-.61,3.21-1,2.94-1.23,2.81-1.59,2.67-1.59,2.54-2,2.27-2.21,2.14-2.21,1.87-2.45,1.6-2.58,1.34-2.82,1.2-2.7.8-1.47.27-1.59.27-1.47.13Zm16.93-68.93-2-1.07-2.08-.8-2-.8-2.21-.53-2.08-.4-2.21-.4-2.09-.13-2.33-.13h-1.72l-2.08.13-1.72.27-1.84.4-1.84.53-1.72.4-1.84.67-1.59.67-1.72.8-1.47,1.07-1.72.94-1.59,1.07-1.35,1.07-1.47,1.2-1.23,1.34-1.35,1.34-1.23,1.47-1.23,1.47-1.1,1.47-1,1.74-1,1.6-.86,1.74-1,1.6-.74,1.87-.61,2-.61,1.74-.49,2-.37,1.87-.37,2.14-.25,2-.12,2v4.28l.12,2,.25,2,.37,2.14.37,1.74.49,2,.61,2,.61,1.87.74,1.74,1,1.74.86,1.6,1,1.74,1,1.6,1.1,1.47,1.23,1.47,1.23,1.6,1.35,1.2,1.23,1.34,1.47,1.2,1.35,1.2,1.59.94,1.72,1.07,1.47.93,1.72.8,1.59.67,1.84.67,1.72.53,1.84.53,1.84.27,1.72.4,2.08.13h3.8l1.72-.13,2.09-.4,1.72-.27,1.84-.53,1.72-.53,1.84-.67,1.72-.67,1.59-.8,1.59-.93,1.47-1.07,1.47-.94,1.59-1.2,1.35-1.2,1.35-1.34,1.35-1.2,1.23-1.6,1.1-1.47,1.23-1.47,1.1-1.6.86-1.74.86-1.6.86-1.74.74-1.74.74-1.87.49-2,.61-2,.37-1.74.37-2.14.12-2,.12-2,.25-2.14-.25-2.81-.25-3.07-.49-2.67-.61-2.8-.74-2.54-.86-2.54-1.1-2.67-1.35-2.27-1.35-2.4-1.59-2.14-1.59-2.14-1.84-2-2-1.74-2.21-1.74-2.09-1.47Z"/></g></g></g></svg>