<svg width="38" height="38" viewBox="0 0 38 38" fill="none" xmlns="http://www.w3.org/2000/svg">
<rect width="38" height="38" fill="white" fill-opacity="0.01" style="mix-blend-mode:multiply"/>
<path d="M32.0625 29.6875H24.9375C23.9927 29.6875 23.0865 30.0628 22.4184 30.7309C21.7503 31.399 21.375 32.3052 21.375 33.25V35.625H23.75V33.25C23.75 32.9351 23.8751 32.633 24.0978 32.4103C24.3205 32.1876 24.6226 32.0625 24.9375 32.0625H32.0625C32.3774 32.0625 32.6795 32.1876 32.9022 32.4103C33.1249 32.633 33.25 32.9351 33.25 33.25V35.625H35.625V33.25C35.625 32.3052 35.2497 31.399 34.5816 30.7309C33.9135 30.0628 33.0073 29.6875 32.0625 29.6875Z" fill="white"/>
<path d="M23.75 23.75C23.75 24.6895 24.0286 25.6078 24.5505 26.389C25.0725 27.1701 25.8143 27.7789 26.6823 28.1384C27.5502 28.4979 28.5053 28.592 29.4267 28.4087C30.3481 28.2255 31.1945 27.7731 31.8588 27.1088C32.5231 26.4445 32.9755 25.5981 33.1587 24.6767C33.342 23.7553 33.2479 22.8002 32.8884 21.9323C32.5289 21.0643 31.9201 20.3225 31.139 19.8005C30.3578 19.2786 29.4395 19 28.5 19C27.2402 19 26.032 19.5004 25.1412 20.3912C24.2504 21.282 23.75 22.4902 23.75 23.75ZM30.875 23.75C30.875 24.2197 30.7357 24.6789 30.4747 25.0695C30.2138 25.46 29.8428 25.7645 29.4089 25.9442C28.9749 26.124 28.4974 26.171 28.0367 26.0794C27.576 25.9877 27.1528 25.7615 26.8206 25.4294C26.4885 25.0972 26.2623 24.674 26.1706 24.2133C26.079 23.7526 26.126 23.2751 26.3058 22.8411C26.4855 22.4072 26.79 22.0362 27.1805 21.7753C27.5711 21.5143 28.0303 21.375 28.5 21.375C29.1299 21.375 29.734 21.6252 30.1794 22.0706C30.6248 22.516 30.875 23.1201 30.875 23.75Z" fill="white"/>
<path d="M7.125 24.9375V23.75H4.75V24.9375C4.75 27.1421 5.62578 29.2564 7.18467 30.8153C8.74357 32.3742 10.8579 33.25 13.0625 33.25H16.625V30.875H13.0625C11.4878 30.875 9.97755 30.2494 8.86405 29.1359C7.75056 28.0225 7.125 26.5122 7.125 24.9375Z" fill="white"/>
<path d="M30.875 11.875H22.5625V14.25H30.875V11.875Z" fill="white"/>
<path d="M34.4375 7.125H22.5625V9.5H34.4375V7.125Z" fill="white"/>
<path d="M34.4375 2.375H22.5625V4.75H34.4375V2.375Z" fill="white"/>
<path d="M13.0625 13.0625H5.9375C4.99267 13.0625 4.08653 13.4378 3.41843 14.1059C2.75033 14.774 2.375 15.6802 2.375 16.625V19H4.75V16.625C4.75 16.3101 4.87511 16.008 5.09781 15.7853C5.32051 15.5626 5.62256 15.4375 5.9375 15.4375H13.0625C13.3774 15.4375 13.6795 15.5626 13.9022 15.7853C14.1249 16.008 14.25 16.3101 14.25 16.625V19H16.625V16.625C16.625 15.6802 16.2497 14.774 15.5816 14.1059C14.9135 13.4378 14.0073 13.0625 13.0625 13.0625Z" fill="white"/>
<path d="M9.5 11.875C10.4395 11.875 11.3578 11.5964 12.139 11.0745C12.9201 10.5525 13.5289 9.8107 13.8884 8.94275C14.2479 8.0748 14.342 7.11973 14.1587 6.19832C13.9755 5.27691 13.5231 4.43054 12.8588 3.76624C12.1945 3.10195 11.3481 2.64955 10.4267 2.46627C9.50527 2.28299 8.5502 2.37706 7.68225 2.73657C6.8143 3.09609 6.07246 3.70491 5.55052 4.48604C5.02858 5.26718 4.75 6.18554 4.75 7.125C4.75 8.38478 5.25044 9.59296 6.14124 10.4838C7.03204 11.3746 8.24022 11.875 9.5 11.875ZM9.5 4.75C9.96973 4.75 10.4289 4.88929 10.8195 5.15026C11.21 5.41123 11.5145 5.78215 11.6942 6.21613C11.874 6.6501 11.921 7.12764 11.8294 7.58834C11.7377 8.04905 11.5115 8.47223 11.1794 8.80438C10.8472 9.13653 10.424 9.36273 9.96334 9.45437C9.50263 9.54601 9.0251 9.49897 8.59113 9.31922C8.15715 9.13946 7.78623 8.83505 7.52526 8.44448C7.26429 8.05391 7.125 7.59473 7.125 7.125C7.125 6.49511 7.37522 5.89102 7.82062 5.44562C8.26602 5.00022 8.87011 4.75 9.5 4.75Z" fill="white"/>
</svg>
