<?xml version="1.0" encoding="UTF-8"?>
<svg width="20px" height="14px" viewBox="0 0 20 14" version="1.1" xmlns="http://www.w3.org/2000/svg" xmlns:xlink="http://www.w3.org/1999/xlink">
    <title>Fill 1</title>
    <g id="Page-1" stroke="none" stroke-width="1" fill="none" fill-rule="evenodd">
        <path d="M1.42857143,1.4 L1.42857143,12.6 L13.5714286,12.6 L13.5714286,8.4 C13.5735714,8.0136 13.8942857,7.7014 14.2892857,7.7035 C14.4364286,7.7042 14.58,7.749 14.7,7.833 L18.5714286,10.542 L18.5714286,3.458 L14.7,6.167 C14.3785714,6.391 13.9328571,6.3175 13.7035714,6.0025 C13.6185714,5.8849 13.5721429,5.7442 13.5714286,5.6 L13.5714286,1.4 L1.42857143,1.4 Z M13.5714286,14 L1.42857143,14 C0.639285714,14 0,13.3735 0,12.6 L0,1.4 C0,0.6265 0.639285714,0 1.42857143,0 L13.5714286,0 C14.3607143,0 15,0.6265 15,1.4 L15,4.242 L18.8714286,1.533 C19.1928571,1.309 19.6385714,1.3825 19.8678571,1.6975 C19.9528571,1.8151 19.9992857,1.9558 20,2.1 L20,11.9 C19.9978571,12.2864 19.6771429,12.5986 19.2821429,12.5965 C19.135,12.5958 18.9914286,12.551 18.8714286,12.467 L15,9.758 L15,12.6 C15,13.3735 14.3607143,14 13.5714286,14 L13.5714286,14 Z" id="Fill-1" fill="#0F62FE"></path>
    </g>
</svg>