<svg xmlns="http://www.w3.org/2000/svg" viewBox="0 0 640.89 499.75">
  <defs>
    <linearGradient id="a" x1="43.49" y1="267.27" x2="760.9" y2="328.95" gradientUnits="userSpaceOnUse">
      <stop offset="0" stop-color="#e2d2f4"/>
      <stop offset="1" stop-color="#bf93eb"/>
    </linearGradient>
    <linearGradient id="b" x1="405.25" y1="270.1" x2="430.72" y2="270.1" gradientUnits="userSpaceOnUse">
      <stop offset="0" stop-color="#fe8500"/>
      <stop offset="1" stop-color="#e26b00"/>
    </linearGradient>
    <linearGradient id="c" x1="209.3" y1="153.65" x2="212.75" y2="153.65" gradientUnits="userSpaceOnUse">
      <stop offset="0" stop-color="#ff9e3e"/>
      <stop offset="1" stop-color="#fe8500"/>
    </linearGradient>
    <linearGradient id="d" x1="209.3" y1="99.85" x2="550.88" y2="99.85" gradientUnits="userSpaceOnUse">
      <stop offset="0" stop-color="#fcaf6d"/>
      <stop offset="1" stop-color="#fe8500"/>
    </linearGradient>
    <linearGradient id="e" x1="223.04" y1="227.31" x2="233.56" y2="227.31" gradientUnits="userSpaceOnUse">
      <stop offset="0" stop-color="#047cc0"/>
      <stop offset="1" stop-color="#0570a0"/>
    </linearGradient>
    <filter id="blur">
    <feGaussianBlur stdDeviation="6" />
</filter>
  </defs>
  <g style="isolation:isolate">
    <path fill="#fff" d="M312.22 485.56h16.44v9.86h-16.44z"/>

    <path class="base-shadow" d="M304.44 481.27L16.77 315.19a8.89 8.89 0 0 1 0-15.39l303.67-175.33L624.11 299.8a8.89 8.89 0 0 1 0 15.39L336.44 481.27a32 32 0 0 1-32 0z" fill="#44216a" filter="url(#blur)"/>

    <path d="M303.8 474.33L4.62 301.59a9.24 9.24 0 0 1 0-16l315.82-182.34 315.83 182.34a9.24 9.24 0 0 1 0 16L337.09 474.33a33.28 33.28 0 0 1-33.29 0z" fill="url(#a)"/>
    <path d="M417.58 345.38l21-.74 126.68-72.48a3.38 3.38 0 0 0 0-5.87l-35.93-20.53-97.25 28.92z" opacity=".2"/>
    <path d="M550.88 267.42V121.66L209.3 77.93v145.75a6.34 6.34 0 0 0 3.2 5.54l197.65 114.12a15.82 15.82 0 0 0 15.82 0l121.71-70.27a6.33 6.33 0 0 0 3.2-5.65z" fill="#fe8500"/>
    <path d="M430.72 340.59l117-67.53a6.33 6.33 0 0 0 3.19-5.65V121.66l-120.19-15.38z" fill="#e26b00"/>
    <path d="M426 343.34a15.82 15.82 0 0 1-15.82 0l-4.9-2.83v27.75h25.47v-27.67z" fill="none"/>
    <path d="M426 343.34l4.75-2.74V194.84l-4.75 2.74a15.82 15.82 0 0 1-15.82 0l-4.9-2.83v145.76l4.9 2.83a15.82 15.82 0 0 0 15.82 0z" fill="url(#b)"/>
    <path d="M212.5 229.22l.25.14v-151l-3.45-.44v145.76a6.34 6.34 0 0 0 3.2 5.54z" fill="url(#c)"/>
    <path d="M212.5 83.47l197.65 114.11a15.82 15.82 0 0 0 15.82 0l121.71-70.27a6.39 6.39 0 0 0 0-11.08L350 2.12a15.82 15.82 0 0 0-15.82 0L212.5 72.39a6.39 6.39 0 0 0 0 11.08z" fill="url(#d)"/>
    <path fill="#9e9191" d="M231.34 104.51v12.04l28.53 16.47v-12.04l-28.53-16.47"/>
    <path fill="none" stroke="#9e9191" stroke-miterlimit="10" d="M231.34 104.51v12.04l28.53 16.47v-12.04l-28.53-16.47z"/>
    <path fill="#6b6565" d="M232.95 107.37v7.95l25.31 14.62v-7.96l-25.31-14.61"/>
    <path fill="#969696" d="M239.88 111.37l-6.93 3.95 25.31 14.62v-7.96l-18.38-10.61"/>
    <path fill="#847b7b" d="M231.34 104.51l1.61 2.86v7.95l-1.61 1.23v-12.04"/>
    <path fill="#7c7575" d="M231.34 104.51l1.61 2.86 25.31 14.61 1.61-1-28.53-16.47"/>
    <path fill="#ada6a6" d="M232.95 115.32l-1.61 1.23 28.53 16.47-1.61-3.08-25.31-14.62"/>
    <path fill="#8e8d8d" d="M258.26 129.94v-7.96l1.61-1v12.04l-1.61-3.08"/>
    <path fill="#c4881c" d="M236.07 111.52l22.07 12.74v1.2l-22.07-12.84v-1.1"/>
    <path fill="#9c6d1e" d="M236.07 111.52l2.25-1.14 19.82 11.53v2.35l-22.07-12.74"/>
    <path fill="#9e9191" d="M231.34 133.02v12.04l28.53 16.47v-12.04l-28.53-16.47"/>
    <path fill="none" stroke="#9e9191" stroke-miterlimit="10" d="M231.34 133.02v12.04l28.53 16.47v-12.04l-28.53-16.47z"/>
    <path fill="#6b6565" d="M232.95 135.88v7.96l25.31 14.61v-7.95l-25.31-14.62"/>
    <path fill="#969696" d="M239.88 139.88l-6.93 3.96 25.31 14.61v-7.95l-18.38-10.62"/>
    <path fill="#847b7b" d="M231.34 133.02l1.61 2.86v7.96l-1.61 1.22v-12.04"/>
    <path fill="#7c7575" d="M231.34 133.02l1.61 2.86 25.31 14.62 1.61-1.01-28.53-16.47"/>
    <path fill="#ada6a6" d="M232.95 143.84l-1.61 1.22 28.53 16.47-1.61-3.08-25.31-14.61"/>
    <path fill="#8e8d8d" d="M258.26 158.45v-7.95l1.61-1.01v12.04l-1.61-3.08"/>
    <path fill="#c4881c" d="M236.07 140.03l22.07 12.74v1.2l-22.07-12.83v-1.11"/>
    <path fill="#9c6d1e" d="M236.07 140.03l2.25-1.13 19.82 11.53v2.34l-22.07-12.74"/>
    <path fill="#9e9191" d="M231.34 161.53v12.04l28.53 16.47V178l-28.53-16.47"/>
    <path fill="none" stroke="#9e9191" stroke-miterlimit="10" d="M231.34 161.53v12.04l28.53 16.47V178l-28.53-16.47z"/>
    <path fill="#6b6565" d="M232.95 164.4v7.95l25.31 14.61v-7.95l-25.31-14.61"/>
    <path fill="#969696" d="M239.88 168.4l-6.93 3.95 25.31 14.61v-7.95l-18.38-10.61"/>
    <path fill="#847b7b" d="M231.34 161.53l1.61 2.87v7.95l-1.61 1.22v-12.04"/>
    <path fill="#7c7575" d="M231.34 161.53l1.61 2.87 25.31 14.61 1.61-1.01-28.53-16.47"/>
    <path fill="#ada6a6" d="M232.95 172.35l-1.61 1.22 28.53 16.47-1.61-3.08-25.31-14.61"/>
    <path fill="#8e8d8d" d="M258.26 186.96v-7.95l1.61-1.01v12.04l-1.61-3.08"/>
    <path fill="#c4881c" d="M236.07 168.54l22.07 12.74v1.2l-22.07-12.83v-1.11"/>
    <path fill="#9c6d1e" d="M236.07 168.54l2.25-1.13 19.82 11.53v2.34l-22.07-12.74"/>
    <path fill="#9e9191" d="M231.34 190.04v12.05l28.53 16.47v-12.04l-28.53-16.48"/>
    <path fill="none" stroke="#9e9191" stroke-miterlimit="10" d="M231.34 190.04v12.05l28.53 16.47v-12.04l-28.53-16.48z"/>
    <path fill="#6b6565" d="M232.95 192.91v7.95l25.31 14.61v-7.95l-25.31-14.61"/>
    <path fill="#969696" d="M239.88 196.91l-6.93 3.95 25.31 14.61v-7.95l-18.38-10.61"/>
    <path fill="#847b7b" d="M231.34 190.04l1.61 2.87v7.95l-1.61 1.23v-12.05"/>
    <path fill="#7c7575" d="M231.34 190.04l1.61 2.87 25.31 14.61 1.61-1-28.53-16.48"/>
    <path fill="#ada6a6" d="M232.95 200.86l-1.61 1.23 28.53 16.47-1.61-3.09-25.31-14.61"/>
    <path fill="#8e8d8d" d="M258.26 215.47v-7.95l1.61-1v12.04l-1.61-3.09"/>
    <path fill="#c4881c" d="M236.07 197.06l22.07 12.74v1.2l-22.07-12.84v-1.1"/>
    <path fill="#9c6d1e" d="M236.07 197.06l2.25-1.14 19.82 11.53v2.35l-22.07-12.74"/>
    <path fill="#9e9191" d="M231.34 218.56v12.04l28.53 16.47v-12.04l-28.53-16.47"/>
    <path fill="none" stroke="#9e9191" stroke-miterlimit="10" d="M231.34 218.56v12.04l28.53 16.47v-12.04l-28.53-16.47z"/>
    <path fill="#6b6565" d="M232.95 221.42v7.95l25.31 14.62v-7.95l-25.31-14.62"/>
    <path fill="#969696" d="M239.88 225.42l-6.93 3.95 25.31 14.62v-7.95l-18.38-10.62"/>
    <path fill="#847b7b" d="M231.34 218.56l1.61 2.86v7.95l-1.61 1.23v-12.04"/>
    <path fill="#7c7575" d="M231.34 218.56l1.61 2.86 25.31 14.62 1.61-1.01-28.53-16.47"/>
    <path fill="#ada6a6" d="M232.95 229.37l-1.61 1.23 28.53 16.47-1.61-3.08-25.31-14.62"/>
    <path fill="#8e8d8d" d="M258.26 243.99v-7.95l1.61-1.01v12.04l-1.61-3.08"/>
    <path fill="#c4881c" d="M236.07 225.57l22.07 12.74v1.2l-22.07-12.83v-1.11"/>
    <path fill="#9c6d1e" d="M236.07 225.57l2.25-1.13 19.82 11.52v2.35l-22.07-12.74"/>
    <path fill="#9e9191" d="M293.65 141.17v12.04l28.53 16.47v-12.04l-28.53-16.47"/>
    <path fill="none" stroke="#9e9191" stroke-miterlimit="10" d="M293.65 141.17v12.04l28.53 16.47v-12.04l-28.53-16.47z"/>
    <path fill="#6b6565" d="M295.26 144.04v7.95l25.31 14.61v-7.95l-25.31-14.61"/>
    <path fill="#969696" d="M302.19 148.04l-6.93 3.95 25.31 14.61v-7.95l-18.38-10.61"/>
    <path fill="#847b7b" d="M293.65 141.17l1.61 2.87v7.95l-1.61 1.22v-12.04"/>
    <path fill="#7c7575" d="M293.65 141.17l1.61 2.87 25.31 14.61 1.61-1.01-28.53-16.47"/>
    <path fill="#ada6a6" d="M295.26 151.99l-1.61 1.22 28.53 16.47-1.61-3.08-25.31-14.61"/>
    <path fill="#8e8d8d" d="M320.57 166.6v-7.95l1.61-1.01v12.04l-1.61-3.08"/>
    <path fill="#c4881c" d="M298.38 148.18l22.06 12.74v1.2l-22.06-12.83v-1.11"/>
    <path fill="#9c6d1e" d="M298.38 148.18l2.25-1.13 19.81 11.53v2.34l-22.06-12.74"/>
    <path fill="#9e9191" d="M293.65 169.68v12.04l28.53 16.48v-12.04l-28.53-16.48"/>
    <path fill="none" stroke="#9e9191" stroke-miterlimit="10" d="M293.65 169.68v12.04l28.53 16.48v-12.04l-28.53-16.48z"/>
    <path fill="#6b6565" d="M295.26 172.55v7.95l25.31 14.61v-7.95l-25.31-14.61"/>
    <path fill="#969696" d="M302.19 176.55l-6.93 3.95 25.31 14.61v-7.95l-18.38-10.61"/>
    <path fill="#847b7b" d="M293.65 169.68l1.61 2.87v7.95l-1.61 1.22v-12.04"/>
    <path fill="#7c7575" d="M293.65 169.68l1.61 2.87 25.31 14.61 1.61-1-28.53-16.48"/>
    <path fill="#ada6a6" d="M295.26 180.5l-1.61 1.22 28.53 16.48-1.61-3.09-25.31-14.61"/>
    <path fill="#8e8d8d" d="M320.57 195.11v-7.95l1.61-1v12.04l-1.61-3.09"/>
    <path fill="#c4881c" d="M298.38 176.7l22.06 12.74v1.19l-22.06-12.83v-1.1"/>
    <path fill="#9c6d1e" d="M298.38 176.7l2.25-1.14 19.81 11.53v2.35l-22.06-12.74"/>
    <path fill="#9e9191" d="M293.65 198.2v12.04l28.53 16.47v-12.04l-28.53-16.47"/>
    <path fill="none" stroke="#9e9191" stroke-miterlimit="10" d="M293.65 198.2v12.04l28.53 16.47v-12.04l-28.53-16.47z"/>
    <path fill="#6b6565" d="M295.26 201.06v7.95l25.31 14.62v-7.95l-25.31-14.62"/>
    <path fill="#969696" d="M302.19 205.06l-6.93 3.95 25.31 14.62v-7.95l-18.38-10.62"/>
    <path fill="#847b7b" d="M293.65 198.2l1.61 2.86v7.95l-1.61 1.23V198.2"/>
    <path fill="#7c7575" d="M293.65 198.2l1.61 2.86 25.31 14.62 1.61-1.01-28.53-16.47"/>
    <path fill="#ada6a6" d="M295.26 209.01l-1.61 1.23 28.53 16.47-1.61-3.08-25.31-14.62"/>
    <path fill="#8e8d8d" d="M320.57 223.63v-7.95l1.61-1.01v12.04l-1.61-3.08"/>
    <path fill="#c4881c" d="M298.38 205.21l22.06 12.74v1.2l-22.06-12.84v-1.1"/>
    <path fill="#9c6d1e" d="M298.38 205.21l2.25-1.14 19.81 11.53v2.35l-22.06-12.74"/>
    <path fill="#9e9191" d="M293.65 226.71v12.04l28.53 16.47v-12.04l-28.53-16.47"/>
    <path fill="none" stroke="#9e9191" stroke-miterlimit="10" d="M293.65 226.71v12.04l28.53 16.47v-12.04l-28.53-16.47z"/>
    <path fill="#6b6565" d="M295.26 229.57v7.96l25.31 14.61v-7.95l-25.31-14.62"/>
    <path fill="#969696" d="M302.19 233.58l-6.93 3.95 25.31 14.61v-7.95l-18.38-10.61"/>
    <path fill="#847b7b" d="M293.65 226.71l1.61 2.86v7.96l-1.61 1.22v-12.04"/>
    <path fill="#7c7575" d="M293.65 226.71l1.61 2.86 25.31 14.62 1.61-1.01-28.53-16.47"/>
    <path fill="#ada6a6" d="M295.26 237.53l-1.61 1.22 28.53 16.47-1.61-3.08-25.31-14.61"/>
    <path fill="#8e8d8d" d="M320.57 252.14v-7.95l1.61-1.01v12.04l-1.61-3.08"/>
    <path fill="#c4881c" d="M298.38 233.72l22.06 12.74v1.2l-22.06-12.83v-1.11"/>
    <path fill="#9c6d1e" d="M298.38 233.72l2.25-1.13 19.81 11.53v2.34l-22.06-12.74"/>
    <path fill="#9e9191" d="M293.65 255.22v12.04l28.53 16.48v-12.05l-28.53-16.47"/>
    <path fill="none" stroke="#9e9191" stroke-miterlimit="10" d="M293.65 255.22v12.04l28.53 16.48v-12.05l-28.53-16.47z"/>
    <path fill="#6b6565" d="M295.26 258.09v7.95l25.31 14.61v-7.95l-25.31-14.61"/>
    <path fill="#969696" d="M302.19 262.09l-6.93 3.95 25.31 14.61v-7.95l-18.38-10.61"/>
    <path fill="#847b7b" d="M293.65 255.22l1.61 2.87v7.95l-1.61 1.22v-12.04"/>
    <path fill="#7c7575" d="M293.65 255.22l1.61 2.87 25.31 14.61 1.61-1.01-28.53-16.47"/>
    <path fill="#ada6a6" d="M295.26 266.04l-1.61 1.22 28.53 16.48-1.61-3.09-25.31-14.61"/>
    <path fill="#8e8d8d" d="M320.57 280.65v-7.95l1.61-1.01v12.05l-1.61-3.09"/>
    <path fill="#c4881c" d="M298.38 262.24l22.06 12.73v1.2l-22.06-12.83v-1.1"/>
    <path fill="#9c6d1e" d="M298.38 262.24l2.25-1.14 19.81 11.53v2.34l-22.06-12.73"/>
    <path fill="#9e9191" d="M354.96 177.07v12.05l28.53 16.47v-12.05l-28.53-16.47"/>
    <path fill="none" stroke="#9e9191" stroke-miterlimit="10" d="M354.96 177.07v12.05l28.53 16.47v-12.05l-28.53-16.47z"/>
    <path fill="#6b6565" d="M356.57 179.94v7.95l25.31 14.61v-7.95l-25.31-14.61"/>
    <path fill="#969696" d="M363.5 183.94l-6.93 3.95 25.31 14.61v-7.95l-18.38-10.61"/>
    <path fill="#847b7b" d="M354.96 177.07l1.61 2.87v7.95l-1.61 1.23v-12.05"/>
    <path fill="#7c7575" d="M354.96 177.07l1.61 2.87 25.31 14.61 1.61-1.01-28.53-16.47"/>
    <path fill="#ada6a6" d="M356.57 187.89l-1.61 1.23 28.53 16.47-1.61-3.09-25.31-14.61"/>
    <path fill="#8e8d8d" d="M381.88 202.5v-7.95l1.61-1.01v12.05l-1.61-3.09"/>
    <path fill="#c4881c" d="M359.69 184.09l22.07 12.74v1.19l-22.07-12.83v-1.1"/>
    <path fill="#9c6d1e" d="M359.69 184.09l2.25-1.14 19.82 11.53v2.35l-22.07-12.74"/>
    <path fill="#9e9191" d="M354.96 205.59v12.04l28.53 16.47v-12.04l-28.53-16.47"/>
    <path fill="none" stroke="#9e9191" stroke-miterlimit="10" d="M354.96 205.59v12.04l28.53 16.47v-12.04l-28.53-16.47z"/>
    <path fill="#6b6565" d="M356.57 208.45v7.95l25.31 14.62v-7.95l-25.31-14.62"/>
    <path fill="#969696" d="M363.5 212.45l-6.93 3.95 25.31 14.62v-7.95l-18.38-10.62"/>
    <path fill="#847b7b" d="M354.96 205.59l1.61 2.86v7.95l-1.61 1.23v-12.04"/>
    <path fill="#7c7575" d="M354.96 205.59l1.61 2.86 25.31 14.62 1.61-1.01-28.53-16.47"/>
    <path fill="#ada6a6" d="M356.57 216.4l-1.61 1.23 28.53 16.47-1.61-3.08-25.31-14.62"/>
    <path fill="#8e8d8d" d="M381.88 231.02v-7.95l1.61-1.01v12.04l-1.61-3.08"/>
    <path fill="#c4881c" d="M359.69 212.6l22.07 12.74v1.2l-22.07-12.84v-1.1"/>
    <path fill="#9c6d1e" d="M359.69 212.6l2.25-1.13 19.82 11.52v2.35l-22.07-12.74"/>
    <path fill="#9e9191" d="M354.96 234.1v12.04l28.53 16.47v-12.04l-28.53-16.47"/>
    <path fill="none" stroke="#9e9191" stroke-miterlimit="10" d="M354.96 234.1v12.04l28.53 16.47v-12.04l-28.53-16.47z"/>
    <path fill="#6b6565" d="M356.57 236.97v7.95l25.31 14.61v-7.95l-25.31-14.61"/>
    <path fill="#969696" d="M363.5 240.97l-6.93 3.95 25.31 14.61v-7.95l-18.38-10.61"/>
    <path fill="#847b7b" d="M354.96 234.1l1.61 2.87v7.95l-1.61 1.22V234.1"/>
    <path fill="#7c7575" d="M354.96 234.1l1.61 2.87 25.31 14.61 1.61-1.01-28.53-16.47"/>
    <path fill="#ada6a6" d="M356.57 244.92l-1.61 1.22 28.53 16.47-1.61-3.08-25.31-14.61"/>
    <path fill="#8e8d8d" d="M381.88 259.53v-7.95l1.61-1.01v12.04l-1.61-3.08"/>
    <path fill="#c4881c" d="M359.69 241.11l22.07 12.74v1.2l-22.07-12.83v-1.11"/>
    <path fill="#9c6d1e" d="M359.69 241.11l2.25-1.13 19.82 11.53v2.34l-22.07-12.74"/>
    <path fill="#9e9191" d="M354.96 262.61v12.04l28.53 16.48v-12.05l-28.53-16.47"/>
    <path fill="none" stroke="#9e9191" stroke-miterlimit="10" d="M354.96 262.61v12.04l28.53 16.48v-12.05l-28.53-16.47z"/>
    <path fill="#6b6565" d="M356.57 265.48v7.95l25.31 14.61v-7.95l-25.31-14.61"/>
    <path fill="#969696" d="M363.5 269.48l-6.93 3.95 25.31 14.61v-7.95l-18.38-10.61"/>
    <path fill="#847b7b" d="M354.96 262.61l1.61 2.87v7.95l-1.61 1.22v-12.04"/>
    <path fill="#7c7575" d="M354.96 262.61l1.61 2.87 25.31 14.61 1.61-1.01-28.53-16.47"/>
    <path fill="#ada6a6" d="M356.57 273.43l-1.61 1.22 28.53 16.48-1.61-3.09-25.31-14.61"/>
    <path fill="#8e8d8d" d="M381.88 288.04v-7.95l1.61-1.01v12.05l-1.61-3.09"/>
    <path fill="#c4881c" d="M359.69 269.63l22.07 12.74v1.19l-22.07-12.83v-1.1"/>
    <path fill="#9c6d1e" d="M359.69 269.63l2.25-1.14 19.82 11.53v2.35l-22.07-12.74"/>
    <path fill="#9e9191" d="M354.96 291.13v12.04l28.53 16.47V307.6l-28.53-16.47"/>
    <path fill="none" stroke="#9e9191" stroke-miterlimit="10" d="M354.96 291.13v12.04l28.53 16.47V307.6l-28.53-16.47z"/>
    <path fill="#6b6565" d="M356.57 293.99v7.95l25.31 14.62v-7.95l-25.31-14.62"/>
    <path fill="#969696" d="M363.5 297.99l-6.93 3.95 25.31 14.62v-7.95l-18.38-10.62"/>
    <path fill="#847b7b" d="M354.96 291.13l1.61 2.86v7.95l-1.61 1.23v-12.04"/>
    <path fill="#7c7575" d="M354.96 291.13l1.61 2.86 25.31 14.62 1.61-1.01-28.53-16.47"/>
    <path fill="#ada6a6" d="M356.57 301.94l-1.61 1.23 28.53 16.47-1.61-3.08-25.31-14.62"/>
    <path fill="#8e8d8d" d="M381.88 316.56v-7.95l1.61-1.01v12.04l-1.61-3.08"/>
    <path fill="#c4881c" d="M359.69 298.14l22.07 12.74v1.2l-22.07-12.84v-1.1"/>
    <path fill="#9c6d1e" d="M359.69 298.14l2.25-1.14 19.82 11.53v2.35l-22.07-12.74"/>
    <path opacity=".2" d="M314.1 284.08l5.3 2.93.09-4.75 1.08-1.92-6.47 3.74"/>
    <path opacity=".2" d="M247.83 189.1l9 4.87.09-4.75 1.08-1.92-10.17 1.8"/>
    <path fill="#009bef" d="M233.09 221.36l-12.59 7.52 25.11 14.48 12.65-7.31-25.17-14.69"/>
    <path fill="#175d8d" d="M245.61 243.36v7.95l12.65-7.31v-7.95l-12.65 7.31"/>
    <path fill="#009bef" d="M229.65 221.66L258 238.01l-21.32 11.94-15.52.63-13.32-7.69v-8.68l21.81-12.55"/>
    <path fill="#0570a0" d="M258 238.01v6.14l-21.32 12.33v-6.53L258 238.01"/>
    <path d="M257.33 215.8l-27.68-16-22.23 12.79-3.77-2.38v6.29a3.29 3.29 0 0 0 1.64 3.06l17.63 10.18h.1v-6.78h10.52v6.82z" fill="#047cc0"/>
    <path fill="#047cc0" d="M207.84 242.89l13.32 7.69v6.62l-13.22-7.87-.1-6.44"/>
    <path fill="#009bef" d="M295.43 258.19l-15.3 9.16 25.1 14.47 15.34-9.12-25.14-14.51"/>
    <path fill="#175d8d" d="M305.23 281.82l5.27 1.35 4.04.7 6.03-3.51v-7.66l-15.34 9.12"/>
    <path fill="#047cc0" d="M259.93 277l27.95 16.14v6.65l-27.95-16.38V277"/>
    <path fill="#009bef" d="M233.09 193.07l-12.59 7.53 25.11 14.47 12.65-7.3-25.17-14.7"/>
    <path fill="#175d8d" d="M245.61 215.07v7.9l12.65-7.25v-7.95l-12.65 7.3"/>
    <path d="M229.65 199.85l-22.23 12.79-3.77-2.38v6.29a3.29 3.29 0 0 0 1.64 3.06l17.63 10.18a10.77 10.77 0 0 0 10.65.07l23.74-14.06z" fill="#047cc0"/>
    <path d="M229.65 193.38L258 209.72l-24.41 13.68a10.77 10.77 0 0 1-10.65-.07l-17.63-10.18a3.33 3.33 0 0 1 0-5.78z" fill="#009bef"/>
    <path fill="#0570a0" d="M258 209.72v6.15l-24.55 14.05.05-6.47 24.5-13.73"/>
    <path fill="#009bef" d="M233.09 164.48l-12.59 7.53 25.11 14.47 12.65-7.31-25.17-14.69"/>
    <path fill="#175d8d" d="M245.61 186.48h7.35l3.86 1.48 1.44-.84v-7.95l-12.65 7.31"/>
    <path fill="#009bef" d="M229.65 164.79L258 181.13l-29.75 16.67-27.94-16.14 29.34-16.87"/>
    <path fill="#0570a0" d="M258 181.13v6.15l-3.59 2.07-.01-2.04-26.15 14.32v-3.83L258 181.13"/>
    <path fill="#047cc0" d="M200.31 181.66l27.94 16.14v3.83l-3.41.85-23.12-13.58-1.41-2.94v-4.3"/>
    <path fill="#009bef" d="M233.09 135.88l-12.59 7.53 25.11 14.48 12.65-7.31-25.17-14.7"/>
    <path fill="#175d8d" d="M245.61 157.89v7.95l12.65-7.31v-7.95l-12.65 7.31"/>
    <path fill="#5a3ec8" d="M204.93 162.19l20.6-11.78-1.53-.89-19.07 10.96v1.71"/>
    <path fill="#009bef" d="M229.65 136.19L258 152.53l-29.75 16.67-27.94-16.13 29.34-16.88"/>
    <path fill="#058bc6" d="M224.87 144.3l19.26 11.1-11.81 6.61-8.41 4.71-18.98-10.96 19.94-11.46"/>
    <path fill="#0570a0" d="M258 152.53v6.15l-29.75 17.21v-6.69L258 152.53"/>
    <path fill="#009bef" d="M233.09 107.29l-12.59 7.53 25.11 14.47 12.65-7.31-25.17-14.69"/>
    <path fill="#175d8d" d="M245.61 129.29v7.95l12.65-7.3v-7.96l-12.65 7.31"/>
    <path fill="#009bef" d="M229.65 107.6L258 123.94l-29.75 16.67-27.94-16.13 29.34-16.88"/>
    <path fill="#0570a0" d="M258 123.94v6.15l-29.75 17.2v-6.68L258 123.94"/>
    <path fill="#047cc0" d="M200.31 124.48l27.94 16.13v6.68l-27.94-16.4v-6.41"/>
    <path fill="#009bef" d="M204.51 126.9v1.6l4.95 2.96 2.68-.15 31.09-18.13-7.71-4.49-31.01 18.21"/>
    <path fill="#0570a0" d="M204.51 126.9v1.6l32.6-18.89-1.59-.92-31.01 18.21"/>
    <path fill="#0cadf4" d="M212.14 131.31l31.09-18.13-1.02-.6-32.75 18.88 2.68-.15"/>
    <path opacity=".2" d="M235.52 108.69v1.85l5.09 2.97 1.6.27 1.02-.6-7.71-4.49"/>
    <path fill="#047cc0" d="M200.31 153.07v6.41l4.62 2.72v-1.4l18.98 10.95v1.59l4.34 2.54v-6.68l-27.94-16.13"/>
    <path fill="#058bc6" d="M205.04 155.7l-.11 1.77 18.98 10.85v-1.67l-18.87-10.95"/>
    <path fill="#0570a0" d="M204.93 157.47l20.6-11.77-1.53-.9-19.07 10.96v1.71"/>
    <path fill="#047cc0" d="M244.13 155.4l-1.69.94-17.78-10.15v-1l3.59 2.1.9-.52 14.98 8.63"/>
    <path fill="#175d8d" d="M254.41 189.35l-2.02-.94 2.01-1.1.01 2.04"/>
    <path fill="#058bc6" d="M210.32 184.07l5.52-3.19 12.66 7.31-5.52 3.19-12.66-7.31"/>
    <path fill="#0570a0" d="M215.84 180.88v.56l-4.13 3.43-1.39-.8 5.52-3.19"/>
    <path fill="#047cc0" d="M215.84 180.88l12.66 7.31-.52.3-12.14-7.05"/>
    <path d="M223 223.38v6.47a10.76 10.76 0 0 0 10.52 0v-6.47a10.76 10.76 0 0 1-10.52 0z" fill="url(#e)"/>
    <path fill="#175d8d" d="M236.23 221.92l1.68-.94v3.67l-1.75.97.07-3.7"/>
    <path fill="#0991ce" d="M236.23 221.92l-5.41-3.03 1.65-.95 5.44 3.04-1.68.94"/>
    <path fill="#0570a0" d="M232.47 217.94v.93l-.81.49-.84-.47 1.65-.95"/>
    <path fill="#0570a0" d="M232.47 218.87l4.57 2.6v2.64l.87.54v-3.67l-5.44-3.04"/>
    <path fill="#08597c" d="M237.04 224.11v-2.64l.87-.49v3.67l-.87-.54"/>
    <path fill="#0991ce" d="M237.04 224.11l-.88.47v1.04l1.75-.97-.87-.54"/>
    <path fill="#175d8d" d="M238.97 220.41l1.67-.94v3.66l-1.74.98.07-3.7"/>
    <path fill="#0991ce" d="M238.97 220.41l-5.41-3.03 1.65-.96 5.43 3.05-1.67.94"/>
    <path fill="#0570a0" d="M235.21 216.42v.94l-.82.49-.83-.47 1.65-.96"/>
    <path fill="#0570a0" d="M235.21 217.36l4.56 2.6v2.64l.87.53v-3.66l-5.43-3.05"/>
    <path fill="#08597c" d="M239.77 222.6v-2.64l.87-.49v3.66l-.87-.53"/>
    <path fill="#0991ce" d="M239.77 222.6l-.87.47v1.04l1.74-.98-.87-.53"/>
    <path fill="#175d8d" d="M241.71 218.9l1.67-.94v3.66l-1.74.98.07-3.7"/>
    <path fill="#0991ce" d="M241.71 218.9l-5.41-3.03 1.65-.96 5.43 3.05-1.67.94"/>
    <path fill="#0570a0" d="M237.95 214.91v.94l-.82.49-.83-.47 1.65-.96"/>
    <path fill="#0570a0" d="M237.95 215.85l4.56 2.59v2.65l.87.53v-3.66l-5.43-3.05"/>
    <path fill="#08597c" d="M242.51 221.09v-2.65l.87-.48v3.66l-.87-.53"/>
    <path fill="#0991ce" d="M242.51 221.09l-.87.47v1.04l1.74-.98-.87-.53"/>
    <path fill="#175d8d" d="M244.44 217.38l1.68-.94v3.67l-1.74.98.06-3.71"/>
    <path fill="#0991ce" d="M244.44 217.38l-5.4-3.02 1.65-.96 5.43 3.04-1.68.94"/>
    <path fill="#0570a0" d="M240.69 213.4v.94l-.82.48-.83-.46 1.65-.96"/>
    <path fill="#0570a0" d="M240.69 214.34l4.56 2.59v2.65l.87.53v-3.67l-5.43-3.04"/>
    <path fill="#08597c" d="M245.25 219.58v-2.65l.87-.49v3.67l-.87-.53"/>
    <path fill="#0991ce" d="M245.25 219.58l-.87.46v1.05l1.74-.98-.87-.53"/>
    <path fill="#175d8d" d="M247.18 215.87l1.68-.94v3.67l-1.74.98.06-3.71"/>
    <path fill="#0991ce" d="M247.18 215.87l-5.4-3.02 1.65-.96 5.43 3.04-1.68.94"/>
    <path fill="#0570a0" d="M243.43 211.89v.94l-.83.48-.82-.46 1.65-.96"/>
    <path fill="#0570a0" d="M243.43 212.83l4.56 2.59v2.64l.87.54v-3.67l-5.43-3.04"/>
    <path fill="#08597c" d="M247.99 218.06v-2.64l.87-.49v3.67l-.87-.54"/>
    <path fill="#0991ce" d="M247.99 218.06l-.87.47v1.05l1.74-.98-.87-.54"/>
    <path fill="#175d8d" d="M249.92 214.36l1.67-.94v3.67l-1.74.97.07-3.7"/>
    <path fill="#0991ce" d="M249.92 214.36l-5.41-3.03 1.65-.95 5.43 3.04-1.67.94"/>
    <path fill="#0570a0" d="M246.16 210.38v.93l-.82.49-.83-.47 1.65-.95"/>
    <path fill="#0570a0" d="M246.16 211.31l4.56 2.6v2.64l.87.54v-3.67l-5.43-3.04"/>
    <path fill="#08597c" d="M250.72 216.55v-2.64l.87-.49v3.67l-.87-.54"/>
    <path fill="#0991ce" d="M250.72 216.55l-.87.47v1.04l1.74-.97-.87-.54"/>
    <path fill="#175d8d" d="M252.66 212.85l1.67-.94v3.66l-1.74.98.07-3.7"/>
    <path fill="#0991ce" d="M252.66 212.85l-5.41-3.03 1.65-.96 5.43 3.05-1.67.94"/>
    <path fill="#0570a0" d="M248.9 208.86v.94l-.82.49-.83-.47 1.65-.96"/>
    <path fill="#0570a0" d="M248.9 209.8l4.56 2.6v2.64l.87.53v-3.66l-5.43-3.05"/>
    <path fill="#08597c" d="M253.46 215.04v-2.64l.87-.49v3.66l-.87-.53"/>
    <path fill="#0991ce" d="M253.46 215.04l-.87.47v1.04l1.74-.98-.87-.53"/>
    <path fill="#19b1f4" d="M214.4 239.97l2.1-1.19 10.02 5.67-2.29 1.23-9.83-5.71"/>
    <path fill="#0570a0" d="M224.23 245.68l-5.33 3.52 7.62-3.95v-.8l-2.29 1.23"/>
    <path fill="#1b93c9" d="M214.4 239.97l-5.01 3.74 9.51 5.49 5.33-3.52-9.83-5.71"/>
    <path fill="#009bef" d="M289.28 260.13l-2.36 1.35-.86 2.48-18.75 10.93-7.38 2.11 27.95 16.14 29.75-16.67-28.35-16.34"/>
    <path fill="#1b93c9" d="M314.72 278.1l-4.16.06-18.74 10.65-3.94 4.33"/>
    <path fill="#0570a0" d="M287.88 293.14v6.65l3.94-4.33 18.76-11.11 4.14-.11 2.91-1.84v-5.93l-29.75 16.67"/>
    <path fill="#175d8d" d="M310.58 284.35l-.02-6.19 4.16-.06v6.14l-4.14.11"/>
    <path fill="#175d8d" d="M291.82 288.81v6.65l-3.94 4.33v-6.65l3.94-4.33"/>
    <path fill="#175d8d" d="M310.56 278.16l-18.74 10.65v6.65l18.76-11.11-.02-6.19"/>
    <path opacity=".2" d="M517.97 308.19l7.28.31 29.86-17.05-5.8-.07-31.34 16.81"/>
    <path opacity=".2" d="M126.98 291.88h5.19l24.25-14.33h2.75l4-2.29-18.67-10.7-18.4 15.53.88 11.79"/>
    <path opacity=".2" d="M424.19 141.68l4.73-3.33h-4.73v3.33"/>
    <path opacity=".2" d="M442.27 138.35l3.73-2.01v-27.17h-7.75l4.02 29.18"/>
    <path opacity=".2" d="M320.23 73.42l8.17-.33 2.29 1.33 7.14-.67 2.34 1.34 35.87-20.95-11.69-6.5-44.12 25.78"/>
    <path opacity=".2" d="M251.53 133.83l5.3 2.92.09-4.75 1.08-1.91-6.47 3.74"/>
    <path opacity=".2" d="M251.53 162.42l5.3 2.93.09-4.75 1.08-1.92-6.47 3.74"/>
    <path opacity=".2" d="M251.53 219.61l5.3 2.93.09-4.75 1.08-1.92-6.47 3.74"/>
    <path opacity=".2" d="M251.53 247.9l5.3 2.93.09-4.75 1.08-1.92-6.47 3.74"/>
    <path fill="#009bef" d="M124.67 253.86l-24.43 14.56 26.74 15.97 24.98-14.6-27.29-15.93"/>
    <path fill="#009bef" d="M114.68 244.3l30.22 17.42-31.74 18.37-30.3-17.49 31.82-18.3"/>
    <path fill="#047cc0" d="M82.86 262.6l30.3 17.49-.13 7.83-30.17-17.46v-7.86"/>
    <path fill="#0570a0" d="M113.16 280.09l3.36-1.95v7.82l-3.49 1.96.13-7.83"/>
    <path fill="#047cc0" d="M116.52 278.14l10.46 6.25v7.49l-10.46-5.92v-7.82"/>
    <path fill="#0570a0" d="M144.9 261.72v3.95l-3.38-1.97 3.38-1.98"/>
    <path fill="#047cc0" d="M126.98 284.39l24.98-14.6v7.47l-24.98 14.62v-7.49"/>
    <path fill="#175d8d" d="M127.57 284.74l23.8-13.91v6.16l-23.8 13.93v-6.18"/>
    <path fill="#105277" d="M151.37 276.99l-5.52-2.93 5.52-3.23v6.16"/>
    <path fill="#1c496d" d="M148.04 272.78v2.43L127.57 287v-2.26l20.47-11.96"/>
    <path fill="#70541b" d="M146.57 273.64v.86l-18.41 10.73.01-.84 18.4-10.75"/>
    <path fill="#5b421a" d="M146.57 274.5l-.76-.43.76-.43v.86"/>
    <path fill="#009bef" d="M119.78 246.73l-24.43 14.56 26.74 15.97 24.98-14.6-27.29-15.93"/>
    <path fill="#009bef" d="M109.79 237.17l30.22 17.42-31.74 18.37-30.3-17.49 31.82-18.3"/>
    <path fill="#047cc0" d="M77.97 255.47l30.3 17.49-.13 7.83-30.17-17.46v-7.86"/>
    <path fill="#0570a0" d="M108.27 272.96l3.36-1.95v7.82l-3.49 1.96.13-7.83"/>
    <path fill="#047cc0" d="M111.63 271.01l10.46 6.25v7.49l-10.46-5.92v-7.82"/>
    <path fill="#0570a0" d="M140.01 254.59v3.95l-3.38-1.97 3.38-1.98"/>
    <path fill="#047cc0" d="M122.09 277.26l24.98-14.6v7.47l-24.98 14.62v-7.49"/>
    <path fill="#175d8d" d="M122.68 277.61l23.8-13.91v6.16l-23.8 13.93v-6.18"/>
    <path fill="#105277" d="M146.48 269.86l-5.51-2.94 5.51-3.22v6.16"/>
    <path fill="#1c496d" d="M143.15 265.65v2.43l-20.47 11.79v-2.26l20.47-11.96"/>
    <path fill="#70541b" d="M141.68 266.51v.86l-18.41 10.73.01-.84 18.4-10.75"/>
    <path fill="#5b421a" d="M141.68 267.37l-.76-.43.76-.43v.86"/>
    <path fill="#009bef" d="M125.54 235.39l-24.42 14.55 26.74 15.98 24.98-14.6-27.3-15.93"/>
    <path fill="#009bef" d="M115.55 225.83l30.23 17.42-31.75 18.37-30.29-17.49 31.81-18.3"/>
    <path fill="#047cc0" d="M83.74 244.13l30.29 17.49-.12 7.82-30.17-17.45v-7.86"/>
    <path fill="#0570a0" d="M114.03 261.62l3.37-1.95v7.81l-3.49 1.96.12-7.82"/>
    <path fill="#047cc0" d="M117.4 259.67l10.46 6.25v7.49l-10.46-5.93v-7.81"/>
    <path fill="#0570a0" d="M145.78 243.25v3.95l-3.39-1.98 3.39-1.97"/>
    <path fill="#047cc0" d="M127.86 265.92l24.98-14.6v7.46l-24.98 14.63v-7.49"/>
    <path fill="#175d8d" d="M128.45 266.27l23.8-13.92v6.16l-23.8 13.94v-6.18"/>
    <path fill="#105277" d="M152.25 258.51l-5.52-2.93 5.52-3.23v6.16"/>
    <path fill="#1c496d" d="M148.91 254.3v2.44l-20.46 11.78v-2.25l20.46-11.97"/>
    <path fill="#70541b" d="M147.44 255.16v.86l-18.4 10.74v-.84l18.4-10.76"/>
    <path fill="#5b421a" d="M147.44 256.02l-.76-.43.76-.43v.86"/>
    <path fill="#009bef" d="M332.22 367.96l-26.07 11.37 2.61-31.04 26.42-11.79-2.96 31.46"/>
    <path fill="#009bef" d="M334.17 381.65l3.45-34.71-33.42 15.09-3.45 34.81 33.42-15.19"/>
    <path fill="#047cc0" d="M300.75 396.84l3.45-34.81-6.44-4.46-3.39 34.68 6.38 4.59"/>
    <path fill="#0570a0" d="M304.2 362.03l3.54-1.6-6.35-4.56-3.63 1.7 6.44 4.46"/>
    <path fill="#047cc0" d="M307.74 360.43l1.02-12.14-6.09-4.37-1.28 11.95 6.35 4.56"/>
    <path fill="#0570a0" d="M337.62 346.94l-3.21-2.31-.36 3.91 3.57-1.6"/>
    <path fill="#047cc0" d="M308.76 348.29l26.42-11.79-6.07-4.35-26.44 11.77 6.09 4.37"/>
    <path fill="#175d8d" d="M308.82 347.61l25.17-11.24-5-3.59-25.2 11.22 5.03 3.61"/>
    <path fill="#105277" d="M328.99 332.78l-.83 6.2 5.83-2.61-5-3.59"/>
    <path fill="#1c496d" d="M330.46 337.94l-1.97-1.42-21.51 9.77 1.84 1.32 21.64-9.67"/>
    <path fill="#70541b" d="M328.91 338.64l-.7-.5-19.45 8.7.69.48 19.46-8.68"/>
    <path fill="#5b421a" d="M328.21 338.14l-.09.87.79-.37-.7-.5"/>
    <path fill="#009bef" d="M322.55 35.4l24.43 14.56-26.75 15.97-24.97-14.6 27.29-15.93"/>
    <path fill="#009bef" d="M332.54 25.84l-30.23 17.42 31.75 18.37 30.29-17.49-31.81-18.3"/>
    <path fill="#047cc0" d="M364.35 44.14l-30.29 17.49.12 7.83 30.17-17.45v-7.87"/>
    <path fill="#0570a0" d="M334.06 61.63l-3.37-1.94v7.81l3.49 1.96-.12-7.83"/>
    <path fill="#047cc0" d="M330.69 59.69l-10.46 6.24v7.49l10.46-5.92v-7.81"/>
    <path fill="#0570a0" d="M302.31 43.26v3.95l3.39-1.97-3.39-1.98"/>
    <path fill="#047cc0" d="M320.23 65.93l-24.97-14.6v7.47l24.97 14.62v-7.49"/>
    <path fill="#175d8d" d="M319.64 66.28l-23.79-13.91v6.16l23.79 13.93v-6.18"/>
    <path fill="#105277" d="M295.85 58.53l5.51-2.94-5.51-3.22v6.16"/>
    <path fill="#1c496d" d="M299.18 54.32v2.44l20.46 11.78v-2.26l-20.46-11.96"/>
    <path fill="#70541b" d="M300.65 55.18v.86l18.4 10.73v-.84l-18.4-10.75"/>
    <path fill="#5b421a" d="M300.65 56.04l.76-.43-.76-.43v.86"/>
    <path fill="#009bef" d="M331.3 27.91l24.43 14.56-26.74 15.97-24.98-14.6 27.29-15.93"/>
    <path fill="#047cc0" d="M373.1 36.65l-30.29 17.49.12 7.83 30.17-17.45v-7.87"/>
    <path fill="#0570a0" d="M342.81 54.14l-3.37-1.94v7.81l3.49 1.96-.12-7.83"/>
    <path fill="#047cc0" d="M339.44 52.2l-10.45 6.24v7.49l10.45-5.92V52.2"/>
    <path fill="#0570a0" d="M311.07 35.77v3.95l3.38-1.97-3.38-1.98"/>
    <path fill="#047cc0" d="M328.99 58.44l-24.98-14.6v7.47l24.98 14.62v-7.49"/>
    <path fill="#175d8d" d="M328.4 58.79l-23.8-13.91v6.16l23.8 13.93v-6.18"/>
    <path fill="#105277" d="M304.6 51.04l5.51-2.93-5.51-3.23v6.16"/>
    <path fill="#1c496d" d="M307.93 46.83v2.44l20.47 11.78v-2.26l-20.47-11.96"/>
    <path fill="#70541b" d="M309.4 47.69v.86l18.41 10.73-.01-.84-18.4-10.75"/>
    <path fill="#5b421a" d="M309.4 48.55l.76-.43-.76-.43v.86"/>
    <path fill="#047cc0" d="M532.5 251.13l-3.55 2.01-5.6-11.99-24.25 14.04 5.96 11.54-4.39 2.49 17.3 38.97 30.6-17.67-16.07-39.39"/>
    <path fill="#009bef" d="M538.07 250.19l-3.87 2.2-5.28-12.18-24.24 14.04 5.95 11.54-4.38 2.49 17.29 38.97 30.6-17.66-16.07-39.4"/>
    <path fill="#047cc0" d="M504.68 254.25l-5.58.94 5.96 11.54 5.57-.94-5.95-11.54"/>
    <path fill="#0570a0" d="M510.63 265.79l-4.38 2.49-5.58.94 4.39-2.49 5.57-.94"/>
    <path fill="#0570a0" d="M517.97 308.19l5.57-.94-17.29-38.97-5.58.94 17.3 38.97"/>
    <path fill="#0570a0" d="M528.92 240.21l-5.57.94-24.25 14.04 5.58-.94 24.24-14.04"/>
    <path fill="#0570a0" d="M538.07 250.19l-4.47.81.6 1.39 3.87-2.2"/>
    <path fill="#0570a0" d="M378.23 133.39h45.96v8.29h-45.96z"/>
    <path fill="#0570a0" d="M424.19 130.06h18.08v8.29h-18.08z"/>
    <path fill="#009bef" d="M378.23 133.39v-31.02h45.96v31.02"/>
    <path fill="#009bef" d="M424.07 106.87h18.2v23.19h-18.2z"/>
    <path fill="#0476a8" d="M236.68 249.95l-15.52.63v6.62l15.52-.72v-6.53"/>
    <path fill="#27bbfc" d="M378.23 130.63l39.58-9.69v-5.56l-39.58-10.44v25.69"/>
    <path fill="#068dc9" d="M378.23 104.94v3.5l36.21 9.44 3.37-2.5-39.58-10.44"/>
    <path fill="#4ccffc" d="M414.44 117.88v3.89l3.37-.83v-5.56l-3.37 2.5"/>
    <path fill="#009bef" d="M358.68 28.35l-1.23.71-1.33-.73v-1.45l-2.63-1.51-.01.01-1.23.71-1.34-.73v-1.48l-2.22-1.27-1.24.71-1.33-.73v-1.46l-4.83-2.78-30.22 17.42 31.74 18.37 30.29-17.49-14.42-8.3"/>
    <path fill="#21b7f9" d="M346.12 21.13v1.46l1.33.73-26.46 15.26-2.83-1.57 27.96-15.88"/>
    <path fill="#047cc0" d="M346.12 22.59l-26.76 15.09-1.2-.67 27.96-15.88v1.46"/>
    <path fill="#21b7f9" d="M350.91 23.89v1.45l1.34.73-26.46 15.27-2.84-1.57 27.96-15.88"/>
    <path fill="#047cc0" d="M350.91 25.34l-26.75 15.09-1.21-.66 27.96-15.88v1.45"/>
    <path fill="#21b7f9" d="M356.12 26.86v1.45l1.33.73-26.46 15.26-2.83-1.56 27.96-15.88"/>
    <path fill="#047cc0" d="M356.12 28.31L329.36 43.4l-1.2-.66 27.96-15.88v1.45"/>
    <path d="M456.68 292l1.74 11.53a1 1 0 0 0 1.44.69l12.15-7a1 1 0 0 0 .46-1.05l-1.8-10.78a1 1 0 0 0-1.4-.63L457.18 291a1 1 0 0 0-.5 1z" fill="#464646"/>
    <path d="M457.16 292.16l1.74 11.53a1 1 0 0 0 1.44.69l12.15-7a1 1 0 0 0 .46-1.05l-1.8-10.78a1 1 0 0 0-1.4-.63l-12.09 6.21a1 1 0 0 0-.5 1.03z" fill="#949394"/>
    <path d="M457.16 292.16l1.74 11.53a1 1 0 0 0 1.44.69l12.15-7a1 1 0 0 0 .46-1.05l-1.8-10.78a1 1 0 0 0-1.4-.63l-12.09 6.21a1 1 0 0 0-.5 1.03z" fill="#595859"/>
    <path d="M460 303.8a.55.55 0 0 1-.54-.47l-1.68-11.14a.55.55 0 0 1 .28-.56l11.67-6a.55.55 0 0 1 .8.36l1.74 10.39a.55.55 0 0 1-.26.62l-11.74 6.73a.54.54 0 0 1-.27.07z" fill="#d1d7f4"/>
    <path d="M472 297a.55.55 0 0 0 .26-.62l-1.7-10.38a.55.55 0 0 0-.54-.43.55.55 0 0 0-.27.07l-1.38.71-2.3 14.08z" fill="#b0bef3"/>
    <path d="M472.15 292.35s-4 .17-4 .77c0 .78 2.26.11 2.69.32s.25 1.81.75 2.09 3.11.3 3.16-.57a2.29 2.29 0 0 0-2.6-2.61z" fill="#faad96"/>
    <path d="M472.27 295.68c.95.09 2.46-.05 2.5-.72a2.57 2.57 0 0 0-1.27-2.47 24.66 24.66 0 0 0-1.23 3.19z" opacity=".2"/>
    <ellipse cx="480.22" cy="370.56" rx="18.48" ry="8.92" fill="#d0dada" opacity=".5" style="mix-blend-mode:multiply"/>
    <path d="M474.83 369.41c-.57-.5-.88.83-2.21.7-1.67-.16-2.52-.22-3.68-.31-.9 0-2.15.37-1.71 1.64a4.87 4.87 0 0 0 2.72 2.44 18.88 18.88 0 0 0 4.77 1.45c.32.06 2.24.73 3.31.37 1.66-.13.69-2.76.92-4.28s-3.95-1.86-4.12-2.01z" fill="#008673"/>
    <path d="M467.15 370.71a1.74 1.74 0 0 0 .15 1.45 6.51 6.51 0 0 0 2.75 2.07 32.5 32.5 0 0 0 4.73 1.39 8.54 8.54 0 0 0 3.22.38 1.12 1.12 0 0 0 1-1.25s-.07.79-1.18.73a30.33 30.33 0 0 1-5.93-1.21c-1.88-.62-3.26-1.09-3.84-1.85a6.63 6.63 0 0 1-.9-1.71z" fill="#ad6418"/>
    <path d="M103.94 302.15c-7.1 4.1-18.61 4.1-25.71 0s-7.1-10.75 0-14.85 18.61-4.1 25.71 0 7.06 10.7 0 14.85z" fill="#b8c1c1" opacity=".5" style="mix-blend-mode:multiply"/>
    <path d="M492.84 366.52a3.78 3.78 0 0 0-2.13-2.58 16.4 16.4 0 0 1-2.93-1.78 2.62 2.62 0 0 0-2.35-.54 1.66 1.66 0 0 0-.6 2.12 25.75 25.75 0 0 0 1.74 2.32c.45.78 1.2 2.4 1.47 2.72a4.17 4.17 0 0 0 3.55 1.32 3.21 3.21 0 0 0 1.11-.47c.52-.23.54-1.51.44-2.41a4.17 4.17 0 0 0-.3-.7z" fill="#008673"/>
    <path d="M86 293.89a4.77 4.77 0 0 0 .22-1.1c.11-1-4.49-1.31-4.93-.75l-.06.09a1.21 1.21 0 0 0-.66.47 46.32 46.32 0 0 1-4.16 4.72l-1.54 1.09a10.15 10.15 0 0 0-1.74 1.26c-1.08 1.2.66 2.22 1.7 2.28a6.6 6.6 0 0 0 1.24-.26l.26-.08.23-.07a22.24 22.24 0 0 0 3.75-1.43c.6-.18 5.33-1.35 5.65-1.54.82-.49.31-.88.52-1.83a5.88 5.88 0 0 0-.48-2.85z" fill="#5b421a"/>
    <path d="M86.39 297.4a58.74 58.74 0 0 0-5.62 1.85 49 49 0 0 1-5.24 2 3.46 3.46 0 0 1-2.77-1c0 1 1.29 1.59 2 1.63a6.56 6.56 0 0 0 1.24-.26l.26-.08.23-.07a22.24 22.24 0 0 0 3.75-1.43c.6-.18 5.33-1.35 5.65-1.55.61-.3.52-.6.5-1.09z" fill="#422d0d"/>
    <path d="M96.57 286.48a4.66 4.66 0 0 0-.92-.56c-.89-.44-2.15 2.16-2 2.43 1.14 1.7 2 6.11 2.89 7.93L97 298a9.85 9.85 0 0 0 .58 2c.74 1.38 2.23.15 2.61-.77a6.31 6.31 0 0 0 .17-1.2v-.49a21.39 21.39 0 0 0-.08-3.86c0-.6.5-5.25.43-5.61-.18-.9-.69-.58-1.49-1.08a5.69 5.69 0 0 0-2.65-.51z" fill="#5b421a"/>
    <path d="M99.88 287.28a56.39 56.39 0 0 0-.14 5.69 47.14 47.14 0 0 1 .16 5.4 3.26 3.26 0 0 1-1.8 2.16c.91.34 1.85-.63 2.13-1.29a6.28 6.28 0 0 0 .17-1.2v-.49a21.38 21.38 0 0 0-.08-3.86c0-.6.5-5.25.43-5.61-.11-.64-.42-.66-.87-.8z" fill="#422d0d"/>
    <path d="M86 293.89a4.77 4.77 0 0 0 .22-1.1c.11-1-4.49-1.31-4.93-.75l-.06.09a1.21 1.21 0 0 0-.66.47 46.32 46.32 0 0 1-4.16 4.72l-1.54 1.09a10.15 10.15 0 0 0-1.74 1.26c-1.08 1.2.66 2.22 1.7 2.28a6.6 6.6 0 0 0 1.24-.26l.26-.08.23-.07a22.24 22.24 0 0 0 3.75-1.43c.6-.18 5.33-1.35 5.65-1.54.82-.49.31-.88.52-1.83a5.88 5.88 0 0 0-.48-2.85z" fill="#5b421a"/>
    <path d="M112.68 246.84c-.33-.61-13-5.27-13.31-5.15-.71.26-1.87 3.18-1.9 3.4-1.14 3.39-2.68 7.13-3.23 10.77-.71 3.42-2.78 8.53-3.24 12.46a29.4 29.4 0 0 0 .45 4.8c-2.13 3.35-4.06 6.74-5.84 10.23-1.07 1.8-2.12 3.62-3.1 5.47-.12.22-.87 2.07-1.24 2.8s2.15 1.64 2.36 1.52c.38.18 2.14.18 2.45-.2a48.85 48.85 0 0 0 4.2-7c1.11-1.93 1.42-2.47 2.57-4.37.45 2.44.36 3.48.8 5.83.09.46 1.25 1.35 1.74 1.21.89.48 3.19-.61 3.08-1.89-.25-2.89-1.74-10.92-2-12.7.69-1.35 5-9.1 6.41-11 .17-.06 4.05-4.25 5.77-6.29 5.28-2.12 3.56-8.46 4.03-9.89z" fill="#e62325"/>
    <path d="M112.61 247.21a6.45 6.45 0 0 0-1.19-.62c.18 1.62.41 4.32.38 5.05-.07 1.77-1.29 3.32-3.14 5.14 4.91-2.02 3.75-7.65 3.95-9.57z" opacity=".2"/>
    <path d="M117.62 251.85a3 3 0 0 0-1.11-1.56 93.53 93.53 0 0 0 2.74-10.94 4.75 4.75 0 0 0 .15-2c-1.07-2.58-2.16-5.15-3.22-7.74a1 1 0 0 0-1.85.7c.13.49.29 1 .46 1.5-.17-.32-.33-.64-.51-1l-.07-.13a.56.56 0 0 0-1 .52c.93 2.86 2.1 5.69 3.16 8.51-.79 3-1.48 6.09-2.24 9.13-.08.32-.85 1.59-.7 2.37.31 1.59.6 3 2.42 3a1.82 1.82 0 0 0 1.77-2.36z" fill="#f8d0c3"/>
    <path d="M99.42 231.14a1.25 1.25 0 0 0-.26-1.21 1 1 0 0 0-1.51.26s-.08.15-.18.33c-.21.4-.38.83-.59 1.23s-.38.66-.57 1a52.4 52.4 0 0 0-3.48 4.35l-3.65 2.61c-.91.65-1.89 1.27-2.78 2a1.91 1.91 0 0 0-.71 0c-1 .16-1 .63-1.22 1.61s-.08 1.17.67 1.76c.07.1 2 1.16 2.67.1a5.89 5.89 0 0 0 .55-1.36c.84-.53 5.92-3.95 6.3-4.59.08-.06 1.09-1.16 1.21-1.28a18.78 18.78 0 0 0 3.86-5.62.86.86 0 0 0-.31-1.19z" fill="#f8d0c3"/>
    <path d="M115.67 223.85c-.43-.59-10-2.6-14.25-1a5.39 5.39 0 0 0-2.34 1.55 22.2 22.2 0 0 0-1.72 3.6c-.28.24-1.4 4.7-.68 5.09a3.1 3.1 0 0 0 1.85 1.16h.21c-.75 2.65-3.35 11.24-2.64 12.1 2 1.62 6.12 2.86 8.28 3.22 3.5.58 9.92.07 9.37-.81 0-.1.12-2 .07-2.28-.58-2.91.35-7.09.58-10 1 .5 1.56.1 2.46-.42s1.64-.66 1.83-1.18-.19-1.07-.21-1.75c-.02-1.02-1.28-7.19-2.81-9.28z" fill="#777677"/>
    <path d="M493.29 340.09c.3-5.26-1.05-12.59-1-12.94.27-5.76-3.92-9-9.42-7.19-2.21.4-3 1-5.18 1.81a2 2 0 0 0-1.63.47 1.78 1.78 0 0 0-1.72 1.45v.07a3.45 3.45 0 0 0-.52 1.27 17.64 17.64 0 0 0 .3 5.46v7.94c0 5.68.74 11.12.86 16.79 0 .5-.55 15-.3 15.09.26.86 2.78 3.21 3.95.25a24 24 0 0 0 .07-3.34c.2-6 1-11.06.93-17 .49-5.27 2.53-16.52 1.85-16.41.51-.17 5.55-1.32 6.12-1.51.49 6.78 1.27 9 1.14 20.24 0 .32.83 8.36.94 13.76 0 1.3 3.54 2 3.35-.3-.06-.77-.06-5.55-.07-6 .04-.25.33-19.89.33-19.91z" fill="#faad96"/>
    <path d="M493.33 299.69c.18-1.85 0-6.6-.71-8.31a8.17 8.17 0 0 0-3.71-3.41 6.25 6.25 0 0 0-2.9-.21c-4-.25-10.14 1.23-11.42 3.26-.16.24 0 8.28.05 11.86.07 2.58.61 8.1.61 10.69-.38 3.93-3 23.31-2.93 27.48 2.56 2.08 8.25 1.68 9.79 1.17 2.29-.76 6.5-.94 8.29-2.39.26 0 3.48-1.44 3.64-1.53.54-.28.87-5.25.87-5.85 0-7.89-3.68-16.67-3.54-20.45.07-1.71 1.9-10.59 1.96-12.31z" fill="#008673"/>
    <path opacity=".2" d="M91.44 273.11l1.41 8.48-.24.4-1.52-8.32.35-.56"/>
    <path opacity=".2" d="M96.49 274.05l-.79-5.28 4.63-15.96 2.52-.76-1.83 1.86-4.88 14.72.35 5.42"/>
    <path d="M114.4 236.45a44.72 44.72 0 0 1-.94-5.41s-.69 6 .69 7.63z" opacity=".2"/>
    <path d="M111.15 222.35c-.28-.45-1-1.82-1.37-2.23a4.28 4.28 0 0 0 1-3.66 14.61 14.61 0 0 0-1.92-4.32c-.87-1.37-2.51-2.45-4.14-1.87a17.2 17.2 0 0 0-2.29 1.32c-2.4 1.76-1.41 4.76.44 7a5.84 5.84 0 0 0 1.33 1.64 4.81 4.81 0 0 0 1.63.91 3.22 3.22 0 0 0-.13 1 2.23 2.23 0 0 1-1 .22 1.41 1.41 0 0 0 .51 1.54c.76.61 4.75 1 5.62.36.48-.35.76-1 1.35-1.22s-.95-.69-1.03-.69z" fill="#f8d0c3"/>
    <path d="M113.95 216.13a7.66 7.66 0 0 0-.22-1.58 1.36 1.36 0 0 0-.15-.85l-.64-1.12a.56.56 0 0 1-.15-.63 2.68 2.68 0 0 0-1.59-2 1.55 1.55 0 0 0-.84-.48 5.16 5.16 0 0 0-4.2-.72 8.64 8.64 0 0 0-3.63.52 1.49 1.49 0 0 0-1 1.1 4.72 4.72 0 0 0-1.55 2.06 14.11 14.11 0 0 0-.24 2.24c-.14 1.91 1.38 2.41 2 1 .76-1.69 2.73-4.23 4.52-3a12.3 12.3 0 0 1 1.31 1.24 5 5 0 0 1 1 1.88 1.17 1.17 0 0 0 1 .77v.14a1.59 1.59 0 0 0 .75 1.28v.57a1.49 1.49 0 0 0 3 0v-1.28a1.3 1.3 0 0 0 .63-1.14z"/>
    <path d="M102.59 212.68a10.28 10.28 0 0 0-.93 6.6s1.36-6.91 2.07-7.27z"/>
    <path d="M109.19 208.91a9 9 0 0 0-5.84 0s6.15.32 6.55.89z"/>
    <path d="M110 209.3a10.28 10.28 0 0 0-6.58-1.07s6.88 1.5 7.22 2.21z"/>
    <path d="M109.43 213.7a10.28 10.28 0 0 0 1.33 6.53s-1-7-.48-7.54z"/>
    <path d="M109.14 220.68a5 5 0 0 1-3.34.44 2.87 2.87 0 0 0-.13.76 4.65 4.65 0 0 0 3.47-1.2z" fill="#f7b9a9"/>
    <path d="M86.44 239.46v5.61a.19.19 0 0 0 .1.17l2.37 1.35a.19.19 0 0 0 .29-.17v-5.76a.19.19 0 0 0-.11-.17l-2.37-1.21a.19.19 0 0 0-.28.18z" fill="#777677"/>
    <path d="M86.22 239.53v5.61a.19.19 0 0 0 .1.17l2.37 1.35a.19.19 0 0 0 .29-.17v-5.76a.19.19 0 0 0-.11-.17l-2.37-1.21a.19.19 0 0 0-.28.18z" fill="#595859"/>
    <path d="M85.7 241.64c-1 .16-1 .63-1.22 1.61s-.08 1.17.67 1.76c.07.1 2 1.16 2.67.1a5.89 5.89 0 0 0 .55-1.36 2.34 2.34 0 0 0-2-2.08 1.9 1.9 0 0 0-.67-.03z" fill="#f8d0c3"/>
    <path d="M249.28 379.29c-6.94 4-18.2 4-25.14 0s-6.94-10.51 0-14.51 18.2-4 25.14 0 6.94 10.51 0 14.51z" fill="#b8c1c1" opacity=".5" style="mix-blend-mode:multiply"/>
    <path d="M269.52 281.9a2.57 2.57 0 0 0-2.48-2.13 2.35 2.35 0 0 0-2.17 1.87.78.78 0 0 0 .51.87 1.27 1.27 0 0 0 .75.6c.21.07.42.11.63.17l-.34.76.78.58.86-1.07h.1c.84.16 1.55-.87 1.36-1.65z" fill="#4f2f25"/>
    <path d="M224.84 362.13l-2.36 3.37a1.09 1.09 0 0 0 .29 1.55c.57.34.73 1.46 1.82 1l3.4-3.94z" fill="#4f2f25"/>
    <path d="M255.09 367.17c-.39-.5-1.85-.25-3.18-.39-2-.22-3.15-1.41-3.64-1.12 0 0-3.68.51-3.73 1.61a4.78 4.78 0 0 0-.15.65c0 .22-.61 2.4-.19 3.61.11.32.69.44 1.1.63 1.63.83 7.66-2.27 8.87-2.75 1.53-.61 1.39-1.63.92-2.24z" fill="#f87eac"/>
    <path d="M255.39 367.89c0 .18-.31.32-.61.65a43.75 43.75 0 0 1-6.14 2.63c-2.32.85-3.25.39-3.25.39l-1.3-.6a2.69 2.69 0 0 0 .12.56c.11.32.7.44 1.1.63 1.63.83 7.66-2.27 8.87-2.75 1-.4 1.28-.98 1.21-1.51z" fill="#cb71d7"/>
    <path d="M246.1 362.09l-.89 4a1.07 1.07 0 0 0 .86 1.31 2.68 2.68 0 0 0 2.35-.87l1.32-3.9z" fill="#4f2f25"/>
    <path d="M280.36 287.3a2.41 2.41 0 0 0-2.75-.42c-.42.2-1.36 2.82-1 2.86a1.06 1.06 0 0 0 .22 0 1.18 1.18 0 0 0 .61.49c1 .29 2.21.94 3.09.16a2.15 2.15 0 0 0-.17-3.09zm-1.94 2.16h.07s-.05.06-.07-.01z" fill="#4f2f25"/>
    <path d="M253.9 325.59c-.2-.88-3.53 0-3.82.07a29.85 29.85 0 0 1-6.65.88c-.79-.1-1.57-.18-2.36-.25-.25-.31-4.24-1-4.42-.44-1.28 4.16.5 15.33-1.12 20.85-1.24 4.22-9 11.61-11.12 15.39-1.19 2.15 3.41 3.44 3.56 2.92.26.07 4.15-4.79 4.31-5.12.33-.67 9-11.5 9.31-12.33.35-1 2.88-10.46 3.25-11a14.07 14.07 0 0 0 4.21-.42c1-.16 2.58 2.76 2.88 3.3a4.15 4.15 0 0 1 .16 3.12c-1.69 4.91-6.89 19-6.51 20.74.13.61.71.76 1.38 1a3.14 3.14 0 0 0 2-.12c1-.52 1.33-1.82 1.83-2.8.36-.71 1.24-2.45 1.34-2.68 2.31-5.73 6.91-15.13 6.88-17.23-.08-1.96-3.83-10.34-5.11-15.88z" fill="#3151b7"/>
    <path d="M276.86 288.1c-2.34 3.78-2.28 4.75-6.57 7.37s-9.15 2.17-14.1 2.86a24.47 24.47 0 0 1-9 1.8c-.19-.08.79-.84.55-.86-.7-.35.4 6.28 1.19 5.36a59.41 59.41 0 0 1 10.43-7.09 9.07 9.07 0 0 0 2.37-2 39.93 39.93 0 0 0 5.82-10.32c.47-1.24.53-1 .35-1.43s-2.48-2-3.1-1.83c-1.49 3.63-2.17 5.67-5.24 9.61-1.58 2-5.21 4-7.37 4.67s-7.14.21-9.1 1a2 2 0 0 0-1.13 1.36c-1.07 4.58-5.56 23.84-6 25.94-.19.91-.42 6.12.27 6.24 3.93 3.59 12.11 1.25 12.28 1.14a37.05 37.05 0 0 0 9-3.56c.51-.33-1-13.74-1-15.71.46-3.5.68-6.89 2.47-8.17 4.05-2.46 10.14-1.67 13.76-4.76 3.88-3.33 4.47-4.8 7.31-8.93.06-.12-2.96-3.06-3.19-2.69z" fill="#ff509e"/>
    <path d="M224.41 374.71a1.24 1.24 0 0 0 .94-.11c.48-.27 2.92-1.5 3-1.85a2.19 2.19 0 0 0 .1-.64l-.54-.09-1.49.7-1.24.61-1.4.07z" fill="#cb71d7"/>
    <path d="M244.45 337.64a7.52 7.52 0 0 1 .39-1.1s-3.1-.25-3.69-.36a24.7 24.7 0 0 0 3.3 1.46z" opacity=".2"/>
    <path d="M220.24 367.69l1.61-2.1a.83.83 0 0 1 .75-.32 1.76 1.76 0 0 1 1.59 1c.45 1 .43 2.91 1.12 4.92 0 0 2.41-.24 2.91.32s.36 1-1 1.77c-.55.31-1.06.57-1.49.76a1.37 1.37 0 0 1-1.74-.52z" fill="#f87eac"/>
    <path d="M221 372.34c-.7-.77-1-3.35-1-3.35a1.94 1.94 0 0 1 .24-1.3 2.53 2.53 0 0 1 1.2 0 2 2 0 0 1 1.46 1.54 32.58 32.58 0 0 0 1.69 5.23 18.61 18.61 0 0 1-3.59-2.12z" fill="#cb71d7"/>
    <path d="M220.86 372.58c-.7-.77-1-3.35-1-3.35a1.94 1.94 0 0 1 .24-1.3 2.53 2.53 0 0 1 1.2 0 2 2 0 0 1 1.46 1.54 32.58 32.58 0 0 0 1.69 5.23 18.61 18.61 0 0 1-3.59-2.12z" fill="#cb71d7"/>
    <path d="M256.25 312.2c0 .23.12.29.27.22.44-3.41.69-6.69 2.45-7.94l.35-.19-2.3.95a1.3 1.3 0 0 0-.8 1.15 49.92 49.92 0 0 0 .03 5.81z" opacity=".2"/>
    <path d="M256.42 290c-.28 4-3.09 7.13-6.26 6.9s-5.53-3.69-5.25-7.73 3.09-7.13 6.26-6.9 5.53 3.73 5.25 7.73z" fill="#4f2f25"/>
    <path d="M247.36 294.73l-.39 1.59c-.15.59-.46 1.29-1.05 1.22h-1.28a2 2 0 0 0 1.27 2.4 18.59 18.59 0 0 0 6.61.6 37.6 37.6 0 0 0 3.48-2.15s-3.12.31-3.58-.29-.73-3.34-.73-3.34" fill="#4f2f25"/>
    <path d="M255.48 286.24c0 3.95-3.7 9.26-7.56 9.26s-6.43-5.32-6.43-9.26a7 7 0 1 1 14 0z" fill="#372118"/>
    <ellipse cx="244.12" cy="281.92" rx="3.32" ry="3.39" fill="#dc267f"/>
    <ellipse cx="243.79" cy="281.68" rx="3.32" ry="3.39" fill="#372118"/>
    <ellipse cx="253.05" cy="291.49" rx=".86" ry="1.42" fill="#4f2f25"/>
    <path d="M266.37 279.91s1.93-1 2.71-.82 1.88.53 1.59 1.24-1.47 1.5-1.59 2" fill="#4f2f25"/>
    <path d="M277.71 286.81s1.93-1 2.71-.82 1.88.53 1.59 1.24-1.47 1.5-1.59 2" fill="#4f2f25"/>
    <path d="M259.94 297.15s-5.68.91-7.44 1c.67.49 3.49.22 3.49.22l2.32-.3z" opacity=".2"/>
    <ellipse cx="321.91" cy="444.2" rx="18.39" ry="8.88" fill="#d0dada" opacity=".5" style="mix-blend-mode:multiply"/>
    <path d="M321.2 446.38c-.26-.59-3.67-1.79-4.56-1.56-1.61.41-5.19.81-6.1 1.31a1.42 1.42 0 0 0-.1 2.51c1.12.56 7.69 1.29 10.44-.07.93-.46.46-1.27.32-2.19z" fill="#777677"/>
    <path d="M320.89 448c-2.75 1.36-9.32.64-10.44.07a1.23 1.23 0 0 1-.68-.85 1.24 1.24 0 0 0 .68 1.43c1.12.56 7.69 1.29 10.44-.07a1 1 0 0 0 .53-1.18.89.89 0 0 1-.53.6z" fill="#20214f" style="mix-blend-mode:multiply"/>
    <path d="M328.12 443.86c1.09-.23 1.31-2.27 1.19-3.2a.68.68 0 0 0-1.33-.18c0 .06-.05.14-.08.23a.74.74 0 0 0-.28.63v.21l-.09.21c-.24-.37-.53-.72-.72-1-.53-.86-.9-1.76-1.34-2.66-.13-.27-.27-.58-.44-.86a.62.62 0 0 0 0-.55.94.94 0 0 0-1.52-.17c-.86.31-.86 1.9-.61 2.65a11.11 11.11 0 0 0 2.13 3.51 6.87 6.87 0 0 0 1 1l.13.13.14.12a.59.59 0 0 0 .31.12.68.68 0 0 0 .73 0 .82.82 0 0 0 .22 0l.35-.12.23-.11z" fill="#6c6e7d"/>
    <path d="M328.12 443.86c1.09-.23 1.31-2.27 1.19-3.2a.68.68 0 0 0-1.33-.18c0 .06-.05.14-.08.23a.74.74 0 0 0-.28.63v.21l-.09.21c-.24-.37-.53-.72-.72-1-.53-.86-.9-1.76-1.34-2.66-.13-.27-.27-.58-.44-.86a.62.62 0 0 0 0-.55.94.94 0 0 0-1.52-.17c-.86.31-.89 1.91-.61 2.65a11.46 11.46 0 0 0 2.13 3.51 6.87 6.87 0 0 0 1 1l.13.13.14.12a.59.59 0 0 0 .31.12.68.68 0 0 0 .73 0 .82.82 0 0 0 .22 0l.35-.12.23-.11z" fill="#777677"/>
    <path d="M328.65 370.79a.58.58 0 0 0-.73-.58 1.8 1.8 0 0 0-.27.11.85.85 0 0 0-.34.13 7.91 7.91 0 0 0-1.18-6c-1.24-1.78-2.76-3.4-4.74-1.6v.06a.5.5 0 0 0-.4.23 13.85 13.85 0 0 0-1.9 7.68 2.56 2.56 0 0 0 1.18 2.08 5.49 5.49 0 0 0 1.57.35c.4 0 .34 1 .19 1.39-.33.86-.9 1.93-.21 2.74a.44.44 0 0 0 .44.13 1.37 1.37 0 0 0 .66-.51.79.79 0 0 0 1.24.25 2.54 2.54 0 0 0 .4-.47 1 1 0 0 0 .81.48.68.68 0 0 0 .24.1c.31.29 1.38.88 1.39.3a15.51 15.51 0 0 1 2.18-6.21c.08-.17-.44-.45-.53-.66z" fill="#f4a590"/>
    <path d="M332.13 402.46c.14-1.52-2.24-1.94-2.77-.64a1.41 1.41 0 0 0-.92-.47 1 1 0 0 0-.48-.49l-.09-.38a1.24 1.24 0 0 0-1.23-1 1.4 1.4 0 0 0-1.43-.42c-1.6.53-2 2-2.09 3.54a1.18 1.18 0 0 0-1 .22 1.42 1.42 0 0 0-1.42 0 7.47 7.47 0 0 0-.77.61 1.52 1.52 0 0 0-1.41-.36 1.47 1.47 0 0 0-.88-.17 1.4 1.4 0 0 0-2.07.87 37.3 37.3 0 0 0-.42 4.09c-.72 6.77-1.65 13.66-1.35 20.4a91.71 91.71 0 0 0 1.33 10l.9 5.74c.16 1 .15 2.23 1.06 2.89s3.24.08 3.24.08c1.83-.31.8-4.12.74-5.66a1.53 1.53 0 0 0-.09-.44 120.76 120.76 0 0 1-.73-14.9c0-.21 1.4-12 2.74-17.66h.79v9.17a97.15 97.15 0 0 0-.23 10.48 100.48 100.48 0 0 0 .9 10.38c.26 1.87.59 4.41 3.07 4.1a2.31 2.31 0 0 0 2.12-2.71c.1-6.69.18-13.38.3-20.07 0-1.76.07-3.53.18-5.3a88 88 0 0 1 1.91-9.09c.16-.45.05-2.27.1-2.81z" fill="#2e3f8f"/>
    <path d="M326.12 408.14c-.42.07-2.7.18-2.7.18h.38v4.77a36.85 36.85 0 0 1 2.32-4.95z" fill="#352969" style="mix-blend-mode:multiply"/>
    <path d="M331.19 366.61c1.08-2.63-1.44-5.44-2.35-5.72-.29-.09-.41 0-.41 0a16.6 16.6 0 0 0-1.74-1.84 1.12 1.12 0 0 0-1.33-.07.9.9 0 0 0-.86-.44c-.53.1-.52.46-.52.46l-.19-.13a1.12 1.12 0 0 0-1.38.06 2.23 2.23 0 0 0-2.47 1.09 4 4 0 0 0 .35 4.32 1.36 1.36 0 0 1 .44 1.84A5.45 5.45 0 0 0 320 368a6.86 6.86 0 0 0-1.58 2.32c-.15.56.14 1.39.06 1.73s.73 2.33.8 1.25c0-.26.71.84 1.9.19 1.95 1.95-.53-5.07-.44-5.29l.14-.33.2-.5a.65.65 0 0 1 1.26 0 4.78 4.78 0 0 1-.28 2 1.84 1.84 0 0 0 1.28 2c.06.52.74 1 1.73 1.32a3.59 3.59 0 0 0 1.71-.05c.93.5 1 .14 1.58.12a.51.51 0 0 1-.05.19.67.67 0 0 0 .44-.28c.45-.49 1.36-3.43 2.44-6.06z" fill="#70541b"/>
    <path d="M334 392.69c3.32-3.73 2.35-12.9-5.18-15.52a14.28 14.28 0 0 0-11.71 1.57c-3.54 2.23-4 6.16-4.37 8-.33 1.38-.43 5.2-1 5.15-.21 0-3.3-3.23-3.3-3.23h-.46a4.21 4.21 0 0 0-3.09 1.26l-.17.18s4.41 6.11 7.42 6.21 4.53-2.91 4-8.28c-.27 3.28-1.35 10.85-1.75 14.12-.06.46-.42 5 .68 5.1 2.07.17 11.41.44 12.41.11 0 0 5.25-1.46 5.23-2.23-.07-1.79 1.36-11.32 1.29-12.44z" fill="#a0e3f0"/>
    <path fill="#009bef" d="M303.84 384.17l.65 10.97 7.21-3.27-3.45-6.27-4.41-1.43"/>
    <path d="M315.42 394.25a13.17 13.17 0 0 0 2.52-6.87s-.08 5.71-2.73 8.46z" opacity=".2"/>
    <path d="M320.75 377.67s5.85 1 6.85-.83l-.15-1.08-6.79.65-.65.92s.78.07.74.34z" fill="#00b6cb"/>
    <path d="M323.06 436.85s-.79.49-.46 2a13.78 13.78 0 0 0 2.54 4.38c.38.42.9 1 1.31 1.08a5 5 0 0 0 2.29-.54 1.64 1.64 0 0 0 .28-.89 2.49 2.49 0 0 1-2.07.93c-1.25-.15-3.72-2.84-4.1-5.25a2.44 2.44 0 0 1 .21-1.71z" fill="#20214f" style="mix-blend-mode:multiply"/>
    <path d="M484.84 362.24a2.35 2.35 0 0 0-.1 1.88 12.13 12.13 0 0 0 1.47 2.14 24 24 0 0 0 1.48 2.73 5.42 5.42 0 0 0 2.23 1.34 3.51 3.51 0 0 0 2.88-.31 3.84 3.84 0 0 0 .36-1.42s-.42 2.25-4.12.8c0 0-.59-.12-2.16-2.87s-1.88-1.91-2.04-4.29z" fill="#ad6418"/>
    <ellipse cx="482.74" cy="278.69" rx="6.55" ry="7.86" transform="rotate(-13.16 482.8 278.732)" fill="#faad96"/>
    <path d="M486.85 282.92s.14 4.6 1.29 4.87c0 0 1.27 1.39-2.8 2a15 15 0 0 1-7.5-.84 11.75 11.75 0 0 0 2.11-.79c.42-.26 2.63-2.73 2.12-4" fill="#faad96"/>
    <path d="M474.6 368.72a7.47 7.47 0 0 0 .06 1.59c.26.86 2.86 3.48 4 .53a13.5 13.5 0 0 0 0-2.21 3.65 3.65 0 0 1-4.06.09z" fill="#ffd191"/>
    <path d="M474.6 368.72s2.54 1.45 4.09-.09" fill="none" stroke="#e3ecec" stroke-linecap="round" stroke-miterlimit="10" stroke-width=".75"/>
    <path fill="#b0bef3" d="M463.76 301.71l.51-.29 2.39-14.18-.41.21-2.49 14.26"/>
    <path d="M493 364.55a3 3 0 0 1-3.37 0c0 .66 0 1.3.06 1.91 0 1.42 3.53 2.22 3.35-.33-.04-.27-.04-.85-.04-1.58z" fill="#ffd191"/>
    <path d="M489.6 364.52s1.86 1.31 3.37 0" fill="none" stroke="#e3ecec" stroke-linecap="round" stroke-miterlimit="10" stroke-width=".75"/>
    <path fill="#b0bef3" d="M464.59 301.27l.51-.29 2.39-14.18-.41.21-2.49 14.26"/>
    <path d="M476.88 290.71a1.4 1.4 0 0 0-2.29.31 22.35 22.35 0 0 0-1.67 4.07c-.38 1.29-1.34 6-1.61 7.2-2.23-.46-5.16-.49-7.37-.94-1-.27-3.59-.69-3.59-1.91 0-1.37-1.17-1.54-2.44-1.1-2.18.77-1.76 3.83-.21 5.56.93 1 1.37.44 2.55-.19.57.17 9.7 2.66 11.81 2.92a5.5 5.5 0 0 0 2.41-1.81c0-.08.06-.17.09-.26a36.15 36.15 0 0 0 3.15-7c.51-2.2-.54-6.79-.83-6.85z" fill="#faad96"/>
    <ellipse cx="485.19" cy="276.62" rx="5.9" ry="7.96" transform="rotate(-33.46 485.183 276.608)" fill="#5d1a38"/>
    <path d="M480.15 271.25s-5.17 1.52-4.37 7.85a8.43 8.43 0 0 1 4.73-3.73c3.28-.99-.36-4.12-.36-4.12z" fill="#5d1a38"/>
    <ellipse cx="487.12" cy="271.02" rx=".98" ry="1.36" transform="rotate(-64.48 487.133 271.015)" fill="#71cddd"/>
    <ellipse cx="481.4" cy="279.85" rx="1.02" ry="1.5" fill="#faad96"/>
    <path d="M486.53 270.75s-.22-4.19 2.59-1.87 6 3.28 5.19 16.13c-.28 4.51-1.31 5.14-1.94 3.06-1.16-3.85-2.47-15.35-5.84-17.32z" fill="#5d1a38"/>
    <path d="M475.21 312.12s8.92 5.38 16.21-.62" fill="none" stroke="#8ee9d4" stroke-linecap="round" stroke-miterlimit="10"/>
  </g>
</svg>
