<svg width="34" height="34" viewBox="0 0 34 34" fill="none" xmlns="http://www.w3.org/2000/svg">
<path d="M28.875 24.125C28.0363 24.1291 27.2148 24.3632 26.5 24.8019L22.8306 21.1206C23.6844 19.9162 24.143 18.4763 24.143 17C24.143 15.5237 23.6844 14.0838 22.8306 12.8794L26.5 9.19813C27.2148 9.63678 28.0363 9.8709 28.875 9.875C29.8145 9.875 30.7328 9.59642 31.514 9.07448C32.2951 8.55255 32.9039 7.8107 33.2634 6.94275C33.6229 6.0748 33.717 5.11973 33.5337 4.19832C33.3505 3.27691 32.8981 2.43054 32.2338 1.76624C31.5695 1.10195 30.7231 0.649552 29.8017 0.466272C28.8803 0.282992 27.9252 0.377058 27.0573 0.736574C26.1893 1.09609 25.4475 1.70491 24.9255 2.48604C24.4036 3.26718 24.125 4.18554 24.125 5.125C24.1291 5.96368 24.3632 6.78517 24.8019 7.5L21.1206 11.1694C19.9162 10.3156 18.4763 9.85696 17 9.85696C15.5237 9.85696 14.0838 10.3156 12.8794 11.1694L9.19813 7.5C9.63678 6.78517 9.8709 5.96368 9.875 5.125C9.875 4.18554 9.59642 3.26718 9.07448 2.48604C8.55255 1.70491 7.8107 1.09609 6.94275 0.736574C6.0748 0.377058 5.11973 0.282992 4.19832 0.466272C3.27691 0.649552 2.43054 1.10195 1.76624 1.76624C1.10195 2.43054 0.649552 3.27691 0.466272 4.19832C0.282992 5.11973 0.377058 6.0748 0.736574 6.94275C1.09609 7.8107 1.70491 8.55255 2.48604 9.07448C3.26718 9.59642 4.18554 9.875 5.125 9.875C5.96368 9.8709 6.78517 9.63678 7.5 9.19813L11.1694 12.8794C10.3156 14.0838 9.85696 15.5237 9.85696 17C9.85696 18.4763 10.3156 19.9162 11.1694 21.1206L7.5 24.8019C6.78517 24.3632 5.96368 24.1291 5.125 24.125C4.18554 24.125 3.26718 24.4036 2.48604 24.9255C1.70491 25.4475 1.09609 26.1893 0.736574 27.0573C0.377058 27.9252 0.282992 28.8803 0.466272 29.8017C0.649552 30.7231 1.10195 31.5695 1.76624 32.2338C2.43054 32.8981 3.27691 33.3505 4.19832 33.5337C5.11973 33.717 6.0748 33.6229 6.94275 33.2634C7.8107 32.9039 8.55255 32.2951 9.07448 31.514C9.59642 30.7328 9.875 29.8145 9.875 28.875C9.8709 28.0363 9.63678 27.2148 9.19813 26.5L12.8794 22.8306C14.0838 23.6844 15.5237 24.143 17 24.143C18.4763 24.143 19.9162 23.6844 21.1206 22.8306L24.8019 26.5C24.3632 27.2148 24.1291 28.0363 24.125 28.875C24.125 29.8145 24.4036 30.7328 24.9255 31.514C25.4475 32.2951 26.1893 32.9039 27.0573 33.2634C27.9252 33.6229 28.8803 33.717 29.8017 33.5337C30.7231 33.3505 31.5695 32.8981 32.2338 32.2338C32.8981 31.5695 33.3505 30.7231 33.5337 29.8017C33.717 28.8803 33.6229 27.9252 33.2634 27.0573C32.9039 26.1893 32.2951 25.4475 31.514 24.9255C30.7328 24.4036 29.8145 24.125 28.875 24.125ZM28.875 2.75C29.3447 2.75 29.8039 2.88929 30.1945 3.15026C30.585 3.41123 30.8895 3.78215 31.0692 4.21613C31.249 4.6501 31.296 5.12764 31.2044 5.58834C31.1127 6.04905 30.8865 6.47223 30.5544 6.80438C30.2222 7.13653 29.799 7.36273 29.3383 7.45437C28.8776 7.54601 28.4001 7.49897 27.9661 7.31922C27.5322 7.13946 27.1612 6.83505 26.9003 6.44448C26.6393 6.05391 26.5 5.59473 26.5 5.125C26.5 4.49511 26.7502 3.89102 27.1956 3.44562C27.641 3.00022 28.2451 2.75 28.875 2.75V2.75ZM2.75 5.125C2.75 4.65527 2.88929 4.19609 3.15026 3.80552C3.41123 3.41496 3.78215 3.11055 4.21613 2.93079C4.6501 2.75103 5.12764 2.704 5.58834 2.79564C6.04905 2.88728 6.47223 3.11347 6.80438 3.44562C7.13653 3.77777 7.36273 4.20096 7.45437 4.66166C7.54601 5.12237 7.49897 5.5999 7.31922 6.03388C7.13946 6.46785 6.83505 6.83877 6.44448 7.09974C6.05391 7.36071 5.59473 7.5 5.125 7.5C4.49511 7.5 3.89102 7.24978 3.44562 6.80438C3.00022 6.35898 2.75 5.75489 2.75 5.125V5.125ZM5.125 31.25C4.65527 31.25 4.19609 31.1107 3.80552 30.8497C3.41496 30.5888 3.11055 30.2179 2.93079 29.7839C2.75103 29.3499 2.704 28.8724 2.79564 28.4117C2.88728 27.951 3.11347 27.5278 3.44562 27.1956C3.77777 26.8635 4.20096 26.6373 4.66166 26.5456C5.12237 26.454 5.5999 26.501 6.03388 26.6808C6.46785 26.8605 6.83877 27.165 7.09974 27.5555C7.36071 27.9461 7.5 28.4053 7.5 28.875C7.5 29.5049 7.24978 30.109 6.80438 30.5544C6.35898 30.9998 5.75489 31.25 5.125 31.25ZM17 21.75C16.0605 21.75 15.1422 21.4714 14.361 20.9495C13.5799 20.4275 12.9711 19.6857 12.6116 18.8177C12.2521 17.9498 12.158 16.9947 12.3413 16.0733C12.5246 15.1519 12.9769 14.3055 13.6412 13.6412C14.3055 12.9769 15.1519 12.5246 16.0733 12.3413C16.9947 12.158 17.9498 12.2521 18.8177 12.6116C19.6857 12.9711 20.4275 13.5799 20.9495 14.361C21.4714 15.1422 21.75 16.0605 21.75 17C21.75 18.2598 21.2496 19.468 20.3588 20.3588C19.468 21.2496 18.2598 21.75 17 21.75ZM28.875 31.25C28.4053 31.25 27.9461 31.1107 27.5555 30.8497C27.165 30.5888 26.8605 30.2179 26.6808 29.7839C26.501 29.3499 26.454 28.8724 26.5456 28.4117C26.6373 27.951 26.8635 27.5278 27.1956 27.1956C27.5278 26.8635 27.951 26.6373 28.4117 26.5456C28.8724 26.454 29.3499 26.501 29.7839 26.6808C30.2179 26.8605 30.5888 27.165 30.8497 27.5555C31.1107 27.9461 31.25 28.4053 31.25 28.875C31.25 29.5049 30.9998 30.109 30.5544 30.5544C30.109 30.9998 29.5049 31.25 28.875 31.25Z" fill="#161616"/>
</svg>
