<svg width="34" height="34" viewBox="0 0 34 34" fill="none" xmlns="http://www.w3.org/2000/svg">
<path d="M7.5 2.75V7.5H2.75V2.75H7.5ZM0.375 0.375V9.875H9.875V0.375H0.375Z" fill="#1C1500"/>
<path d="M19.375 6.3125V11.0625H14.625V6.3125H19.375ZM12.25 3.9375V13.4375H21.75V3.9375H12.25Z" fill="#1C1500"/>
<path d="M7.5 17V21.75H2.75V17H7.5ZM0.375 14.625V24.125H9.875V14.625H0.375Z" fill="#1C1500"/>
<path d="M24.125 9.875V17H17V24.125H9.875V33.625H33.625V9.875H24.125ZM19.375 19.375H24.125V24.125H19.375V19.375ZM17 31.25H12.25V26.5H17V31.25ZM24.125 31.25H19.375V26.5H24.125V31.25ZM31.25 31.25H26.5V26.5H31.25V31.25ZM31.25 24.125H26.5V19.375H31.25V24.125ZM26.5 17V12.25H31.25V17H26.5Z" fill="#1C1500"/>
</svg>
