<svg width="38" height="38" viewBox="0 0 38 38" fill="none" xmlns="http://www.w3.org/2000/svg">
<rect width="38" height="38" fill="white" fill-opacity="0.01"/>
<path d="M33.25 27.3125V31.5708L27.3125 25.6333V17.8125C27.3125 17.592 27.2511 17.3758 27.1352 17.1882C27.0193 17.0006 26.8534 16.8489 26.6562 16.7503L20.1875 13.5159V6.92087L23.2583 9.99174L24.9375 8.3125L19 2.375L13.0625 8.3125L14.7417 9.99174L17.8125 6.92087V13.5159L11.3438 16.7503C11.1466 16.8489 10.9807 17.0006 10.8648 17.1882C10.7489 17.3758 10.6875 17.592 10.6875 17.8125V25.6333L4.75 31.5708V27.3125H2.375V35.625H10.6875V33.25H6.42924L12.1093 27.57L18.4688 30.7497C18.6338 30.8321 18.8156 30.875 19 30.875C19.1844 30.875 19.3662 30.8321 19.5312 30.7497L25.8907 27.57L31.5708 33.25H27.3125V35.625H35.625V27.3125H33.25ZM17.8125 27.7659L13.0625 25.3909V19.7341L17.8125 22.1091V27.7659ZM19 20.0471L14.5306 17.8125L19 15.5779L23.4694 17.8125L19 20.0471ZM24.9375 25.3909L20.1875 27.7659V22.1091L24.9375 19.7341V25.3909Z" fill="#161616"/>
</svg>
