<svg width="29" height="28" viewBox="0 0 29 28" fill="none" xmlns="http://www.w3.org/2000/svg">
<path fill-rule="evenodd" clip-rule="evenodd" d="M14 8.36223e-05C10.6763 0.000530922 7.46118 1.18346 4.92974 3.33728C2.3983 5.49109 0.715704 8.47528 0.182944 11.756C-0.349816 15.0368 0.302013 18.4 2.02183 21.2442C3.74165 24.0884 6.41725 26.2279 9.57004 27.2801C10.27 27.4101 10.57 26.9801 10.57 26.6101C10.57 26.2401 10.57 25.4001 10.57 24.2301C6.68004 25.0701 5.86004 22.3501 5.86004 22.3501C5.58649 21.4929 5.01076 20.7644 4.24004 20.3001C2.97004 19.4401 4.34004 19.4501 4.34004 19.4501C4.78364 19.5128 5.20706 19.676 5.57795 19.9273C5.94884 20.1786 6.25739 20.5113 6.48004 20.9001C6.86738 21.5948 7.51477 22.1073 8.27987 22.3248C9.04497 22.5423 9.86513 22.4471 10.56 22.0601C10.6165 21.3506 10.9293 20.6858 11.44 20.1901C8.34004 19.8301 5.07004 18.6301 5.07004 13.2701C5.04737 11.878 5.56326 10.5309 6.51004 9.51008C6.0815 8.30428 6.1316 6.98006 6.65004 5.81008C6.65004 5.81008 7.82004 5.43008 10.5 7.24008C12.7915 6.61503 15.2086 6.61503 17.5 7.24008C20.17 5.43008 21.34 5.81008 21.34 5.81008C21.8585 6.98006 21.9086 8.30428 21.48 9.51008C22.4268 10.5309 22.9427 11.878 22.92 13.2701C22.92 18.6501 19.65 19.8301 16.53 20.1801C16.8643 20.5188 17.122 20.9253 17.2859 21.3721C17.4497 21.8189 17.5159 22.2956 17.48 22.7701C17.48 24.6401 17.48 26.1501 17.48 26.6101C17.48 27.0701 17.73 27.4201 18.48 27.2801C21.637 26.2266 24.3153 24.083 26.0349 21.2335C27.7544 18.3841 28.4027 15.0153 27.8634 11.7313C27.324 8.4472 25.6324 5.46266 23.0919 3.31285C20.5514 1.16304 17.3281 -0.0114138 14 8.36223e-05V8.36223e-05Z" fill="#161616"/>
</svg>
