<svg width="35" height="35" viewBox="0 0 35 35" fill="none" xmlns="http://www.w3.org/2000/svg">
<rect width="35" height="35" fill="white" fill-opacity="0.01"/>
<path d="M21.875 8.75V10.9375H29.0783L19.6875 20.3283L14.992 15.633C14.8905 15.5314 14.77 15.4508 14.6373 15.3958C14.5046 15.3408 14.3624 15.3125 14.2188 15.3125C14.0751 15.3125 13.9329 15.3408 13.8002 15.3958C13.6675 15.4508 13.547 15.5314 13.4455 15.633L2.1875 26.8908L3.73417 28.4375L14.2188 17.9529L18.9142 22.6483C19.0157 22.7499 19.1363 22.8305 19.269 22.8855C19.4016 22.9405 19.5439 22.9688 19.6875 22.9688C19.8311 22.9688 19.9734 22.9405 20.106 22.8855C20.2387 22.8305 20.3593 22.7499 20.4608 22.6483L30.625 12.4842V19.6875H32.8125V8.75H21.875Z" fill="#0F62FE"/>
</svg>
