<svg width="34" height="32" viewBox="0 0 34 32" fill="none" xmlns="http://www.w3.org/2000/svg">
<path d="M16 29.0625C11.725 29.0625 7.56875 26.925 5.075 23.125H11.25V20.75H1.75V30.25H4.125V25.8562C7.09375 29.4187 11.3687 31.4375 16 31.4375V29.0625Z" fill="#161616"/>
<path d="M33.8125 24.3125V21.9375H31.3187C31.2 21.225 30.8438 20.5125 30.4875 19.8L32.2688 18.0188L30.6062 16.3562L28.825 18.1375C28.2312 17.7812 27.5187 17.425 26.6875 17.3063V14.8125H24.3125V17.3063C23.6 17.425 22.8875 17.7812 22.175 18.1375L20.3938 16.3562L18.7312 18.0188L20.5125 19.8C20.1562 20.3938 19.8 21.1063 19.6813 21.9375H17.1875V24.3125H19.6813C19.8 25.025 20.1562 25.7375 20.5125 26.45L18.7312 28.2312L20.3938 29.8938L22.175 28.1125C22.7688 28.4688 23.4813 28.825 24.3125 28.9437V31.4375H26.6875V28.9437C27.4 28.825 28.1125 28.4688 28.825 28.1125L30.6062 29.8938L32.2688 28.2312L30.4875 26.45C30.8438 25.8562 31.2 25.1437 31.3187 24.3125H33.8125ZM25.5 26.6875C23.4812 26.6875 21.9375 25.1438 21.9375 23.125C21.9375 21.1062 23.4812 19.5625 25.5 19.5625C27.5188 19.5625 29.0625 21.1062 29.0625 23.125C29.0625 25.1438 27.5188 26.6875 25.5 26.6875Z" fill="#161616"/>
<path d="M20.75 8.875H26.925C23.0063 2.81875 14.9312 1.15625 8.875 5.075C5.19375 7.45 2.9375 11.6062 2.9375 16H0.5625C0.5625 7.45 7.45 0.5625 16 0.5625C20.6313 0.5625 24.9062 2.58125 27.875 6.14375V1.75H30.25V11.25H20.75V8.875Z" fill="#161616"/>
</svg>
