<svg width="35" height="35" viewBox="0 0 35 35" fill="none" xmlns="http://www.w3.org/2000/svg">
<rect width="35" height="35" fill="white" fill-opacity="0.01"/>
<path d="M22.9688 13.125V10.9375H18.5938V7.65625H16.4063V10.9375H14.2188C13.6388 10.9381 13.0827 11.1687 12.6726 11.5788C12.2625 11.989 12.0318 12.545 12.0313 13.125V16.4062C12.0318 16.9862 12.2625 17.5423 12.6726 17.9524C13.0827 18.3625 13.6388 18.5932 14.2188 18.5938H20.7813V21.875H12.0313V24.0625H16.4063V27.3438H18.5938V24.0625H20.7813C21.3612 24.0618 21.9172 23.8312 22.3273 23.4211C22.7374 23.011 22.9681 22.455 22.9688 21.875V18.5938C22.9682 18.0138 22.7375 17.4577 22.3274 17.0476C21.9173 16.6375 21.3612 16.4068 20.7813 16.4062H14.2188V13.125H22.9688Z" fill="#0F62FE"/>
<path d="M17.5 4.375C20.0959 4.375 22.6335 5.14477 24.7919 6.58696C26.9503 8.02915 28.6325 10.079 29.6259 12.4773C30.6193 14.8756 30.8792 17.5146 30.3728 20.0606C29.8664 22.6066 28.6163 24.9452 26.7808 26.7808C24.9452 28.6163 22.6066 29.8664 20.0606 30.3728C17.5146 30.8792 14.8756 30.6193 12.4773 29.6259C10.079 28.6325 8.02916 26.9503 6.58697 24.7919C5.14477 22.6335 4.37501 20.0959 4.37501 17.5C4.38519 14.0222 5.77127 10.6897 8.23048 8.23048C10.6897 5.77127 14.0222 4.38519 17.5 4.375ZM17.5 2.1875C14.4715 2.1875 11.511 3.08556 8.99284 4.76812C6.47471 6.45068 4.51207 8.84217 3.3531 11.6402C2.19413 14.4382 1.8909 17.517 2.48173 20.4873C3.07257 23.4577 4.53094 26.1861 6.67243 28.3276C8.81393 30.4691 11.5424 31.9274 14.5127 32.5183C17.483 33.1091 20.5619 32.8059 23.3598 31.6469C26.1578 30.4879 28.5493 28.5253 30.2319 26.0072C31.9144 23.489 32.8125 20.5285 32.8125 17.5C32.8006 13.4425 31.1835 9.55464 28.3144 6.68556C25.4454 3.81648 21.5575 2.19939 17.5 2.1875Z" fill="#0F62FE"/>
</svg>
