<svg width="37" height="37" viewBox="0 0 37 37" fill="none" xmlns="http://www.w3.org/2000/svg">
<rect width="37" height="37" fill="white" fill-opacity="0.01"/>
<path d="M19.6565 12.7188H17.344V23.125H19.6565V12.7188Z" fill="#161616"/>
<path d="M21.969 2.3125H15.0315V4.625H21.969V2.3125Z" fill="#161616"/>
<path d="M32.3753 10.4062L30.7334 8.77594L28.1318 11.3775C26.0023 8.91819 23.007 7.37391 19.7685 7.06551C16.5299 6.7571 13.2971 7.7083 10.7416 9.72145C8.18612 11.7346 6.5045 14.6549 6.04615 17.8757C5.58779 21.0964 6.38794 24.37 8.28034 27.0161C10.1727 29.6623 13.0119 31.4776 16.2079 32.0849C19.4039 32.6922 22.711 32.0449 25.4421 30.2773C28.1733 28.5097 30.1184 25.7579 30.8734 22.5935C31.6283 19.4291 31.1351 16.0955 29.4962 13.2853L32.3753 10.4062ZM18.5003 30.0625C16.4421 30.0625 14.4302 29.4522 12.7189 28.3087C11.0076 27.1653 9.67378 25.54 8.88616 23.6385C8.09854 21.7371 7.89246 19.6447 8.29398 17.6261C8.69551 15.6075 9.68661 13.7533 11.142 12.2979C12.5973 10.8426 14.4515 9.85148 16.4701 9.44995C18.4887 9.04843 20.5811 9.2545 22.4826 10.0421C24.3841 10.8298 26.0093 12.1635 27.1528 13.8748C28.2962 15.5861 28.9065 17.5981 28.9065 19.6562C28.9065 22.4162 27.8102 25.063 25.8586 27.0146C23.9071 28.9661 21.2602 30.0625 18.5003 30.0625Z" fill="#161616"/>
</svg>
