<svg width="32" height="32" viewBox="0 0 32 32" fill="none" xmlns="http://www.w3.org/2000/svg">
<rect width="32" height="32" fill="white" fill-opacity="0.01" style="mix-blend-mode:multiply"/>
<path d="M27 10H21C20.2046 10.0009 19.4421 10.3172 18.8796 10.8796C18.3172 11.4421 18.0009 12.2046 18 13V19C18.0006 19.5302 18.2115 20.0386 18.5865 20.4135C18.9614 20.7885 19.4698 20.9994 20 21V28C20.0006 28.5302 20.2115 29.0386 20.5865 29.4135C20.9614 29.7885 21.4698 29.9994 22 30H26C26.5302 29.9994 27.0386 29.7885 27.4135 29.4135C27.7885 29.0386 27.9994 28.5302 28 28V21C28.5302 20.9994 29.0386 20.7885 29.4135 20.4135C29.7885 20.0386 29.9994 19.5302 30 19V13C29.9991 12.2046 29.6828 11.4421 29.1204 10.8796C28.5579 10.3172 27.7954 10.0009 27 10ZM28 19H26V28H22V19H20V13C20.0002 12.7349 20.1057 12.4806 20.2932 12.2932C20.4806 12.1057 20.7349 12.0002 21 12H27C27.2651 12.0002 27.5194 12.1057 27.7068 12.2932C27.8943 12.4806 27.9998 12.7349 28 13V19Z" fill="#161616"/>
<path d="M20 5C20 4.20888 20.2346 3.43552 20.6741 2.77772C21.1136 2.11992 21.7384 1.60723 22.4693 1.30448C23.2002 1.00173 24.0044 0.92252 24.7804 1.07686C25.5563 1.2312 26.269 1.61216 26.8284 2.17157C27.3878 2.73098 27.7688 3.44372 27.9231 4.21964C28.0775 4.99556 27.9983 5.79983 27.6955 6.53074C27.3928 7.26164 26.8801 7.88635 26.2223 8.32588C25.5645 8.76541 24.7911 9 24 9C22.9395 8.99889 21.9227 8.57711 21.1728 7.8272C20.4229 7.0773 20.0011 6.06053 20 5ZM22 5C22 5.39556 22.1173 5.78224 22.3371 6.11114C22.5568 6.44004 22.8692 6.69639 23.2346 6.84776C23.6001 6.99914 24.0022 7.03874 24.3902 6.96157C24.7781 6.8844 25.1345 6.69392 25.4142 6.41422C25.6939 6.13451 25.8844 5.77814 25.9616 5.39018C26.0387 5.00222 25.9991 4.60009 25.8478 4.23463C25.6964 3.86918 25.44 3.55683 25.1111 3.33706C24.7822 3.1173 24.3956 3 24 3C23.4698 3.00061 22.9614 3.21152 22.5865 3.58646C22.2115 3.9614 22.0006 4.46976 22 5Z" fill="#161616"/>
<path d="M14 16V13C13.9991 12.2046 13.6828 11.4421 13.1204 10.8796C12.5579 10.3172 11.7954 10.0009 11 10H5C4.20462 10.0009 3.44206 10.3172 2.87964 10.8796C2.31722 11.4421 2.00087 12.2046 2 13V16H0V18H16V16H14ZM4 13C4.00024 12.7349 4.10567 12.4806 4.29316 12.2932C4.48064 12.1057 4.73486 12.0002 5 12H11C11.2651 12.0002 11.5194 12.1057 11.7068 12.2932C11.8943 12.4806 11.9998 12.7349 12 13V16H4V13Z" fill="#161616"/>
<path d="M4 5C4 4.20888 4.2346 3.43552 4.67412 2.77772C5.11365 2.11992 5.73836 1.60723 6.46927 1.30448C7.20017 1.00173 8.00444 0.92252 8.78036 1.07686C9.55629 1.2312 10.269 1.61216 10.8284 2.17157C11.3878 2.73098 11.7688 3.44372 11.9231 4.21964C12.0775 4.99556 11.9983 5.79983 11.6955 6.53074C11.3928 7.26164 10.8801 7.88635 10.2223 8.32588C9.56448 8.76541 8.79113 9 8 9C6.93948 8.99889 5.92271 8.57711 5.1728 7.8272C4.4229 7.0773 4.00111 6.06053 4 5ZM6 5C6 5.39556 6.1173 5.78224 6.33706 6.11114C6.55682 6.44004 6.86918 6.69639 7.23463 6.84776C7.60009 6.99914 8.00222 7.03874 8.39018 6.96157C8.77814 6.8844 9.13451 6.69392 9.41421 6.41422C9.69392 6.13451 9.8844 5.77814 9.96157 5.39018C10.0387 5.00222 9.99913 4.60009 9.84776 4.23463C9.69638 3.86918 9.44004 3.55683 9.11114 3.33706C8.78224 3.1173 8.39556 3 8 3C7.46975 3.00061 6.9614 3.21152 6.58646 3.58646C6.21152 3.9614 6.00061 4.46976 6 5Z" fill="#161616"/>
</svg>
