<svg width="24" height="32" viewBox="0 0 24 32" fill="none" xmlns="http://www.w3.org/2000/svg">
<path d="M21.5 0.5625H2.5C1.87011 0.5625 1.26602 0.812722 0.820621 1.25812C0.375222 1.70352 0.125 2.30761 0.125 2.9375V29.0625C0.125 29.6924 0.375222 30.2965 0.820621 30.7419C1.26602 31.1873 1.87011 31.4375 2.5 31.4375H21.5C22.1299 31.4375 22.734 31.1873 23.1794 30.7419C23.6248 30.2965 23.875 29.6924 23.875 29.0625V2.9375C23.875 2.30761 23.6248 1.70352 23.1794 1.25812C22.734 0.812722 22.1299 0.5625 21.5 0.5625ZM21.5 2.9375V10.0625H2.5V2.9375H21.5ZM2.5 19.5625V12.4375H21.5V19.5625H2.5ZM2.5 29.0625V21.9375H21.5V29.0625H2.5Z" fill="#161616"/>
<path d="M6.0625 7.6875C6.71834 7.6875 7.25 7.15584 7.25 6.5C7.25 5.84416 6.71834 5.3125 6.0625 5.3125C5.40666 5.3125 4.875 5.84416 4.875 6.5C4.875 7.15584 5.40666 7.6875 6.0625 7.6875Z" fill="#161616"/>
<path d="M6.0625 17.1875C6.71834 17.1875 7.25 16.6558 7.25 16C7.25 15.3442 6.71834 14.8125 6.0625 14.8125C5.40666 14.8125 4.875 15.3442 4.875 16C4.875 16.6558 5.40666 17.1875 6.0625 17.1875Z" fill="#161616"/>
<path d="M6.0625 26.6875C6.71834 26.6875 7.25 26.1558 7.25 25.5C7.25 24.8442 6.71834 24.3125 6.0625 24.3125C5.40666 24.3125 4.875 24.8442 4.875 25.5C4.875 26.1558 5.40666 26.6875 6.0625 26.6875Z" fill="#161616"/>
</svg>
