<svg width="35" height="35" viewBox="0 0 35 35" fill="none" xmlns="http://www.w3.org/2000/svg">
<rect width="35" height="35" fill="white" fill-opacity="0.01"/>
<path d="M32.8125 6.5625V4.375H29.5312V2.1875H27.3438V4.375H26.25C25.0438 4.375 24.0625 5.35664 24.0625 6.5625V8.75C24.0625 9.95586 25.0438 10.9375 26.25 10.9375H30.625V13.125H24.0625V15.3125H27.3438V17.5H29.5312V15.3125H30.625C31.8312 15.3125 32.8125 14.3309 32.8125 13.125V10.9375C32.8125 9.73164 31.8312 8.75 30.625 8.75H26.25V6.5625H32.8125Z" fill="#0F62FE"/>
<path d="M26.25 21.875V24.0625H29.0783L25.1565 27.9846L22.6499 25.4766C22.4448 25.2715 22.1666 25.1561 21.8766 25.1561C21.5867 25.1561 21.3081 25.2715 21.103 25.4766L15.3125 31.2658L16.8594 32.8125L21.8761 27.7967L24.3826 30.3046C24.5877 30.5097 24.866 30.6251 25.1562 30.6251C25.4462 30.6251 25.7245 30.5097 25.9295 30.3046L30.625 25.6092V28.4375H32.8125V21.875H26.25Z" fill="#0F62FE"/>
<path d="M4.375 32.8125H2.1875V27.3438C2.1875 23.122 5.62198 19.6875 9.84375 19.6875H16.4062C18.5812 19.6875 20.661 20.6174 22.1123 22.239L20.4824 23.6981C19.4456 22.5396 17.9598 21.8751 16.4062 21.8751H9.84375C6.82817 21.8751 4.375 24.3284 4.375 27.3439V32.8125Z" fill="#0F62FE"/>
<path d="M13.125 17.5C17.3534 17.5 20.7812 14.0722 20.7812 9.84375C20.7812 5.61531 17.3534 2.1875 13.125 2.1875C8.89656 2.1875 5.46875 5.61531 5.46875 9.84375C5.46875 14.0722 8.89656 17.5 13.125 17.5ZM13.125 4.375C16.1454 4.375 18.5938 6.82336 18.5938 9.84375C18.5938 12.8641 16.1454 15.3125 13.125 15.3125C10.1046 15.3125 7.65625 12.8641 7.65625 9.84375C7.65975 6.82489 10.1061 4.3785 13.125 4.375Z" fill="#0F62FE"/>
</svg>
