<svg width="35" height="35" viewBox="0 0 35 35" fill="none" xmlns="http://www.w3.org/2000/svg">
<rect width="35" height="35" fill="white" fill-opacity="0.01"/>
<path d="M35 15.3125H30.625V10.9375H28.4375V15.3125H24.0625V17.5H28.4375V21.875H30.625V17.5H35V15.3125Z" fill="#0F62FE"/>
<path d="M13.125 4.375C14.2066 4.375 15.2639 4.69574 16.1633 5.29665C17.0626 5.89756 17.7636 6.75167 18.1775 7.75095C18.5914 8.75023 18.6997 9.84982 18.4887 10.9107C18.2777 11.9715 17.7568 12.9459 16.992 13.7107C16.2272 14.4756 15.2527 14.9964 14.1919 15.2074C13.1311 15.4184 12.0315 15.3101 11.0322 14.8962C10.0329 14.4823 9.17881 13.7814 8.5779 12.882C7.97699 11.9827 7.65625 10.9254 7.65625 9.84375C7.65625 8.39335 8.23242 7.00235 9.25801 5.97676C10.2836 4.95117 11.6746 4.375 13.125 4.375ZM13.125 2.1875C11.6107 2.1875 10.1305 2.63653 8.87142 3.47781C7.61235 4.31909 6.63103 5.51483 6.05155 6.91383C5.47206 8.31283 5.32044 9.85224 5.61586 11.3374C5.91128 12.8226 6.64047 14.1868 7.71121 15.2575C8.78196 16.3283 10.1462 17.0575 11.6313 17.3529C13.1165 17.6483 14.6559 17.4967 16.0549 16.9172C17.4539 16.3377 18.6497 15.3564 19.4909 14.0973C20.3322 12.8383 20.7812 11.358 20.7812 9.84375C20.7812 7.81319 19.9746 5.86579 18.5388 4.42996C17.103 2.99414 15.1556 2.1875 13.125 2.1875Z" fill="#0F62FE"/>
<path d="M24.0625 32.8125H21.875V27.3438C21.875 25.8933 21.2988 24.5023 20.2732 23.4768C19.2477 22.4512 17.8567 21.875 16.4062 21.875H9.84375C8.39335 21.875 7.00235 22.4512 5.97676 23.4768C4.95117 24.5023 4.375 25.8933 4.375 27.3438V32.8125H2.1875V27.3438C2.1875 25.3132 2.99414 23.3658 4.42996 21.93C5.86579 20.4941 7.81319 19.6875 9.84375 19.6875H16.4062C18.4368 19.6875 20.3842 20.4941 21.82 21.93C23.2559 23.3658 24.0625 25.3132 24.0625 27.3438V32.8125Z" fill="#0F62FE"/>
</svg>
