<svg width="32" height="32" viewBox="0 0 32 32" fill="none" xmlns="http://www.w3.org/2000/svg">
<rect width="32" height="32" fill="white" fill-opacity="0.01"/>
<path fill-rule="evenodd" clip-rule="evenodd" d="M25 21L32 26L25 31V21Z" fill="#161616"/>
<path d="M20.17 19L17.58 21.59L19 23L23 19L19 15L17.58 16.41L20.17 19Z" fill="#161616"/>
<path d="M11.83 19L14.42 16.41L13 15L9 19L13 23L14.42 21.59L11.83 19Z" fill="#161616"/>
<path d="M9 9C9.55228 9 10 8.55228 10 8C10 7.44772 9.55228 7 9 7C8.44772 7 8 7.44772 8 8C8 8.55228 8.44772 9 9 9Z" fill="#161616"/>
<path d="M6 9C6.55228 9 7 8.55228 7 8C7 7.44772 6.55228 7 6 7C5.44772 7 5 7.44772 5 8C5 8.55228 5.44772 9 6 9Z" fill="#161616"/>
<path d="M21 26H4V12H28V19H30V6C30 4.8975 29.1028 4 28 4H4C2.8972 4 2 4.8975 2 6V26C2 27.1025 2.8972 28 4 28H21V26ZM4 6H28V10H4V6Z" fill="#161616"/>
</svg>
