<svg width="32" height="32" viewBox="0 0 32 32" fill="none" xmlns="http://www.w3.org/2000/svg">
<path d="M21.0002 24H11.0002V26H21.0002V24Z" fill="white"/>
<path d="M19.0002 28H13.0002V30H19.0002V28Z" fill="white"/>
<path d="M16.0002 2C13.348 2 10.8045 3.05357 8.9291 4.92893C7.05374 6.8043 6.00017 9.34784 6.00017 12C5.93254 13.4533 6.21094 14.902 6.81246 16.2267C7.41399 17.5514 8.32144 18.7144 9.46017 19.62C10.4602 20.55 11.0002 21.08 11.0002 22H13.0002C13.0002 20.16 11.8902 19.13 10.8102 18.14C9.87553 17.4243 9.13064 16.4903 8.64075 15.4198C8.15086 14.3494 7.93091 13.1752 8.00017 12C8.00017 9.87827 8.84302 7.84344 10.3433 6.34315C11.8436 4.84285 13.8784 4 16.0002 4C18.1219 4 20.1567 4.84285 21.657 6.34315C23.1573 7.84344 24.0002 9.87827 24.0002 12C24.0683 13.176 23.8468 14.3508 23.3551 15.4213C22.8635 16.4918 22.1166 17.4253 21.1802 18.14C20.1102 19.14 19.0002 20.14 19.0002 22H21.0002C21.0002 21.08 21.5302 20.55 22.5402 19.61C23.6781 18.706 24.5851 17.5447 25.1867 16.2217C25.7882 14.8987 26.067 13.4518 26.0002 12C26.0002 10.6868 25.7415 9.38642 25.239 8.17317C24.7364 6.95991 23.9998 5.85752 23.0712 4.92893C22.1427 4.00035 21.0403 3.26375 19.827 2.7612C18.6137 2.25866 17.3134 2 16.0002 2Z" fill="white"/>
</svg>
